<svg xmlns="http://www.w3.org/2000/svg" xmlns:xlink="http://www.w3.org/1999/xlink" width="500" zoomAndPan="magnify" viewBox="0 0 375 374.999991" height="500" preserveAspectRatio="xMidYMid meet" version="1.0"><defs><clipPath id="e1909912ed"><path d="M 101.109375 60.722656 L 273.609375 60.722656 L 273.609375 314.222656 L 101.109375 314.222656 Z M 101.109375 60.722656 " clip-rule="nonzero"/></clipPath></defs><g clip-path="url(#e1909912ed)"><path fill="#d9d9d9" d="M 213.183594 298.492188 C 205.828125 278.632812 198.476562 258.773438 191.125 238.917969 L 171.859375 312.519531 L 164.054688 299.023438 C 159.949219 291.914062 155.84375 284.808594 151.738281 277.703125 L 118.410156 299.746094 L 139.664062 218.539062 C 138.578125 218.191406 137.59375 217.6875 136.695312 217.035156 C 132.972656 214.316406 132.113281 209.847656 131.488281 206.582031 C 131.320312 205.710938 131.082031 204.484375 130.855469 203.78125 C 130.152344 203.554688 128.925781 203.316406 128.058594 203.152344 C 124.792969 202.523438 120.320312 201.664062 117.605469 197.945312 C 114.859375 194.179688 115.417969 189.625 115.824219 186.296875 C 115.929688 185.449219 116.074219 184.257812 116.078125 183.53125 C 115.484375 183.105469 114.425781 182.519531 113.671875 182.101562 C 110.742188 180.480469 106.734375 178.265625 105.300781 173.84375 C 103.875 169.441406 105.816406 165.304688 107.234375 162.285156 C 107.601562 161.5 108.121094 160.394531 108.355469 159.695312 C 107.921875 159.113281 107.113281 158.246094 106.535156 157.628906 C 104.246094 155.175781 101.109375 151.8125 101.109375 147.148438 C 101.109375 142.484375 104.246094 139.121094 106.535156 136.667969 C 107.113281 136.050781 107.921875 135.179688 108.355469 134.597656 C 108.121094 133.902344 107.605469 132.796875 107.234375 132.011719 C 105.816406 128.992188 103.875 124.855469 105.300781 120.453125 C 106.734375 116.03125 110.742188 113.816406 113.671875 112.195312 C 114.425781 111.777344 115.484375 111.191406 116.078125 110.765625 C 116.074219 110.039062 115.929688 108.847656 115.824219 108 C 115.417969 104.671875 114.859375 100.117188 117.601562 96.355469 C 120.320312 92.632812 124.792969 91.773438 128.058594 91.144531 C 128.925781 90.976562 130.152344 90.742188 130.855469 90.515625 C 131.082031 89.8125 131.320312 88.585938 131.488281 87.714844 C 132.113281 84.449219 132.972656 79.980469 136.691406 77.265625 C 138.65625 75.832031 141.042969 75.136719 143.984375 75.136719 C 145.507812 75.136719 147.015625 75.320312 148.34375 75.480469 C 149.390625 75.609375 150.378906 75.730469 151.113281 75.734375 C 151.539062 75.136719 152.121094 74.082031 152.539062 73.328125 C 154.15625 70.398438 156.375 66.386719 160.796875 64.960938 C 161.816406 64.628906 162.902344 64.460938 164.019531 64.460938 C 167.171875 64.460938 169.925781 65.753906 172.355469 66.894531 C 173.140625 67.261719 174.242188 67.78125 174.941406 68.011719 C 175.523438 67.582031 176.390625 66.773438 177.007812 66.195312 C 179.460938 63.90625 182.824219 60.769531 187.488281 60.769531 C 192.152344 60.769531 195.515625 63.90625 197.96875 66.191406 C 198.585938 66.769531 199.457031 67.582031 200.039062 68.011719 C 200.738281 67.78125 201.839844 67.261719 202.625 66.894531 C 205.054688 65.753906 207.808594 64.460938 210.960938 64.460938 C 212.078125 64.460938 213.164062 64.628906 214.1875 64.960938 C 218.605469 66.390625 220.824219 70.402344 222.441406 73.332031 C 222.859375 74.082031 223.441406 75.136719 223.867188 75.734375 C 224.601562 75.730469 225.589844 75.609375 226.636719 75.480469 C 227.964844 75.320312 229.472656 75.136719 230.996094 75.136719 C 233.9375 75.136719 236.320312 75.832031 238.28125 77.261719 C 242.003906 79.976562 242.867188 84.449219 243.496094 87.71875 C 243.664062 88.585938 243.898438 89.8125 244.125 90.515625 C 244.828125 90.742188 246.054688 90.980469 246.921875 91.144531 C 250.1875 91.773438 254.660156 92.632812 257.375 96.351562 C 260.121094 100.117188 259.5625 104.675781 259.15625 108 C 259.050781 108.847656 258.90625 110.039062 258.902344 110.769531 C 259.496094 111.191406 260.554688 111.777344 261.304688 112.195312 C 264.238281 113.8125 268.25 116.035156 269.679688 120.457031 C 271.101562 124.855469 269.160156 128.992188 267.742188 132.011719 C 267.375 132.796875 266.855469 133.902344 266.625 134.601562 C 267.054688 135.183594 267.867188 136.050781 268.441406 136.667969 C 270.730469 139.121094 273.867188 142.484375 273.867188 147.148438 C 273.867188 151.8125 270.734375 155.171875 268.445312 157.628906 C 267.867188 158.246094 267.054688 159.117188 266.625 159.699219 C 266.855469 160.394531 267.375 161.5 267.742188 162.285156 C 269.160156 165.304688 271.105469 169.441406 269.675781 173.84375 C 268.25 178.261719 264.238281 180.480469 261.304688 182.101562 C 260.554688 182.519531 259.496094 183.101562 258.902344 183.527344 C 258.90625 184.257812 259.050781 185.449219 259.15625 186.296875 C 259.5625 189.621094 260.121094 194.179688 257.375 197.941406 C 254.660156 201.664062 250.1875 202.523438 246.917969 203.152344 C 246.050781 203.320312 244.828125 203.554688 244.125 203.78125 C 243.898438 204.484375 243.664062 205.710938 243.496094 206.578125 C 243.035156 208.976562 242.445312 212.027344 240.695312 214.554688 L 270.121094 294.042969 L 233.667969 277.050781 C 231.054688 283.667969 228.441406 290.289062 225.832031 296.910156 L 219.003906 314.214844 Z M 213.183594 298.492188 " fill-opacity="1" fill-rule="nonzero"/></g><path fill="#222f99" d="M 169.605469 295.328125 C 164.363281 286.257812 159.121094 277.183594 153.878906 268.113281 C 145.539062 273.628906 137.199219 279.148438 128.859375 284.664062 C 137.566406 251.394531 146.273438 218.128906 154.980469 184.863281 L 195.726562 195.527344 Z M 222.878906 184.410156 L 183.378906 199.035156 C 195.316406 231.28125 207.253906 263.53125 219.191406 295.78125 C 222.863281 286.480469 226.535156 277.175781 230.207031 267.875 C 239.703125 272.304688 249.199219 276.730469 258.691406 281.15625 Z M 222.878906 184.410156 " fill-opacity="1" fill-rule="nonzero"/><path fill="#e04867" d="M 187.488281 226.628906 C 183.425781 226.628906 179.910156 219.945312 175.96875 219.328125 C 171.976562 218.703125 166.578125 223.984375 162.769531 222.753906 C 158.941406 221.511719 157.664062 214.066406 154.082031 212.238281 C 150.515625 210.417969 143.738281 213.75 140.472656 211.367188 C 137.253906 209.019531 138.347656 201.546875 135.476562 198.675781 C 132.605469 195.800781 125.132812 196.898438 122.785156 193.679688 C 120.398438 190.414062 123.734375 183.636719 121.914062 180.070312 C 120.082031 176.484375 112.636719 175.210938 111.398438 171.382812 C 110.164062 167.574219 115.449219 162.175781 114.824219 158.179688 C 114.207031 154.242188 107.523438 150.722656 107.523438 146.664062 C 107.523438 142.601562 114.207031 139.082031 114.824219 135.144531 C 115.449219 131.148438 110.164062 125.75 111.398438 121.941406 C 112.636719 118.113281 120.082031 116.839844 121.914062 113.253906 C 123.734375 109.691406 120.398438 102.910156 122.785156 99.644531 C 125.132812 96.425781 132.605469 97.523438 135.476562 94.652344 C 138.347656 91.777344 137.253906 84.304688 140.472656 81.957031 C 143.738281 79.574219 150.515625 82.910156 154.082031 81.085938 C 157.664062 79.257812 158.941406 71.8125 162.769531 70.574219 C 166.578125 69.339844 171.976562 74.621094 175.972656 73.996094 C 179.910156 73.382812 183.425781 66.695312 187.488281 66.695312 C 191.550781 66.695312 195.070312 73.382812 199.007812 73.996094 C 203.003906 74.621094 208.402344 69.339844 212.210938 70.574219 C 216.039062 71.8125 217.3125 79.257812 220.894531 81.085938 C 224.460938 82.910156 231.238281 79.574219 234.503906 81.957031 C 237.726562 84.304688 236.628906 91.777344 239.5 94.652344 C 242.375 97.523438 249.84375 96.425781 252.195312 99.644531 C 254.578125 102.910156 251.242188 109.691406 253.066406 113.253906 C 254.894531 116.839844 262.339844 118.113281 263.578125 121.941406 C 264.8125 125.75 259.53125 131.148438 260.15625 135.144531 C 260.769531 139.082031 267.457031 142.601562 267.457031 146.664062 C 267.457031 150.722656 260.769531 154.242188 260.15625 158.179688 C 259.53125 162.175781 264.8125 167.574219 263.578125 171.382812 C 262.339844 175.210938 254.894531 176.488281 253.066406 180.070312 C 251.242188 183.636719 254.578125 190.414062 252.195312 193.679688 C 249.84375 196.898438 242.375 195.800781 239.5 198.675781 C 236.628906 201.546875 237.726562 209.019531 234.503906 211.367188 C 231.238281 213.75 224.460938 210.417969 220.894531 212.238281 C 217.3125 214.066406 216.039062 221.511719 212.210938 222.753906 C 208.402344 223.984375 203.003906 218.703125 199.007812 219.328125 C 195.070312 219.945312 191.550781 226.628906 187.488281 226.628906 Z M 187.488281 226.628906 " fill-opacity="1" fill-rule="nonzero"/><path fill="#ffffff" d="M 179.710938 163.371094 C 188.917969 150.304688 198.125 137.234375 207.328125 124.167969 L 217.804688 130.832031 C 205.882812 148.273438 193.957031 165.710938 182.035156 183.152344 L 157.171875 158.292969 C 160.136719 155.328125 163.097656 152.367188 166.0625 149.402344 C 170.613281 154.058594 175.160156 158.714844 179.710938 163.371094 Z M 205.003906 193.644531 C 218.683594 188.515625 225.738281 178.957031 228.054688 175.816406 C 233.738281 168.113281 235.898438 160.769531 236.5625 157.96875 C 237.261719 155.027344 238.6875 147.125 236.839844 137.378906 C 236.105469 133.503906 234.921875 129.703125 233.324219 126.078125 C 233.144531 125.671875 232.671875 125.488281 232.265625 125.667969 C 231.863281 125.847656 231.679688 126.320312 231.859375 126.722656 C 233.40625 130.238281 234.554688 133.921875 235.265625 137.679688 C 237.054688 147.121094 235.675781 154.757812 235.003906 157.601562 C 234.363281 160.304688 232.273438 167.398438 226.765625 174.863281 C 224.515625 177.910156 217.675781 187.179688 204.441406 192.144531 C 192.625 196.578125 181.882812 195.3125 174.949219 193.472656 C 169.121094 191.921875 158.054688 187.71875 149.441406 177 C 146.125 172.871094 138.453125 161.589844 138.839844 146.070312 C 138.945312 141.914062 139.628906 137.765625 140.867188 133.738281 C 141 133.316406 140.761719 132.867188 140.339844 132.738281 C 139.917969 132.605469 139.46875 132.84375 139.335938 133.265625 C 138.054688 137.433594 137.347656 141.726562 137.238281 146.027344 C 136.835938 162.078125 144.765625 173.734375 148.191406 178.003906 C 157.09375 189.082031 168.519531 193.417969 174.539062 195.019531 C 178.097656 195.964844 182.632812 196.765625 187.792969 196.765625 C 193.007812 196.765625 198.867188 195.949219 205.003906 193.644531 Z M 188.265625 227.203125 L 170.378906 295.53125 C 170.296875 295.847656 170.035156 296.078125 169.710938 296.121094 C 169.675781 296.128906 169.640625 296.128906 169.605469 296.128906 C 169.320312 296.128906 169.054688 295.980469 168.910156 295.730469 L 153.609375 269.25 L 129.300781 285.332031 C 129.023438 285.515625 128.660156 285.507812 128.390625 285.316406 C 128.121094 285.121094 128 284.78125 128.082031 284.460938 L 146.902344 212.558594 C 147.417969 212.789062 147.988281 212.832031 148.523438 212.691406 L 130.164062 282.839844 L 153.4375 267.445312 C 153.570312 267.359375 153.722656 267.3125 153.878906 267.3125 C 153.941406 267.3125 154.003906 267.320312 154.0625 267.332031 C 154.277344 267.382812 154.460938 267.523438 154.574219 267.714844 L 169.324219 293.238281 L 186.609375 227.191406 C 187.140625 227.363281 187.730469 227.367188 188.265625 227.203125 Z M 259.238281 281.746094 C 258.996094 281.964844 258.648438 282.019531 258.355469 281.882812 L 230.636719 268.960938 L 219.9375 296.074219 C 219.816406 296.378906 219.519531 296.582031 219.191406 296.582031 L 219.183594 296.582031 C 218.851562 296.578125 218.558594 296.371094 218.441406 296.058594 L 191.625 223.621094 C 192.074219 223.296875 192.523438 222.980469 192.980469 222.667969 L 219.214844 293.535156 L 229.460938 267.582031 C 229.539062 267.375 229.703125 267.210938 229.910156 267.132812 C 230.113281 267.046875 230.34375 267.054688 230.542969 267.148438 L 257.265625 279.605469 L 232.6875 213.21875 C 233.179688 213.132812 233.652344 212.925781 233.996094 212.550781 C 234.035156 212.511719 234.070312 212.46875 234.105469 212.425781 L 259.445312 280.878906 C 259.558594 281.183594 259.476562 281.527344 259.238281 281.746094 Z M 187.488281 227.429688 C 185.035156 227.429688 182.898438 225.441406 180.835938 223.515625 C 179.179688 221.96875 177.46875 220.375 175.847656 220.121094 C 174.1875 219.859375 172.042969 220.867188 169.972656 221.839844 C 167.4375 223.027344 164.816406 224.257812 162.519531 223.515625 C 160.210938 222.765625 158.804688 220.226562 157.445312 217.765625 C 156.339844 215.773438 155.203125 213.710938 153.71875 212.953125 C 152.246094 212.199219 149.914062 212.484375 147.660156 212.761719 C 144.863281 213.101562 141.972656 213.457031 140 212.015625 C 138.0625 210.601562 137.519531 207.773438 136.992188 205.035156 C 136.558594 202.777344 136.109375 200.441406 134.910156 199.242188 C 133.710938 198.042969 131.375 197.59375 129.117188 197.160156 C 126.378906 196.632812 123.546875 196.085938 122.136719 194.152344 C 120.695312 192.179688 121.050781 189.285156 121.390625 186.492188 C 121.667969 184.234375 121.953125 181.90625 121.199219 180.433594 C 120.441406 178.949219 118.378906 177.808594 116.386719 176.707031 C 113.925781 175.347656 111.386719 173.941406 110.636719 171.628906 C 109.894531 169.335938 111.125 166.714844 112.3125 164.179688 C 113.285156 162.109375 114.289062 159.964844 114.03125 158.304688 C 113.777344 156.683594 112.179688 154.972656 110.636719 153.316406 C 108.710938 151.253906 106.722656 149.117188 106.722656 146.664062 C 106.722656 144.207031 108.710938 142.074219 110.636719 140.007812 C 112.179688 138.351562 113.777344 136.640625 114.03125 135.019531 C 114.289062 133.359375 113.285156 131.21875 112.3125 129.144531 C 111.125 126.609375 109.894531 123.992188 110.636719 121.695312 C 111.386719 119.382812 113.925781 117.976562 116.386719 116.617188 C 118.378906 115.515625 120.441406 114.375 121.199219 112.890625 C 121.953125 111.417969 121.667969 109.089844 121.390625 106.835938 C 121.050781 104.039062 120.695312 101.148438 122.136719 99.171875 C 123.546875 97.238281 126.378906 96.695312 129.117188 96.167969 C 131.375 95.730469 133.710938 95.28125 134.910156 94.085938 C 136.109375 92.886719 136.558594 90.550781 136.992188 88.289062 C 137.519531 85.550781 138.066406 82.722656 140 81.308594 C 141.972656 79.871094 144.867188 80.222656 147.660156 80.566406 C 149.914062 80.839844 152.246094 81.125 153.71875 80.375 C 155.203125 79.617188 156.34375 77.554688 157.445312 75.558594 C 158.804688 73.101562 160.210938 70.558594 162.519531 69.808594 C 164.816406 69.066406 167.4375 70.296875 169.972656 71.484375 C 172.042969 72.457031 174.1875 73.464844 175.847656 73.207031 C 177.46875 72.953125 179.179688 71.355469 180.835938 69.8125 C 182.898438 67.886719 185.035156 65.894531 187.488281 65.894531 C 189.945312 65.894531 192.078125 67.886719 194.144531 69.8125 C 195.800781 71.355469 197.511719 72.953125 199.132812 73.207031 C 200.792969 73.464844 202.933594 72.457031 205.007812 71.484375 C 207.539062 70.296875 210.160156 69.066406 212.457031 69.808594 C 214.769531 70.558594 216.175781 73.101562 217.535156 75.558594 C 218.636719 77.554688 219.777344 79.617188 221.261719 80.375 C 222.730469 81.125 225.0625 80.839844 227.316406 80.566406 C 230.113281 80.222656 233.003906 79.871094 234.976562 81.308594 C 236.914062 82.722656 237.457031 85.550781 237.984375 88.289062 C 238.417969 90.550781 238.867188 92.886719 240.066406 94.082031 C 241.265625 95.28125 243.601562 95.730469 245.863281 96.167969 C 248.597656 96.695312 251.429688 97.238281 252.84375 99.171875 C 254.28125 101.148438 253.929688 104.039062 253.585938 106.835938 C 253.3125 109.089844 253.027344 111.417969 253.777344 112.890625 C 254.535156 114.375 256.597656 115.515625 258.59375 116.617188 C 261.050781 117.976562 263.59375 119.382812 264.34375 121.695312 C 265.085938 123.992188 263.855469 126.609375 262.664062 129.144531 C 261.691406 131.21875 260.6875 133.359375 260.945312 135.019531 C 261.199219 136.640625 262.796875 138.351562 264.339844 140.007812 C 266.265625 142.074219 268.257812 144.207031 268.257812 146.664062 C 268.257812 149.117188 266.265625 151.253906 264.339844 153.316406 C 262.796875 154.972656 261.199219 156.683594 260.945312 158.304688 C 260.6875 159.964844 261.691406 162.109375 262.664062 164.179688 C 263.855469 166.714844 265.085938 169.335938 264.339844 171.628906 C 263.59375 173.941406 261.050781 175.347656 258.59375 176.707031 C 256.597656 177.808594 254.535156 178.949219 253.777344 180.433594 C 253.027344 181.90625 253.3125 184.238281 253.585938 186.492188 C 253.929688 189.285156 254.28125 192.179688 252.84375 194.152344 C 251.429688 196.085938 248.597656 196.632812 245.863281 197.160156 C 243.601562 197.59375 241.265625 198.042969 240.066406 199.242188 C 238.867188 200.441406 238.417969 202.777344 237.984375 205.035156 C 237.457031 207.773438 236.914062 210.601562 234.976562 212.015625 C 233.003906 213.457031 230.113281 213.101562 227.316406 212.761719 C 225.0625 212.484375 222.730469 212.199219 221.261719 212.953125 C 219.777344 213.710938 218.636719 215.773438 217.53125 217.765625 C 216.175781 220.226562 214.769531 222.765625 212.457031 223.515625 C 210.160156 224.257812 207.539062 223.027344 205.007812 221.839844 C 202.933594 220.867188 200.792969 219.859375 199.132812 220.121094 C 197.511719 220.375 195.800781 221.96875 194.144531 223.515625 C 192.078125 225.441406 189.945312 227.429688 187.488281 227.429688 Z M 175.289062 218.476562 C 175.5625 218.476562 175.828125 218.496094 176.09375 218.535156 C 178.199219 218.867188 180.097656 220.632812 181.929688 222.34375 C 183.765625 224.054688 185.664062 225.828125 187.488281 225.828125 C 189.3125 225.828125 191.210938 224.054688 193.050781 222.34375 C 194.882812 220.632812 196.777344 218.867188 198.882812 218.535156 C 201.027344 218.199219 203.398438 219.3125 205.6875 220.386719 C 207.941406 221.445312 210.269531 222.539062 211.964844 221.988281 C 213.671875 221.4375 214.921875 219.175781 216.128906 216.992188 C 217.351562 214.785156 218.613281 212.503906 220.53125 211.523438 C 222.4375 210.550781 225.019531 210.863281 227.511719 211.167969 C 230 211.472656 232.570312 211.789062 234.035156 210.722656 C 235.460938 209.679688 235.941406 207.164062 236.410156 204.734375 C 236.890625 202.234375 237.386719 199.652344 238.933594 198.109375 C 240.480469 196.5625 243.0625 196.066406 245.558594 195.585938 C 247.992188 195.117188 250.507812 194.632812 251.546875 193.207031 C 252.613281 191.746094 252.300781 189.171875 251.996094 186.683594 C 251.691406 184.191406 251.375 181.613281 252.351562 179.703125 C 253.332031 177.785156 255.613281 176.523438 257.816406 175.304688 C 260.003906 174.09375 262.261719 172.847656 262.816406 171.136719 C 263.363281 169.441406 262.273438 167.113281 261.214844 164.859375 C 260.140625 162.570312 259.027344 160.203125 259.363281 158.058594 C 259.691406 155.949219 261.460938 154.054688 263.167969 152.222656 C 264.882812 150.386719 266.65625 148.488281 266.65625 146.664062 C 266.65625 144.839844 264.882812 142.9375 263.167969 141.101562 C 261.460938 139.269531 259.691406 137.375 259.363281 135.269531 C 259.027344 133.125 260.140625 130.753906 261.214844 128.464844 C 262.273438 126.210938 263.367188 123.882812 262.816406 122.1875 C 262.261719 120.480469 260.003906 119.230469 257.816406 118.019531 C 255.613281 116.800781 253.332031 115.539062 252.351562 113.621094 C 251.375 111.710938 251.691406 109.132812 251.996094 106.640625 C 252.300781 104.152344 252.613281 101.582031 251.546875 100.117188 C 250.507812 98.691406 247.992188 98.207031 245.558594 97.742188 C 243.0625 97.261719 240.480469 96.765625 238.933594 95.21875 C 237.386719 93.671875 236.890625 91.089844 236.410156 88.59375 C 235.941406 86.160156 235.460938 83.644531 234.035156 82.605469 C 232.570312 81.535156 230 81.851562 227.511719 82.15625 C 225.019531 82.460938 222.4375 82.777344 220.53125 81.800781 C 218.613281 80.820312 217.351562 78.539062 216.132812 76.335938 C 214.921875 74.148438 213.671875 71.886719 211.964844 71.335938 C 210.269531 70.785156 207.941406 71.878906 205.6875 72.9375 C 203.398438 74.011719 201.027344 75.125 198.882812 74.789062 C 196.777344 74.460938 194.882812 72.691406 193.050781 70.984375 C 191.214844 69.269531 189.3125 67.496094 187.488281 67.496094 C 185.664062 67.496094 183.765625 69.269531 181.929688 70.984375 C 180.097656 72.691406 178.199219 74.460938 176.09375 74.789062 C 173.949219 75.125 171.582031 74.011719 169.289062 72.9375 C 167.039062 71.878906 164.710938 70.785156 163.015625 71.335938 C 161.304688 71.886719 160.054688 74.148438 158.847656 76.335938 C 157.628906 78.539062 156.367188 80.820312 154.445312 81.800781 C 152.539062 82.777344 149.960938 82.460938 147.46875 82.15625 C 144.980469 81.851562 142.40625 81.535156 140.945312 82.605469 C 139.519531 83.644531 139.035156 86.160156 138.566406 88.59375 C 138.085938 91.089844 137.589844 93.671875 136.042969 95.21875 C 134.496094 96.765625 131.914062 97.261719 129.417969 97.742188 C 126.988281 98.207031 124.472656 98.691406 123.429688 100.117188 C 122.363281 101.582031 122.679688 104.152344 122.980469 106.640625 C 123.285156 109.132812 123.601562 111.710938 122.628906 113.621094 C 121.648438 115.539062 119.367188 116.800781 117.160156 118.019531 C 114.976562 119.230469 112.714844 120.480469 112.160156 122.1875 C 111.613281 123.882812 112.707031 126.210938 113.761719 128.464844 C 114.839844 130.753906 115.949219 133.125 115.613281 135.269531 C 115.285156 137.375 113.519531 139.269531 111.808594 141.101562 C 110.09375 142.9375 108.324219 144.839844 108.324219 146.664062 C 108.324219 148.488281 110.09375 150.386719 111.808594 152.222656 C 113.519531 154.054688 115.285156 155.949219 115.613281 158.058594 C 115.949219 160.203125 114.839844 162.570312 113.761719 164.859375 C 112.707031 167.113281 111.613281 169.441406 112.160156 171.136719 C 112.714844 172.847656 114.976562 174.09375 117.160156 175.304688 C 119.367188 176.523438 121.648438 177.785156 122.628906 179.703125 C 123.601562 181.613281 123.285156 184.191406 122.980469 186.683594 C 122.679688 189.171875 122.363281 191.746094 123.429688 193.207031 C 124.472656 194.632812 126.988281 195.117188 129.417969 195.585938 C 131.914062 196.066406 134.496094 196.5625 136.042969 198.109375 C 137.589844 199.65625 138.085938 202.234375 138.566406 204.730469 C 139.035156 207.164062 139.519531 209.679688 140.945312 210.722656 C 142.40625 211.789062 144.980469 211.472656 147.464844 211.167969 C 149.960938 210.863281 152.539062 210.550781 154.445312 211.523438 C 156.367188 212.503906 157.628906 214.785156 158.847656 216.992188 C 160.054688 219.175781 161.304688 221.4375 163.015625 221.992188 C 164.710938 222.539062 167.039062 221.445312 169.289062 220.386719 C 171.296875 219.445312 173.363281 218.476562 175.289062 218.476562 Z M 187.488281 210.71875 C 152.167969 210.71875 123.433594 181.984375 123.433594 146.664062 C 123.433594 111.339844 152.167969 82.605469 187.488281 82.605469 C 222.808594 82.605469 251.546875 111.339844 251.546875 146.664062 C 251.546875 181.984375 222.808594 210.71875 187.488281 210.71875 Z M 187.488281 84.207031 C 153.050781 84.207031 125.035156 112.226562 125.035156 146.664062 C 125.035156 181.101562 153.050781 209.117188 187.488281 209.117188 C 221.925781 209.117188 249.941406 181.101562 249.941406 146.664062 C 249.941406 112.226562 221.925781 84.207031 187.488281 84.207031 Z M 142.964844 120.183594 C 142.824219 120.03125 142.667969 119.90625 142.523438 119.773438 C 142.371094 119.636719 142.230469 119.492188 142.070312 119.375 C 141.90625 119.253906 141.738281 119.144531 141.570312 119.046875 C 141.390625 118.945312 141.210938 118.855469 141.027344 118.78125 C 140.839844 118.703125 140.65625 118.605469 140.464844 118.5625 C 140.265625 118.515625 140.058594 118.539062 139.859375 118.527344 C 139.660156 118.515625 139.460938 118.519531 139.261719 118.539062 C 139.0625 118.5625 138.851562 118.550781 138.660156 118.609375 C 138.46875 118.664062 138.292969 118.769531 138.109375 118.859375 C 137.933594 118.949219 137.777344 119.078125 137.609375 119.195312 C 137.445312 119.308594 137.265625 119.40625 137.117188 119.546875 C 136.972656 119.683594 136.867188 119.859375 136.734375 120.019531 C 136.609375 120.171875 136.5 120.335938 136.386719 120.507812 C 136.277344 120.671875 136.140625 120.820312 136.039062 121.003906 C 135.953125 121.167969 135.867188 121.335938 135.785156 121.5 C 135.699219 121.664062 135.628906 121.839844 135.546875 122.003906 C 135.464844 122.171875 135.339844 122.316406 135.261719 122.484375 C 135.179688 122.652344 135.152344 122.847656 135.070312 123.015625 C 134.992188 123.183594 134.882812 123.339844 134.800781 123.511719 C 134.71875 123.675781 134.601562 123.828125 134.515625 123.996094 C 134.421875 124.242188 134.367188 124.464844 134.28125 124.636719 C 134.15625 124.90625 134.039062 125.097656 134.003906 125.261719 C 133.953125 125.476562 134.027344 125.65625 134.285156 125.84375 C 134.421875 125.945312 134.628906 126.035156 134.886719 126.167969 C 135.054688 126.253906 135.238281 126.332031 135.421875 126.425781 C 135.59375 126.515625 135.742188 126.660156 135.921875 126.753906 C 136.097656 126.84375 136.300781 126.875 136.484375 126.96875 C 136.660156 127.058594 136.824219 127.171875 137 127.261719 C 137.175781 127.351562 137.375 127.402344 137.554688 127.492188 C 137.730469 127.582031 137.871094 127.746094 138.050781 127.835938 C 138.226562 127.925781 138.425781 127.96875 138.601562 128.058594 C 138.78125 128.148438 138.941406 128.269531 139.113281 128.355469 C 139.292969 128.445312 139.480469 128.515625 139.65625 128.601562 C 139.835938 128.6875 140.011719 128.785156 140.183594 128.867188 C 140.363281 128.957031 140.546875 129.035156 140.71875 129.117188 C 140.882812 129.195312 141.050781 129.308594 141.242188 129.402344 C 141.410156 129.484375 141.621094 129.507812 141.804688 129.601562 C 141.980469 129.6875 142.136719 129.820312 142.320312 129.914062 C 142.496094 130 142.691406 130.054688 142.871094 130.144531 C 143.046875 130.234375 143.207031 130.359375 143.386719 130.449219 C 143.5625 130.539062 143.746094 130.621094 143.921875 130.707031 C 144.101562 130.800781 144.285156 130.875 144.460938 130.960938 C 144.640625 131.054688 144.820312 131.148438 144.992188 131.234375 C 145.175781 131.328125 145.359375 131.40625 145.527344 131.492188 C 145.761719 131.582031 145.941406 131.699219 146.101562 131.714844 C 146.351562 131.738281 146.503906 131.605469 146.640625 131.46875 C 146.765625 131.347656 146.859375 131.183594 146.957031 130.964844 C 147.035156 130.796875 147.167969 130.632812 147.261719 130.421875 C 147.339844 130.246094 147.371094 130.035156 147.476562 129.839844 C 147.582031 129.648438 147.703125 129.472656 147.800781 129.28125 C 147.898438 129.089844 148.015625 128.90625 148.109375 128.714844 C 148.203125 128.523438 148.285156 128.324219 148.375 128.128906 C 148.464844 127.933594 148.519531 127.722656 148.609375 127.527344 C 148.695312 127.332031 148.832031 127.15625 148.914062 126.957031 C 148.996094 126.757812 149.070312 126.554688 149.148438 126.355469 C 149.226562 126.164062 149.246094 125.964844 149.292969 125.78125 C 149.34375 125.585938 149.375 125.394531 149.394531 125.203125 C 149.417969 125.003906 149.472656 124.8125 149.46875 124.617188 C 149.460938 124.417969 149.425781 124.222656 149.390625 124.03125 C 149.351562 123.839844 149.292969 123.648438 149.226562 123.464844 C 149.15625 123.28125 149.050781 123.117188 148.953125 122.941406 C 148.859375 122.773438 148.78125 122.59375 148.65625 122.433594 C 148.539062 122.28125 148.4375 122.105469 148.292969 121.964844 C 148.15625 121.832031 147.976562 121.726562 147.816406 121.609375 C 147.660156 121.492188 147.480469 121.410156 147.308594 121.308594 C 147.113281 121.199219 146.925781 121.101562 146.730469 121.015625 C 146.527344 120.925781 146.320312 120.871094 146.113281 120.8125 C 145.90625 120.75 145.710938 120.628906 145.496094 120.597656 C 145.28125 120.570312 145.0625 120.621094 144.84375 120.628906 C 144.628906 120.632812 144.410156 120.605469 144.191406 120.644531 C 143.984375 120.683594 143.777344 120.753906 143.566406 120.828125 C 143.324219 120.558594 143.140625 120.375 142.964844 120.183594 Z M 139.515625 125.808594 C 139.3125 125.710938 139.09375 125.671875 138.90625 125.578125 C 138.707031 125.480469 138.523438 125.367188 138.339844 125.277344 C 138.140625 125.179688 137.957031 125.066406 137.769531 124.976562 C 137.574219 124.878906 137.378906 124.800781 137.1875 124.707031 C 137.1875 124.507812 137.164062 124.3125 137.195312 124.132812 C 137.226562 123.9375 137.324219 123.765625 137.382812 123.589844 C 137.445312 123.40625 137.511719 123.230469 137.597656 123.0625 C 137.683594 122.890625 137.75 122.707031 137.855469 122.546875 C 137.964844 122.390625 138.078125 122.234375 138.199219 122.089844 C 138.320312 121.941406 138.484375 121.828125 138.617188 121.691406 C 138.769531 121.523438 138.929688 121.382812 139.101562 121.28125 C 139.296875 121.167969 139.496094 121.089844 139.699219 121.058594 C 139.914062 121.023438 140.136719 121.007812 140.34375 121.058594 C 140.546875 121.113281 140.730469 121.234375 140.910156 121.367188 C 141.082031 121.496094 141.1875 121.660156 141.292969 121.804688 C 141.414062 121.972656 141.523438 122.128906 141.5625 122.316406 C 141.597656 122.503906 141.628906 122.703125 141.589844 122.90625 C 141.558594 123.085938 141.492188 123.277344 141.402344 123.46875 C 141.320312 123.648438 141.253906 123.832031 141.167969 124.011719 C 141.082031 124.1875 140.929688 124.328125 140.839844 124.507812 C 140.753906 124.683594 140.726562 124.886719 140.636719 125.070312 C 140.554688 125.242188 140.421875 125.398438 140.332031 125.582031 C 140.246094 125.753906 140.175781 125.9375 140.085938 126.121094 C 139.878906 126.023438 139.699219 125.898438 139.515625 125.808594 Z M 144.8125 128.355469 C 144.632812 128.269531 144.457031 128.175781 144.277344 128.089844 C 144.097656 128.003906 143.949219 127.859375 143.773438 127.773438 C 143.589844 127.683594 143.386719 127.648438 143.210938 127.5625 C 143.027344 127.472656 142.859375 127.367188 142.6875 127.28125 C 142.5 127.191406 142.339844 127.09375 142.171875 127.011719 C 142.246094 126.820312 142.3125 126.636719 142.390625 126.453125 C 142.472656 126.265625 142.523438 126.0625 142.609375 125.882812 C 142.699219 125.699219 142.839844 125.546875 142.933594 125.367188 C 143.03125 125.191406 143.125 125.011719 143.230469 124.839844 C 143.335938 124.667969 143.414062 124.472656 143.53125 124.304688 C 143.644531 124.140625 143.765625 123.972656 143.890625 123.8125 C 144.035156 123.628906 144.230469 123.511719 144.398438 123.398438 C 144.589844 123.265625 144.78125 123.175781 144.984375 123.128906 C 145.199219 123.082031 145.417969 123.074219 145.632812 123.117188 C 145.84375 123.15625 146.0625 123.207031 146.257812 123.324219 C 146.453125 123.4375 146.597656 123.601562 146.722656 123.753906 C 146.859375 123.917969 146.914062 124.113281 146.957031 124.324219 C 147 124.515625 147.039062 124.714844 147 124.945312 C 146.972656 125.132812 146.9375 125.347656 146.851562 125.5625 C 146.78125 125.734375 146.707031 125.90625 146.628906 126.078125 C 146.554688 126.246094 146.492188 126.421875 146.410156 126.59375 C 146.328125 126.757812 146.175781 126.890625 146.089844 127.0625 C 146.007812 127.226562 145.984375 127.421875 145.898438 127.59375 C 145.816406 127.757812 145.6875 127.902344 145.601562 128.074219 C 145.519531 128.234375 145.449219 128.410156 145.367188 128.582031 C 145.1875 128.496094 144.992188 128.445312 144.8125 128.355469 Z M 145.539062 111.179688 C 145.679688 111.015625 145.800781 110.84375 145.941406 110.6875 C 146.078125 110.527344 146.261719 110.40625 146.398438 110.25 C 146.539062 110.089844 146.660156 109.917969 146.792969 109.761719 C 146.933594 109.601562 147.09375 109.460938 147.230469 109.304688 C 147.371094 109.144531 147.5 108.980469 147.640625 108.820312 C 147.777344 108.664062 147.878906 108.472656 148.015625 108.3125 C 148.15625 108.15625 148.296875 108 148.433594 107.839844 C 148.613281 107.640625 148.777344 107.492188 148.871094 107.332031 C 148.992188 107.121094 149.011719 106.941406 148.914062 106.707031 C 148.847656 106.546875 148.742188 106.363281 148.542969 106.15625 C 148.367188 106.003906 148.222656 105.839844 148.082031 105.714844 C 147.90625 105.554688 147.738281 105.441406 147.527344 105.457031 C 147.371094 105.46875 147.164062 105.523438 146.941406 105.707031 C 146.804688 105.820312 146.695312 106.011719 146.523438 106.207031 C 146.390625 106.351562 146.261719 106.496094 146.132812 106.644531 C 146.003906 106.792969 145.839844 106.910156 145.714844 107.058594 C 145.589844 107.210938 145.492188 107.386719 145.371094 107.539062 C 145.25 107.691406 145.152344 107.863281 145.03125 108.019531 C 144.910156 108.171875 144.757812 108.300781 144.636719 108.453125 C 144.5 108.621094 144.394531 108.8125 144.253906 108.972656 C 144.109375 109.128906 143.972656 109.292969 143.820312 109.449219 C 143.675781 109.601562 143.492188 109.726562 143.339844 109.882812 C 143.191406 110.03125 143.042969 110.1875 142.890625 110.34375 C 142.742188 110.496094 142.605469 110.660156 142.457031 110.820312 C 142.3125 110.976562 142.132812 111.105469 141.988281 111.273438 C 141.851562 111.429688 141.765625 111.617188 141.628906 111.789062 C 141.777344 111.921875 141.894531 112.058594 142.042969 112.191406 C 142.191406 112.324219 142.308594 112.488281 142.457031 112.621094 C 142.605469 112.757812 142.78125 112.859375 142.929688 112.992188 C 143.078125 113.125 143.210938 113.273438 143.359375 113.40625 C 143.507812 113.542969 143.65625 113.675781 143.804688 113.808594 C 143.949219 113.941406 144.117188 114.054688 144.265625 114.1875 C 144.410156 114.324219 144.566406 114.449219 144.714844 114.582031 C 144.863281 114.714844 144.96875 114.894531 145.117188 115.027344 C 145.261719 115.160156 145.453125 115.246094 145.601562 115.378906 C 145.75 115.511719 145.878906 115.664062 146.027344 115.796875 C 146.171875 115.929688 146.351562 116.027344 146.496094 116.160156 C 146.644531 116.292969 146.738281 116.484375 146.886719 116.617188 C 147.03125 116.75 147.214844 116.84375 147.359375 116.976562 C 147.507812 117.105469 147.632812 117.265625 147.777344 117.398438 C 147.925781 117.53125 148.085938 117.644531 148.234375 117.777344 C 148.382812 117.910156 148.523438 118.046875 148.671875 118.175781 C 148.820312 118.308594 148.972656 118.429688 149.121094 118.5625 C 149.269531 118.695312 149.398438 118.84375 149.546875 118.976562 C 149.695312 119.105469 149.890625 119.183594 150.039062 119.316406 C 150.1875 119.445312 150.300781 119.617188 150.445312 119.746094 C 150.59375 119.878906 150.769531 119.980469 150.917969 120.109375 C 151.066406 120.238281 151.1875 120.398438 151.335938 120.527344 C 151.464844 120.640625 151.757812 120.679688 152.039062 120.660156 C 152.316406 120.644531 152.582031 120.554688 152.707031 120.429688 C 152.839844 120.289062 152.980469 120.152344 153.117188 120.011719 C 153.25 119.871094 153.378906 119.71875 153.511719 119.578125 C 153.648438 119.4375 153.828125 119.339844 153.964844 119.199219 C 154.097656 119.054688 154.175781 118.859375 154.308594 118.71875 C 154.445312 118.574219 154.578125 118.433594 154.710938 118.289062 C 154.84375 118.148438 155.023438 118.046875 155.15625 117.902344 C 155.289062 117.757812 155.375 117.574219 155.507812 117.425781 C 155.636719 117.28125 155.785156 117.152344 155.914062 117.003906 C 156.042969 116.859375 156.1875 116.726562 156.316406 116.578125 C 156.445312 116.433594 156.5625 116.273438 156.691406 116.125 C 156.820312 115.980469 156.917969 115.804688 157.042969 115.65625 C 157.167969 115.507812 157.335938 115.394531 157.460938 115.242188 C 157.601562 115.074219 157.667969 114.894531 157.679688 114.738281 C 157.695312 114.550781 157.59375 114.398438 157.472656 114.253906 C 157.363281 114.125 157.21875 114.027344 157.039062 113.945312 C 156.882812 113.871094 156.71875 113.777344 156.527344 113.753906 C 156.320312 113.722656 156.121094 113.699219 155.9375 113.710938 C 155.75 113.722656 155.574219 113.78125 155.410156 113.945312 C 155.25 114.097656 155.117188 114.277344 154.96875 114.441406 C 154.820312 114.605469 154.648438 114.75 154.503906 114.917969 C 154.359375 115.085938 154.1875 115.230469 154.042969 115.402344 C 153.902344 115.574219 153.789062 115.765625 153.644531 115.933594 C 153.5 116.105469 153.375 116.292969 153.226562 116.457031 C 153.078125 116.617188 152.929688 116.78125 152.792969 116.9375 C 152.636719 117.113281 152.507812 117.289062 152.382812 117.433594 C 152.128906 117.722656 152.238281 117.796875 151.921875 117.859375 C 151.65625 117.914062 151.730469 117.792969 151.472656 117.597656 C 151.34375 117.5 151.222656 117.34375 151.066406 117.21875 C 150.929688 117.109375 150.773438 117.003906 150.632812 116.878906 C 150.492188 116.761719 150.363281 116.621094 150.234375 116.5 C 150.097656 116.367188 149.933594 116.257812 149.796875 116.109375 C 149.671875 115.976562 149.550781 115.820312 149.425781 115.644531 C 149.554688 115.5 149.707031 115.363281 149.835938 115.21875 C 149.96875 115.070312 150.082031 114.910156 150.214844 114.761719 C 150.347656 114.613281 150.492188 114.480469 150.621094 114.332031 C 150.75 114.183594 150.886719 114.042969 151.015625 113.898438 C 151.144531 113.75 151.246094 113.578125 151.371094 113.429688 C 151.496094 113.277344 151.640625 113.148438 151.757812 112.996094 C 151.902344 112.835938 151.980469 112.65625 152.078125 112.523438 C 152.21875 112.339844 152.363281 112.210938 152.414062 112.070312 C 152.492188 111.867188 152.476562 111.671875 152.367188 111.507812 C 152.285156 111.378906 152.105469 111.296875 151.917969 111.160156 C 151.785156 111.0625 151.652344 110.917969 151.46875 110.804688 C 151.324219 110.714844 151.144531 110.609375 150.964844 110.503906 C 150.816406 110.65625 150.695312 110.859375 150.546875 111.015625 C 150.398438 111.171875 150.21875 111.300781 150.070312 111.460938 C 149.921875 111.617188 149.757812 111.757812 149.605469 111.914062 C 149.453125 112.066406 149.351562 112.269531 149.195312 112.421875 C 149.042969 112.574219 148.839844 112.671875 148.683594 112.820312 C 148.550781 112.945312 148.472656 113.125 148.351562 113.253906 C 148.21875 113.394531 148.085938 113.523438 147.980469 113.644531 C 147.773438 113.882812 147.890625 114.070312 147.625 114.078125 C 147.324219 114.089844 147.417969 113.886719 147.152344 113.671875 C 147.007812 113.554688 146.828125 113.441406 146.667969 113.304688 C 146.503906 113.167969 146.371094 113 146.238281 112.882812 C 146.109375 112.765625 145.996094 112.632812 145.863281 112.488281 C 145.753906 112.363281 145.605469 112.257812 145.472656 112.101562 C 145.367188 111.976562 145.28125 111.820312 145.144531 111.671875 C 145.289062 111.507812 145.398438 111.335938 145.539062 111.179688 Z M 155.410156 103.136719 C 155.351562 102.949219 155.328125 102.753906 155.332031 102.554688 C 155.335938 102.363281 155.40625 102.183594 155.472656 101.992188 C 155.535156 101.8125 155.570312 101.613281 155.691406 101.445312 C 155.796875 101.289062 155.945312 101.15625 156.101562 101.019531 C 156.269531 100.871094 156.4375 100.71875 156.636719 100.632812 C 156.839844 100.546875 157.058594 100.492188 157.277344 100.449219 C 157.492188 100.410156 157.71875 100.375 157.933594 100.363281 C 158.160156 100.347656 158.382812 100.339844 158.597656 100.335938 C 158.832031 100.332031 159.054688 100.328125 159.25 100.3125 C 159.515625 100.289062 159.679688 100.246094 159.804688 100.175781 C 159.972656 100.078125 160.085938 99.96875 160.132812 99.730469 C 160.164062 99.574219 160.136719 99.375 160.171875 99.132812 C 160.195312 98.964844 160.175781 98.691406 160.117188 98.433594 C 160.054688 98.152344 159.96875 97.859375 159.761719 97.839844 C 159.367188 97.808594 159.207031 97.8125 159.007812 97.808594 C 158.839844 97.808594 158.640625 97.808594 158.246094 97.832031 C 158.019531 97.84375 157.804688 97.90625 157.59375 97.933594 C 157.371094 97.964844 157.160156 98.011719 156.953125 98.066406 C 156.738281 98.121094 156.527344 98.164062 156.320312 98.246094 C 156.121094 98.324219 155.90625 98.382812 155.707031 98.492188 C 155.523438 98.59375 155.363281 98.757812 155.171875 98.890625 C 155.003906 99.003906 154.847656 99.132812 154.691406 99.265625 C 154.535156 99.398438 154.371094 99.519531 154.230469 99.667969 C 154.085938 99.816406 153.960938 99.972656 153.839844 100.136719 C 153.714844 100.300781 153.625 100.480469 153.523438 100.660156 C 153.421875 100.835938 153.316406 101.011719 153.242188 101.199219 C 153.167969 101.390625 153.121094 101.585938 153.074219 101.785156 C 153.03125 101.984375 152.941406 102.179688 152.929688 102.386719 C 152.914062 102.585938 152.96875 102.792969 152.988281 103 C 153.003906 103.199219 153 103.40625 153.050781 103.609375 C 153.09375 103.804688 153.164062 103.996094 153.242188 104.195312 C 153.3125 104.382812 153.386719 104.574219 153.484375 104.761719 C 153.578125 104.9375 153.699219 105.105469 153.816406 105.28125 C 153.9375 105.457031 154.0625 105.632812 154.207031 105.78125 C 154.355469 105.933594 154.511719 106.078125 154.683594 106.199219 C 154.855469 106.320312 155.054688 106.402344 155.246094 106.492188 C 155.4375 106.578125 155.632812 106.65625 155.839844 106.707031 C 156.042969 106.757812 156.253906 106.761719 156.46875 106.773438 C 156.675781 106.789062 156.882812 106.777344 157.097656 106.753906 C 157.300781 106.730469 157.503906 106.691406 157.714844 106.632812 C 157.910156 106.582031 158.105469 106.53125 158.296875 106.480469 C 158.492188 106.429688 158.6875 106.378906 158.882812 106.328125 C 159.074219 106.277344 159.269531 106.214844 159.464844 106.167969 C 159.660156 106.117188 159.851562 106.0625 160.046875 106.011719 C 160.242188 105.964844 160.445312 105.945312 160.640625 105.898438 C 160.835938 105.851562 161.042969 105.855469 161.238281 105.8125 C 161.4375 105.769531 161.628906 105.691406 161.824219 105.671875 C 162.03125 105.652344 162.234375 105.65625 162.421875 105.699219 C 162.617188 105.742188 162.792969 105.824219 162.949219 105.96875 C 163.078125 106.089844 163.1875 106.25 163.28125 106.464844 C 163.355469 106.640625 163.398438 106.851562 163.386719 107.085938 C 163.375 107.285156 163.300781 107.488281 163.230469 107.699219 C 163.167969 107.894531 163.070312 108.078125 162.960938 108.265625 C 162.851562 108.445312 162.738281 108.625 162.589844 108.769531 C 162.4375 108.921875 162.261719 109.03125 162.074219 109.117188 C 161.882812 109.214844 161.6875 109.304688 161.464844 109.367188 C 161.257812 109.425781 161.039062 109.464844 160.820312 109.496094 C 160.597656 109.527344 160.378906 109.574219 160.164062 109.582031 C 159.933594 109.589844 159.710938 109.558594 159.507812 109.542969 C 159.257812 109.523438 159.027344 109.527344 158.847656 109.476562 C 158.59375 109.402344 158.410156 109.351562 158.269531 109.402344 C 158.097656 109.464844 158.035156 109.648438 157.960938 109.875 C 157.910156 110.03125 157.859375 110.21875 157.820312 110.441406 C 157.773438 110.691406 157.714844 110.90625 157.699219 111.09375 C 157.675781 111.351562 157.683594 111.574219 157.859375 111.714844 C 157.988281 111.8125 158.203125 111.871094 158.5 111.910156 C 158.632812 111.941406 158.839844 112 159.113281 112.035156 C 159.292969 112.058594 159.503906 112.089844 159.738281 112.09375 C 159.929688 112.097656 160.140625 112.070312 160.363281 112.054688 C 160.5625 112.039062 160.773438 112.015625 160.988281 111.972656 C 161.1875 111.9375 161.375 111.835938 161.585938 111.773438 C 161.777344 111.714844 162 111.710938 162.199219 111.628906 C 162.386719 111.550781 162.550781 111.40625 162.742188 111.304688 C 162.917969 111.207031 163.132812 111.152344 163.3125 111.03125 C 163.480469 110.917969 163.632812 110.78125 163.789062 110.660156 C 163.949219 110.535156 164.089844 110.394531 164.234375 110.261719 C 164.382812 110.125 164.511719 109.972656 164.640625 109.828125 C 164.777344 109.675781 164.90625 109.523438 165.019531 109.367188 C 165.140625 109.203125 165.257812 109.042969 165.355469 108.875 C 165.457031 108.699219 165.5625 108.527344 165.636719 108.347656 C 165.714844 108.164062 165.730469 107.957031 165.777344 107.769531 C 165.828125 107.574219 165.910156 107.386719 165.925781 107.191406 C 165.945312 106.992188 165.917969 106.789062 165.902344 106.589844 C 165.882812 106.394531 165.875 106.191406 165.824219 105.996094 C 165.773438 105.808594 165.710938 105.613281 165.625 105.429688 C 165.542969 105.253906 165.425781 105.085938 165.3125 104.917969 C 165.199219 104.753906 165.089844 104.589844 164.964844 104.441406 C 164.835938 104.289062 164.679688 104.164062 164.539062 104.03125 C 164.394531 103.898438 164.230469 103.792969 164.074219 103.679688 C 163.914062 103.570312 163.761719 103.445312 163.582031 103.359375 C 163.410156 103.277344 163.21875 103.226562 163.027344 103.171875 C 162.84375 103.117188 162.652344 103.101562 162.453125 103.078125 C 162.265625 103.050781 162.074219 103 161.871094 103 C 161.683594 103.003906 161.488281 103.011719 161.285156 103.039062 C 161.097656 103.0625 160.910156 103.121094 160.710938 103.164062 C 160.539062 103.230469 160.363281 103.285156 160.1875 103.34375 C 160.011719 103.402344 159.828125 103.417969 159.648438 103.472656 C 159.472656 103.523438 159.296875 103.574219 159.121094 103.621094 C 158.941406 103.667969 158.769531 103.746094 158.589844 103.785156 C 158.402344 103.828125 158.207031 103.90625 158 103.953125 C 157.804688 104 157.59375 104.011719 157.390625 104.042969 C 157.183594 104.078125 156.976562 104.109375 156.78125 104.109375 C 156.5625 104.113281 156.355469 104.074219 156.175781 104.011719 C 155.980469 103.945312 155.777344 103.855469 155.648438 103.683594 C 155.527344 103.523438 155.46875 103.320312 155.410156 103.136719 Z M 170.160156 94.429688 C 170.371094 94.355469 170.566406 94.285156 170.75 94.21875 C 170.957031 94.140625 171.148438 94.074219 171.335938 94.003906 C 171.539062 93.929688 171.730469 93.859375 171.925781 93.789062 C 172.183594 93.695312 172.351562 93.574219 172.460938 93.4375 C 172.59375 93.273438 172.660156 93.074219 172.625 92.828125 C 172.601562 92.644531 172.546875 92.429688 172.457031 92.191406 C 172.378906 91.972656 172.273438 91.804688 172.183594 91.675781 C 172.054688 91.496094 171.894531 91.382812 171.703125 91.367188 C 171.546875 91.351562 171.355469 91.410156 171.128906 91.488281 C 170.933594 91.554688 170.742188 91.617188 170.546875 91.683594 C 170.355469 91.753906 170.171875 91.847656 169.976562 91.914062 C 169.785156 91.980469 169.582031 92.023438 169.390625 92.089844 C 169.199219 92.160156 169.019531 92.265625 168.828125 92.332031 C 168.632812 92.402344 168.425781 92.429688 168.234375 92.496094 C 168.039062 92.566406 167.867188 92.6875 167.675781 92.753906 C 167.480469 92.824219 167.285156 92.882812 167.09375 92.949219 C 166.898438 93.019531 166.703125 93.078125 166.511719 93.144531 C 166.320312 93.214844 166.113281 93.246094 165.921875 93.3125 C 165.726562 93.382812 165.542969 93.46875 165.347656 93.535156 C 165.15625 93.605469 164.960938 93.664062 164.765625 93.730469 C 164.574219 93.800781 164.378906 93.859375 164.1875 93.925781 C 164 93.992188 163.757812 94.09375 163.679688 94.238281 C 163.582031 94.410156 163.546875 94.601562 163.554688 94.777344 C 163.5625 94.976562 163.667969 95.152344 163.730469 95.296875 C 163.816406 95.496094 163.8125 95.730469 163.898438 95.910156 C 163.988281 96.097656 164.148438 96.214844 164.375 96.296875 C 164.539062 96.359375 164.746094 96.382812 164.957031 96.320312 C 165.148438 96.261719 165.335938 96.167969 165.519531 96.125 C 165.734375 96.054688 165.9375 95.980469 166.128906 95.921875 C 166.359375 95.855469 166.5625 95.785156 166.742188 95.738281 C 167.121094 95.640625 167.089844 95.425781 167.363281 95.589844 C 167.648438 95.761719 167.460938 95.855469 167.605469 96.214844 C 167.679688 96.40625 167.742188 96.628906 167.828125 96.851562 C 167.90625 97.0625 168.035156 97.261719 168.105469 97.460938 C 168.171875 97.648438 168.191406 97.855469 168.257812 98.050781 C 168.324219 98.238281 168.417969 98.421875 168.488281 98.613281 C 168.558594 98.804688 168.601562 99.007812 168.667969 99.199219 C 168.738281 99.390625 168.800781 99.585938 168.875 99.78125 C 168.941406 99.972656 169.027344 100.160156 169.097656 100.351562 C 169.167969 100.542969 169.226562 100.738281 169.300781 100.929688 C 169.371094 101.121094 169.464844 101.304688 169.535156 101.496094 C 169.605469 101.6875 169.695312 101.871094 169.765625 102.0625 C 169.835938 102.253906 169.882812 102.453125 169.953125 102.644531 C 170.023438 102.835938 170.113281 103.015625 170.183594 103.207031 C 170.257812 103.398438 170.351562 103.578125 170.421875 103.765625 C 170.496094 103.957031 170.527344 104.164062 170.601562 104.351562 C 170.671875 104.542969 170.738281 104.730469 170.8125 104.917969 C 170.886719 105.109375 170.980469 105.289062 171.050781 105.472656 C 171.160156 105.757812 171.253906 105.953125 171.359375 106.082031 C 171.539062 106.296875 171.730469 106.347656 171.976562 106.273438 C 172.152344 106.21875 172.363281 106.113281 172.621094 106.007812 C 172.875 105.910156 173.050781 105.789062 173.191406 105.703125 C 173.441406 105.550781 173.5 105.414062 173.492188 105.203125 C 173.488281 105.039062 173.457031 104.839844 173.351562 104.574219 C 173.277344 104.382812 173.191406 104.1875 173.109375 103.980469 C 173.035156 103.78125 172.972656 103.578125 172.894531 103.371094 C 172.820312 103.171875 172.710938 102.980469 172.632812 102.777344 C 172.558594 102.578125 172.507812 102.363281 172.433594 102.164062 C 172.355469 101.960938 172.253906 101.769531 172.179688 101.566406 C 172.105469 101.367188 172.105469 101.136719 172.03125 100.941406 C 171.953125 100.734375 171.878906 100.53125 171.804688 100.335938 C 171.726562 100.128906 171.625 99.9375 171.554688 99.746094 C 171.480469 99.558594 171.433594 99.363281 171.359375 99.171875 C 171.289062 98.984375 171.160156 98.816406 171.089844 98.628906 C 171.015625 98.441406 170.933594 98.253906 170.863281 98.066406 C 170.789062 97.875 170.703125 97.695312 170.628906 97.5 C 170.554688 97.3125 170.492188 97.121094 170.417969 96.929688 C 170.34375 96.742188 170.269531 96.550781 170.195312 96.359375 C 170.121094 96.171875 170.101562 95.964844 170.027344 95.773438 C 169.957031 95.585938 169.859375 95.40625 169.785156 95.214844 C 169.710938 95.027344 169.675781 94.855469 169.601562 94.664062 C 169.8125 94.585938 169.972656 94.496094 170.160156 94.429688 Z M 187.492188 97.613281 C 187.71875 97.609375 187.933594 97.578125 188.144531 97.574219 C 188.371094 97.570312 188.585938 97.570312 188.796875 97.566406 C 189.019531 97.558594 189.238281 97.515625 189.449219 97.507812 C 189.671875 97.5 189.886719 97.488281 190.101562 97.480469 C 190.320312 97.46875 190.539062 97.484375 190.753906 97.46875 C 190.960938 97.457031 191.171875 97.464844 191.367188 97.421875 C 191.570312 97.375 191.75 97.257812 191.9375 97.179688 C 192.128906 97.101562 192.300781 97.003906 192.472656 96.898438 C 192.648438 96.789062 192.824219 96.6875 192.976562 96.550781 C 193.128906 96.417969 193.265625 96.269531 193.394531 96.109375 C 193.523438 95.953125 193.621094 95.773438 193.726562 95.597656 C 193.828125 95.421875 193.933594 95.25 194.007812 95.058594 C 194.082031 94.871094 194.132812 94.671875 194.179688 94.472656 C 194.222656 94.273438 194.3125 94.082031 194.332031 93.875 C 194.347656 93.671875 194.304688 93.472656 194.304688 93.28125 C 194.304688 93.078125 194.332031 92.882812 194.3125 92.691406 C 194.292969 92.492188 194.253906 92.300781 194.210938 92.113281 C 194.164062 91.917969 194.121094 91.726562 194.050781 91.546875 C 193.976562 91.363281 193.878906 91.191406 193.777344 91.027344 C 193.675781 90.859375 193.570312 90.691406 193.441406 90.542969 C 193.308594 90.398438 193.167969 90.257812 193.011719 90.136719 C 192.859375 90.019531 192.679688 89.9375 192.5 89.84375 C 192.332031 89.753906 192.152344 89.667969 191.960938 89.605469 C 191.78125 89.542969 191.585938 89.515625 191.382812 89.476562 C 191.183594 89.4375 190.980469 89.40625 190.777344 89.371094 C 190.574219 89.339844 190.371094 89.3125 190.167969 89.285156 C 189.964844 89.257812 189.761719 89.234375 189.558594 89.214844 C 189.355469 89.191406 189.148438 89.175781 188.945312 89.160156 C 188.742188 89.144531 188.535156 89.140625 188.332031 89.132812 C 188.125 89.125 187.921875 89.128906 187.714844 89.125 C 187.511719 89.125 187.304688 89.097656 187.101562 89.101562 C 186.894531 89.105469 186.6875 89.0625 186.484375 89.070312 C 186.265625 89.082031 186.074219 89.117188 185.90625 89.113281 C 185.675781 89.109375 185.484375 89.09375 185.332031 89.089844 C 185.0625 89.085938 184.898438 89.109375 184.800781 89.253906 C 184.730469 89.359375 184.691406 89.535156 184.671875 89.816406 C 184.660156 89.972656 184.667969 90.167969 184.660156 90.398438 C 184.652344 90.601562 184.613281 90.808594 184.609375 91.015625 C 184.605469 91.21875 184.585938 91.421875 184.582031 91.628906 C 184.574219 91.835938 184.589844 92.042969 184.585938 92.25 C 184.582031 92.457031 184.566406 92.667969 184.558594 92.875 C 184.554688 93.082031 184.570312 93.289062 184.5625 93.496094 C 184.558594 93.703125 184.546875 93.910156 184.542969 94.117188 C 184.539062 94.324219 184.5625 94.53125 184.558594 94.742188 C 184.554688 94.949219 184.519531 95.15625 184.515625 95.363281 C 184.511719 95.570312 184.550781 95.777344 184.546875 95.984375 C 184.542969 96.191406 184.492188 96.398438 184.488281 96.601562 C 184.488281 96.808594 184.539062 97.019531 184.535156 97.222656 C 184.535156 97.429688 184.519531 97.636719 184.515625 97.84375 C 184.515625 98.046875 184.5 98.253906 184.496094 98.457031 C 184.492188 98.664062 184.449219 98.871094 184.445312 99.074219 C 184.441406 99.28125 184.457031 99.488281 184.457031 99.691406 C 184.453125 99.898438 184.4375 100.101562 184.433594 100.304688 C 184.429688 100.511719 184.417969 100.714844 184.414062 100.917969 C 184.410156 101.128906 184.429688 101.335938 184.425781 101.539062 C 184.421875 101.765625 184.402344 101.785156 184.398438 102.03125 C 184.394531 102.144531 184.449219 102.296875 184.453125 102.539062 C 184.457031 102.753906 184.472656 102.929688 184.589844 103.039062 C 184.71875 103.15625 184.917969 103.175781 185.089844 103.214844 C 185.289062 103.257812 185.480469 103.328125 185.609375 103.335938 C 185.773438 103.34375 186.058594 103.328125 186.304688 103.289062 C 186.59375 103.242188 186.851562 103.121094 186.839844 102.921875 C 186.824219 102.703125 186.804688 102.503906 186.804688 102.3125 C 186.804688 102.09375 186.816406 101.894531 186.824219 101.703125 C 186.832031 101.492188 186.851562 101.296875 186.855469 101.101562 C 186.855469 100.90625 186.878906 100.714844 186.878906 100.515625 C 186.882812 100.328125 186.832031 100.132812 186.828125 99.933594 C 186.828125 99.746094 186.878906 99.550781 186.875 99.351562 C 186.875 99.160156 186.84375 98.96875 186.84375 98.765625 C 186.839844 98.578125 186.867188 98.382812 186.863281 98.179688 C 186.863281 97.992188 186.855469 97.820312 186.855469 97.621094 C 187.082031 97.613281 187.277344 97.621094 187.492188 97.613281 Z M 186.949219 94.554688 C 186.949219 94.34375 186.894531 94.132812 186.898438 93.921875 C 186.902344 93.710938 186.914062 93.5 186.917969 93.289062 C 186.921875 93.078125 186.9375 92.867188 186.941406 92.65625 C 186.945312 92.445312 186.984375 92.234375 186.988281 92.023438 C 186.988281 91.8125 186.96875 91.605469 186.964844 91.394531 C 187.191406 91.414062 187.40625 91.441406 187.621094 91.445312 C 187.84375 91.453125 188.0625 91.464844 188.277344 91.464844 C 188.503906 91.46875 188.71875 91.445312 188.9375 91.449219 C 189.160156 91.453125 189.375 91.46875 189.59375 91.484375 C 189.8125 91.503906 190.039062 91.480469 190.257812 91.523438 C 190.5 91.574219 190.699219 91.703125 190.894531 91.78125 C 191.121094 91.875 191.34375 91.941406 191.5 92.082031 C 191.675781 92.238281 191.75 92.453125 191.828125 92.667969 C 191.902344 92.863281 191.945312 93.074219 191.929688 93.324219 C 191.921875 93.511719 191.898438 93.695312 191.839844 93.875 C 191.78125 94.050781 191.707031 94.226562 191.597656 94.378906 C 191.488281 94.527344 191.351562 94.660156 191.191406 94.769531 C 191.042969 94.871094 190.871094 94.941406 190.679688 95 C 190.511719 95.046875 190.324219 95.058594 190.121094 95.066406 C 189.914062 95.078125 189.703125 95.136719 189.488281 95.148438 C 189.277344 95.160156 189.0625 95.121094 188.847656 95.132812 C 188.636719 95.144531 188.425781 95.179688 188.207031 95.1875 C 188 95.191406 187.785156 95.167969 187.570312 95.171875 C 187.359375 95.171875 187.167969 95.171875 186.949219 95.167969 C 186.945312 94.953125 186.949219 94.765625 186.949219 94.554688 Z M 200.417969 99.503906 C 200.65625 99.539062 200.878906 99.496094 201.0625 99.53125 C 201.308594 99.578125 201.5 99.667969 201.671875 99.726562 C 201.910156 99.808594 202.074219 99.917969 202.203125 100.058594 C 202.332031 100.199219 202.4375 100.367188 202.503906 100.609375 C 202.550781 100.789062 202.570312 100.996094 202.605469 101.246094 C 202.632812 101.433594 202.636719 101.648438 202.667969 101.886719 C 202.691406 102.085938 202.75 102.292969 202.777344 102.511719 C 202.804688 102.71875 202.796875 102.933594 202.824219 103.148438 C 202.851562 103.359375 202.871094 103.574219 202.898438 103.785156 C 202.925781 103.996094 203.015625 104.203125 203.042969 104.40625 C 203.070312 104.625 203.109375 104.835938 203.136719 105.035156 C 203.164062 105.28125 203.148438 105.488281 203.191406 105.652344 C 203.261719 105.917969 203.386719 106.054688 203.5 106.171875 C 203.636719 106.3125 203.792969 106.367188 204.027344 106.429688 C 204.195312 106.476562 204.390625 106.539062 204.625 106.613281 C 204.851562 106.683594 205.027344 106.761719 205.167969 106.777344 C 205.414062 106.8125 205.546875 106.742188 205.59375 106.519531 C 205.621094 106.386719 205.660156 106.195312 205.640625 105.945312 C 205.628906 105.785156 205.554688 105.601562 205.53125 105.378906 C 205.511719 105.195312 205.511719 104.988281 205.488281 104.773438 C 205.464844 104.578125 205.398438 104.378906 205.375 104.167969 C 205.355469 103.972656 205.335938 103.765625 205.3125 103.558594 C 205.289062 103.359375 205.257812 103.15625 205.234375 102.953125 C 205.210938 102.75 205.183594 102.546875 205.15625 102.34375 C 205.132812 102.140625 205.113281 101.9375 205.089844 101.742188 C 205.0625 101.535156 205.03125 101.332031 205.007812 101.136719 C 204.980469 100.925781 205.019531 100.714844 204.996094 100.523438 C 204.976562 100.363281 205.039062 100.1875 205.1875 100.121094 C 205.429688 100.011719 205.652344 99.90625 205.863281 99.8125 C 206.101562 99.703125 206.351562 99.664062 206.5625 99.542969 C 206.738281 99.4375 206.890625 99.300781 207.039062 99.179688 C 207.199219 99.054688 207.347656 98.921875 207.480469 98.78125 C 207.617188 98.632812 207.710938 98.453125 207.820312 98.292969 C 207.933594 98.125 208.027344 97.953125 208.113281 97.777344 C 208.199219 97.597656 208.292969 97.425781 208.355469 97.238281 C 208.414062 97.046875 208.5 96.863281 208.53125 96.667969 C 208.5625 96.472656 208.523438 96.265625 208.53125 96.070312 C 208.535156 95.871094 208.515625 95.675781 208.492188 95.480469 C 208.46875 95.285156 208.449219 95.089844 208.398438 94.898438 C 208.34375 94.707031 208.273438 94.523438 208.1875 94.34375 C 208.105469 94.164062 207.992188 94.003906 207.882812 93.839844 C 207.773438 93.675781 207.667969 93.511719 207.527344 93.367188 C 207.394531 93.226562 207.242188 93.105469 207.082031 92.984375 C 206.925781 92.867188 206.789062 92.714844 206.609375 92.617188 C 206.421875 92.519531 206.207031 92.472656 206.011719 92.382812 C 205.820312 92.292969 205.640625 92.175781 205.445312 92.09375 C 205.246094 92.015625 205.046875 91.945312 204.847656 91.871094 C 204.648438 91.796875 204.453125 91.710938 204.25 91.644531 C 204.050781 91.574219 203.84375 91.519531 203.640625 91.453125 C 203.4375 91.390625 203.238281 91.3125 203.035156 91.25 C 202.832031 91.1875 202.632812 91.117188 202.429688 91.054688 C 202.226562 90.992188 202.015625 90.953125 201.8125 90.890625 C 201.570312 90.816406 201.363281 90.738281 201.179688 90.683594 C 200.914062 90.605469 200.703125 90.585938 200.523438 90.601562 C 200.3125 90.621094 200.167969 90.722656 200.019531 90.960938 C 199.929688 91.113281 199.847656 91.308594 199.761719 91.574219 C 199.699219 91.761719 199.636719 91.949219 199.574219 92.140625 C 199.515625 92.328125 199.449219 92.519531 199.386719 92.710938 C 199.328125 92.898438 199.273438 93.09375 199.210938 93.285156 C 199.148438 93.476562 199.09375 93.671875 199.03125 93.867188 C 198.96875 94.054688 198.882812 94.238281 198.824219 94.433594 C 198.761719 94.625 198.652344 94.800781 198.589844 94.996094 C 198.53125 95.1875 198.507812 95.390625 198.445312 95.582031 C 198.382812 95.773438 198.320312 95.964844 198.261719 96.160156 C 198.199219 96.351562 198.136719 96.542969 198.078125 96.734375 C 198.019531 96.925781 197.957031 97.117188 197.898438 97.308594 C 197.835938 97.503906 197.792969 97.699219 197.734375 97.890625 C 197.671875 98.082031 197.582031 98.261719 197.523438 98.453125 C 197.464844 98.644531 197.394531 98.832031 197.332031 99.023438 C 197.273438 99.214844 197.234375 99.410156 197.175781 99.601562 C 197.117188 99.792969 197.046875 99.980469 196.988281 100.167969 C 196.929688 100.363281 196.890625 100.558594 196.832031 100.746094 C 196.773438 100.9375 196.707031 101.128906 196.648438 101.316406 C 196.589844 101.511719 196.558594 101.714844 196.5 101.902344 C 196.445312 102.074219 196.335938 102.265625 196.253906 102.476562 C 196.175781 102.671875 196.136719 102.886719 196.078125 103.082031 C 196.015625 103.304688 195.941406 103.515625 195.96875 103.695312 C 195.996094 103.859375 196.238281 103.976562 196.46875 104.089844 C 196.695312 104.199219 196.933594 104.28125 197.070312 104.296875 C 197.253906 104.316406 197.453125 104.386719 197.636719 104.417969 C 197.847656 104.449219 198.058594 104.472656 198.183594 104.316406 C 198.300781 104.171875 198.386719 103.941406 198.472656 103.691406 C 198.546875 103.480469 198.625 103.253906 198.683594 103.035156 C 198.753906 102.785156 198.824219 102.554688 198.882812 102.378906 C 198.949219 102.179688 198.992188 101.96875 199.058594 101.769531 C 199.121094 101.566406 199.1875 101.367188 199.25 101.167969 C 199.3125 100.96875 199.324219 100.753906 199.386719 100.554688 C 199.445312 100.355469 199.574219 100.175781 199.636719 99.976562 C 199.699219 99.777344 199.71875 99.546875 199.78125 99.347656 C 200.011719 99.382812 200.230469 99.472656 200.417969 99.503906 Z M 200.828125 96.367188 C 200.894531 96.160156 200.957031 95.960938 201.015625 95.765625 C 201.078125 95.566406 201.144531 95.367188 201.203125 95.171875 C 201.265625 94.972656 201.3125 94.769531 201.375 94.570312 C 201.4375 94.371094 201.53125 94.179688 201.59375 93.976562 C 201.65625 93.78125 201.710938 93.609375 201.773438 93.402344 C 201.976562 93.460938 202.152344 93.503906 202.34375 93.5625 C 202.546875 93.621094 202.742188 93.6875 202.9375 93.742188 C 203.136719 93.800781 203.335938 93.839844 203.53125 93.898438 C 203.730469 93.957031 203.921875 94.027344 204.117188 94.089844 C 204.3125 94.15625 204.515625 94.199219 204.703125 94.273438 C 204.890625 94.34375 205.046875 94.453125 205.199219 94.550781 C 205.367188 94.65625 205.542969 94.742188 205.667969 94.871094 C 205.808594 95.011719 205.886719 95.191406 205.972656 95.347656 C 206.0625 95.519531 206.175781 95.683594 206.199219 95.867188 C 206.226562 96.054688 206.207031 96.257812 206.15625 96.441406 C 206.105469 96.644531 205.992188 96.839844 205.851562 97.015625 C 205.722656 97.179688 205.535156 97.300781 205.351562 97.425781 C 205.179688 97.546875 204.996094 97.660156 204.792969 97.738281 C 204.589844 97.8125 204.375 97.847656 204.160156 97.867188 C 203.945312 97.886719 203.738281 97.867188 203.523438 97.816406 C 203.328125 97.773438 203.132812 97.746094 202.9375 97.691406 C 202.746094 97.636719 202.558594 97.574219 202.363281 97.511719 C 202.175781 97.453125 201.96875 97.441406 201.773438 97.378906 C 201.585938 97.316406 201.417969 97.1875 201.222656 97.121094 C 201.035156 97.058594 200.8125 97.039062 200.613281 96.976562 C 200.679688 96.769531 200.769531 96.5625 200.828125 96.367188 Z M 213.359375 102.683594 C 213.457031 102.507812 213.554688 102.328125 213.65625 102.148438 C 213.753906 101.96875 213.855469 101.789062 213.957031 101.605469 C 214.058594 101.429688 214.199219 101.273438 214.300781 101.09375 C 214.402344 100.914062 214.523438 100.75 214.625 100.570312 C 214.722656 100.390625 214.796875 100.195312 214.894531 100.015625 C 214.996094 99.835938 215.0625 99.640625 215.15625 99.464844 C 215.257812 99.285156 215.390625 99.121094 215.488281 98.949219 C 215.589844 98.765625 215.664062 98.570312 215.761719 98.398438 C 215.875 98.191406 216.027344 98.046875 216.097656 97.890625 C 216.199219 97.652344 216.253906 97.453125 216.261719 97.300781 C 216.273438 97.070312 216.132812 96.9375 215.96875 96.796875 C 215.84375 96.6875 215.6875 96.566406 215.480469 96.445312 C 215.277344 96.324219 215.097656 96.253906 214.945312 96.199219 C 214.742188 96.125 214.566406 96.0625 214.375 96.199219 C 214.253906 96.289062 214.113281 96.433594 213.964844 96.648438 C 213.867188 96.789062 213.773438 96.964844 213.65625 97.167969 C 213.558594 97.335938 213.496094 97.527344 213.398438 97.703125 C 213.300781 97.875 213.203125 98.046875 213.101562 98.222656 C 213.003906 98.394531 212.898438 98.566406 212.800781 98.742188 C 212.703125 98.914062 212.570312 99.070312 212.46875 99.246094 C 212.371094 99.417969 212.300781 99.613281 212.199219 99.789062 C 212.101562 99.960938 212.015625 100.140625 211.917969 100.316406 C 211.820312 100.492188 211.664062 100.632812 211.566406 100.808594 C 211.464844 100.980469 211.4375 101.195312 211.335938 101.371094 C 211.238281 101.542969 211.125 101.710938 211.023438 101.882812 C 210.925781 102.058594 210.789062 102.210938 210.691406 102.382812 C 210.59375 102.558594 210.542969 102.761719 210.445312 102.933594 C 210.34375 103.105469 210.183594 103.242188 210.082031 103.414062 C 209.984375 103.589844 209.898438 103.765625 209.796875 103.941406 C 209.699219 104.113281 209.644531 104.3125 209.546875 104.484375 C 209.449219 104.660156 209.320312 104.8125 209.222656 104.984375 C 209.125 105.160156 209.066406 105.355469 208.96875 105.527344 C 208.871094 105.699219 208.75 105.859375 208.652344 106.03125 C 208.554688 106.203125 208.417969 106.351562 208.320312 106.523438 C 208.226562 106.691406 208.140625 106.867188 208.003906 107.066406 C 207.90625 107.21875 207.785156 107.386719 207.664062 107.605469 C 207.523438 107.847656 207.542969 108.089844 207.652344 108.269531 C 207.792969 108.496094 208.078125 108.609375 208.203125 108.660156 C 208.390625 108.765625 208.585938 108.859375 208.773438 108.949219 C 208.984375 109.050781 209.179688 109.144531 209.359375 109.175781 C 209.605469 109.21875 209.769531 109.183594 209.863281 108.972656 C 209.9375 108.804688 210.050781 108.664062 210.132812 108.515625 C 210.21875 108.355469 210.277344 108.1875 210.359375 108.042969 C 210.453125 107.886719 210.585938 107.761719 210.667969 107.617188 C 210.769531 107.433594 210.863281 107.246094 210.964844 107.066406 C 211.066406 106.882812 211.179688 106.707031 211.28125 106.523438 C 211.382812 106.34375 211.46875 106.152344 211.570312 105.96875 C 211.671875 105.789062 211.78125 105.609375 211.882812 105.425781 C 211.984375 105.242188 212.070312 105.054688 212.171875 104.871094 C 212.273438 104.691406 212.390625 104.515625 212.492188 104.332031 C 212.59375 104.152344 212.683594 103.960938 212.785156 103.777344 C 212.886719 103.597656 213.027344 103.4375 213.128906 103.253906 C 213.226562 103.082031 213.257812 102.867188 213.359375 102.683594 Z M 217.128906 115.082031 C 217.324219 115.199219 217.53125 115.320312 217.738281 115.417969 C 217.949219 115.515625 218.1875 115.550781 218.40625 115.621094 C 218.628906 115.695312 218.839844 115.804688 219.066406 115.84375 C 219.292969 115.886719 219.527344 115.914062 219.761719 115.914062 C 220.019531 115.917969 220.246094 115.84375 220.453125 115.804688 C 220.710938 115.757812 220.933594 115.714844 221.105469 115.585938 C 221.28125 115.449219 221.4375 115.269531 221.519531 115.023438 C 221.582031 114.832031 221.554688 114.59375 221.5625 114.320312 C 221.570312 114.023438 221.550781 113.792969 221.414062 113.65625 C 221.261719 113.5 221.007812 113.484375 220.753906 113.441406 C 220.535156 113.40625 220.300781 113.386719 220.0625 113.375 C 219.816406 113.367188 219.570312 113.371094 219.363281 113.328125 C 219.171875 113.289062 218.988281 113.199219 218.800781 113.117188 C 218.621094 113.039062 218.433594 112.960938 218.269531 112.847656 C 218.105469 112.734375 217.976562 112.574219 217.835938 112.433594 C 217.691406 112.292969 217.566406 112.140625 217.453125 111.980469 C 217.339844 111.8125 217.199219 111.664062 217.121094 111.484375 C 217.035156 111.28125 217.011719 111.066406 216.972656 110.859375 C 216.933594 110.648438 216.882812 110.4375 216.890625 110.222656 C 216.894531 110.011719 216.902344 109.792969 216.945312 109.578125 C 216.988281 109.371094 217.046875 109.160156 217.117188 108.957031 C 217.1875 108.757812 217.269531 108.554688 217.359375 108.359375 C 217.453125 108.167969 217.597656 108 217.707031 107.816406 C 217.816406 107.628906 217.957031 107.464844 218.078125 107.292969 C 218.203125 107.113281 218.304688 106.921875 218.433594 106.757812 C 218.574219 106.585938 218.683594 106.398438 218.820312 106.246094 C 218.96875 106.085938 219.152344 105.953125 219.308594 105.800781 C 219.46875 105.648438 219.617188 105.480469 219.789062 105.347656 C 219.964844 105.210938 220.183594 105.148438 220.371094 105.039062 C 220.5625 104.925781 220.75 104.832031 220.953125 104.753906 C 221.160156 104.679688 221.355469 104.5625 221.570312 104.535156 C 221.785156 104.507812 222.011719 104.527344 222.230469 104.558594 C 222.441406 104.585938 222.664062 104.613281 222.878906 104.699219 C 223.070312 104.777344 223.230469 104.945312 223.421875 105.074219 C 223.59375 105.1875 223.730469 105.316406 223.863281 105.453125 C 224 105.597656 224.125 105.742188 224.226562 105.90625 C 224.332031 106.070312 224.457031 106.226562 224.535156 106.40625 C 224.609375 106.585938 224.671875 106.773438 224.726562 106.964844 C 224.777344 107.152344 224.816406 107.347656 224.851562 107.542969 C 224.90625 107.828125 224.925781 108.070312 225.007812 108.257812 C 225.113281 108.503906 225.292969 108.648438 225.535156 108.734375 C 225.714844 108.796875 225.945312 108.800781 226.25 108.78125 C 226.511719 108.769531 226.738281 108.832031 226.914062 108.773438 C 227.09375 108.714844 227.183594 108.53125 227.304688 108.261719 C 227.382812 108.082031 227.4375 107.886719 227.453125 107.679688 C 227.46875 107.464844 227.503906 107.253906 227.492188 107.0625 C 227.472656 106.832031 227.386719 106.621094 227.34375 106.402344 C 227.300781 106.179688 227.316406 105.945312 227.242188 105.734375 C 227.171875 105.519531 227.074219 105.3125 226.96875 105.113281 C 226.871094 104.914062 226.710938 104.746094 226.582031 104.558594 C 226.460938 104.386719 226.363281 104.199219 226.226562 104.039062 C 226.089844 103.878906 225.910156 103.761719 225.757812 103.617188 C 225.605469 103.472656 225.464844 103.316406 225.300781 103.1875 C 225.132812 103.058594 224.988281 102.894531 224.8125 102.785156 C 224.632812 102.671875 224.429688 102.597656 224.242188 102.507812 C 224.054688 102.414062 223.863281 102.324219 223.664062 102.253906 C 223.46875 102.179688 223.273438 102.089844 223.070312 102.042969 C 222.863281 101.996094 222.644531 102.023438 222.4375 102 C 222.226562 101.976562 222.023438 101.976562 221.8125 101.980469 C 221.601562 101.984375 221.394531 101.984375 221.1875 102.019531 C 220.972656 102.050781 220.761719 102.105469 220.550781 102.171875 C 220.34375 102.234375 220.125 102.277344 219.921875 102.367188 C 219.722656 102.457031 219.542969 102.585938 219.347656 102.695312 C 219.160156 102.800781 218.945312 102.875 218.761719 102.996094 C 218.578125 103.117188 218.40625 103.257812 218.230469 103.390625 C 218.058594 103.527344 217.878906 103.65625 217.710938 103.800781 C 217.542969 103.945312 217.394531 104.105469 217.238281 104.257812 C 217.074219 104.414062 216.917969 104.5625 216.769531 104.722656 C 216.613281 104.886719 216.480469 105.0625 216.34375 105.222656 C 216.207031 105.382812 216.0625 105.539062 215.941406 105.710938 C 215.816406 105.882812 215.710938 106.066406 215.597656 106.246094 C 215.488281 106.421875 215.339844 106.582031 215.238281 106.769531 C 215.140625 106.957031 215.089844 107.167969 215.003906 107.359375 C 214.917969 107.554688 214.835938 107.746094 214.765625 107.945312 C 214.691406 108.144531 214.59375 108.332031 214.53125 108.535156 C 214.472656 108.738281 214.460938 108.953125 214.417969 109.160156 C 214.375 109.367188 214.296875 109.566406 214.265625 109.773438 C 214.238281 109.984375 214.207031 110.195312 214.191406 110.40625 C 214.179688 110.621094 214.234375 110.832031 214.253906 111.039062 C 214.277344 111.253906 214.261719 111.472656 214.316406 111.675781 C 214.367188 111.878906 214.445312 112.082031 214.527344 112.277344 C 214.609375 112.46875 214.742188 112.640625 214.851562 112.824219 C 214.960938 113.003906 215.085938 113.171875 215.214844 113.34375 C 215.34375 113.507812 215.460938 113.691406 215.605469 113.84375 C 215.75 113.996094 215.890625 114.160156 216.050781 114.296875 C 216.210938 114.4375 216.410156 114.527344 216.582031 114.652344 C 216.765625 114.789062 216.929688 114.960938 217.128906 115.082031 Z M 232.316406 114.886719 C 232.4375 115.0625 232.574219 115.226562 232.695312 115.398438 C 232.816406 115.574219 232.886719 115.78125 233.003906 115.953125 C 233.121094 116.125 233.261719 116.285156 233.378906 116.457031 C 233.496094 116.628906 233.59375 116.820312 233.710938 116.992188 C 233.832031 117.167969 233.960938 117.332031 234.078125 117.507812 C 234.199219 117.679688 234.359375 117.824219 234.476562 117.996094 C 234.59375 118.171875 234.710938 118.347656 234.828125 118.519531 C 234.980469 118.742188 235.082031 118.9375 235.214844 119.070312 C 235.390625 119.242188 235.558594 119.300781 235.808594 119.265625 C 235.980469 119.242188 236.183594 119.1875 236.4375 119.042969 C 236.628906 118.914062 236.820312 118.8125 236.980469 118.707031 C 237.175781 118.578125 237.328125 118.445312 237.363281 118.234375 C 237.390625 118.078125 237.390625 117.867188 237.269531 117.605469 C 237.191406 117.445312 237.035156 117.289062 236.890625 117.074219 C 236.78125 116.910156 236.675781 116.75 236.5625 116.589844 C 236.449219 116.429688 236.378906 116.238281 236.261719 116.082031 C 236.148438 115.921875 236.003906 115.785156 235.882812 115.628906 C 235.765625 115.472656 235.625 115.335938 235.503906 115.179688 C 235.386719 115.023438 235.296875 114.84375 235.179688 114.6875 C 235.050781 114.515625 234.894531 114.367188 234.773438 114.1875 C 234.65625 114.011719 234.53125 113.835938 234.417969 113.652344 C 234.304688 113.472656 234.230469 113.265625 234.121094 113.078125 C 234.011719 112.894531 233.898438 112.714844 233.785156 112.527344 C 233.671875 112.347656 233.546875 112.171875 233.429688 111.988281 C 233.3125 111.808594 233.234375 111.605469 233.109375 111.421875 C 232.988281 111.25 232.828125 111.121094 232.695312 110.945312 C 232.53125 111.054688 232.371094 111.140625 232.203125 111.25 C 232.039062 111.359375 231.851562 111.433594 231.683594 111.542969 C 231.519531 111.652344 231.375 111.800781 231.210938 111.910156 C 231.042969 112.019531 230.867188 112.109375 230.699219 112.21875 C 230.53125 112.332031 230.367188 112.441406 230.199219 112.550781 C 230.035156 112.660156 229.882812 112.792969 229.71875 112.902344 C 229.550781 113.011719 229.390625 113.132812 229.226562 113.242188 C 229.0625 113.355469 228.859375 113.410156 228.695312 113.519531 C 228.527344 113.628906 228.398438 113.792969 228.234375 113.902344 C 228.066406 114.015625 227.886719 114.101562 227.722656 114.210938 C 227.558594 114.320312 227.417969 114.46875 227.253906 114.578125 C 227.089844 114.6875 226.878906 114.730469 226.714844 114.839844 C 226.550781 114.949219 226.414062 115.101562 226.25 115.210938 C 226.085938 115.320312 225.898438 115.398438 225.734375 115.511719 C 225.570312 115.621094 225.417969 115.746094 225.253906 115.859375 C 225.089844 115.96875 224.921875 116.074219 224.757812 116.183594 C 224.59375 116.292969 224.4375 116.414062 224.273438 116.523438 C 224.109375 116.632812 223.929688 116.71875 223.769531 116.832031 C 223.605469 116.941406 223.480469 117.113281 223.316406 117.222656 C 223.152344 117.332031 222.960938 117.402344 222.796875 117.511719 C 222.632812 117.621094 222.492188 117.765625 222.332031 117.878906 C 222.167969 117.988281 221.980469 118.066406 221.820312 118.175781 C 221.675781 118.273438 221.570312 118.550781 221.515625 118.828125 C 221.464844 119.101562 221.484375 119.378906 221.574219 119.53125 C 221.675781 119.695312 221.777344 119.863281 221.878906 120.03125 C 221.980469 120.199219 222.09375 120.355469 222.199219 120.523438 C 222.300781 120.6875 222.351562 120.890625 222.453125 121.054688 C 222.558594 121.222656 222.730469 121.34375 222.835938 121.507812 C 222.941406 121.675781 223.042969 121.839844 223.148438 122.003906 C 223.253906 122.171875 223.308594 122.367188 223.414062 122.53125 C 223.519531 122.695312 223.679688 122.828125 223.785156 122.988281 C 223.894531 123.152344 223.984375 123.328125 224.09375 123.488281 C 224.203125 123.652344 224.296875 123.824219 224.40625 123.984375 C 224.519531 124.144531 224.640625 124.300781 224.753906 124.460938 C 224.863281 124.621094 225.007812 124.757812 225.121094 124.917969 C 225.234375 125.078125 225.300781 125.269531 225.417969 125.425781 C 225.546875 125.605469 225.703125 125.710938 225.851562 125.761719 C 226.027344 125.824219 226.199219 125.761719 226.371094 125.679688 C 226.523438 125.609375 226.65625 125.496094 226.78125 125.339844 C 226.886719 125.203125 227.019531 125.070312 227.09375 124.894531 C 227.171875 124.699219 227.242188 124.511719 227.28125 124.332031 C 227.316406 124.144531 227.300781 123.960938 227.1875 123.761719 C 227.074219 123.570312 226.933594 123.394531 226.8125 123.210938 C 226.691406 123.023438 226.59375 122.824219 226.464844 122.644531 C 226.339844 122.460938 226.242188 122.257812 226.113281 122.078125 C 225.980469 121.894531 225.824219 121.738281 225.695312 121.554688 C 225.566406 121.375 225.417969 121.207031 225.292969 121.023438 C 225.175781 120.839844 225.054688 120.65625 224.9375 120.480469 C 224.804688 120.289062 224.664062 120.117188 224.554688 119.960938 C 224.339844 119.644531 224.242188 119.730469 224.257812 119.410156 C 224.269531 119.136719 224.371094 119.242188 224.625 119.039062 C 224.753906 118.9375 224.929688 118.859375 225.089844 118.738281 C 225.234375 118.632812 225.375 118.511719 225.527344 118.402344 C 225.679688 118.296875 225.84375 118.207031 225.996094 118.113281 C 226.160156 118.011719 226.304688 117.882812 226.484375 117.785156 C 226.640625 117.699219 226.824219 117.621094 227.023438 117.539062 C 227.132812 117.703125 227.226562 117.882812 227.335938 118.046875 C 227.445312 118.210938 227.574219 118.359375 227.683594 118.523438 C 227.792969 118.6875 227.890625 118.863281 228 119.023438 C 228.109375 119.1875 228.210938 119.355469 228.320312 119.515625 C 228.433594 119.675781 228.574219 119.820312 228.6875 119.976562 C 228.800781 120.136719 228.894531 120.308594 229.011719 120.460938 C 229.132812 120.640625 229.285156 120.757812 229.386719 120.886719 C 229.53125 121.070312 229.621094 121.242188 229.746094 121.328125 C 229.925781 121.449219 230.113281 121.484375 230.300781 121.417969 C 230.445312 121.371094 230.570312 121.21875 230.75 121.070312 C 230.878906 120.964844 231.050781 120.875 231.203125 120.722656 C 231.328125 120.605469 231.476562 120.457031 231.621094 120.308594 C 231.511719 120.128906 231.34375 119.960938 231.230469 119.777344 C 231.117188 119.59375 231.035156 119.390625 230.917969 119.207031 C 230.804688 119.023438 230.710938 118.828125 230.597656 118.644531 C 230.484375 118.457031 230.3125 118.308594 230.203125 118.121094 C 230.09375 117.933594 230.050781 117.710938 229.945312 117.523438 C 229.855469 117.367188 229.703125 117.242188 229.609375 117.09375 C 229.503906 116.929688 229.414062 116.773438 229.320312 116.640625 C 229.140625 116.378906 228.933594 116.449219 228.988281 116.1875 C 229.054688 115.890625 229.226562 116.03125 229.5 115.828125 C 229.652344 115.71875 229.804688 115.574219 229.976562 115.453125 C 230.148438 115.328125 230.34375 115.242188 230.492188 115.140625 C 230.636719 115.042969 230.792969 114.964844 230.96875 114.878906 C 231.113281 114.800781 231.253906 114.683594 231.441406 114.59375 C 231.585938 114.519531 231.757812 114.476562 231.9375 114.382812 C 232.058594 114.5625 232.199219 114.710938 232.316406 114.886719 Z M 232.316406 114.886719 " fill-opacity="1" fill-rule="nonzero"/></svg>