<svg xmlns="http://www.w3.org/2000/svg" xmlns:xlink="http://www.w3.org/1999/xlink" width="500" zoomAndPan="magnify" viewBox="0 0 375 374.999991" height="500" preserveAspectRatio="xMidYMid meet" version="1.0"><defs><clipPath id="5943e58e2e"><path d="M 77 79 L 326 79 L 326 327.890625 L 77 327.890625 Z M 77 79 " clip-rule="nonzero"/></clipPath><clipPath id="b7ede05100"><path d="M 168 47.390625 L 228 47.390625 L 228 68 L 168 68 Z M 168 47.390625 " clip-rule="nonzero"/></clipPath></defs><path stroke-linecap="round" transform="matrix(1.385849, 0, 0, 1.385849, -107.617092, -107.132571)" fill="none" stroke-linejoin="round" d="M 298.922555 188.171323 L 312.108287 178.669591 " stroke="#17142b" stroke-width="3" stroke-opacity="1" stroke-miterlimit="10"/><path stroke-linecap="round" transform="matrix(1.385849, 0, 0, 1.385849, -107.617092, -107.132571)" fill-opacity="1" fill="#e04867" fill-rule="nonzero" stroke-linejoin="round" d="M 307.480033 168.071397 C 305.574613 169.444088 305.143357 172.102093 306.516048 174.004694 L 314.763473 185.451307 C 316.136164 187.356727 318.794169 187.787984 320.699589 186.415292 C 322.605009 185.0426 323.033446 182.384596 321.660755 180.479176 L 313.41333 169.035381 C 312.040639 167.129961 309.382634 166.695886 307.480033 168.071397 Z M 307.480033 168.071397 " stroke="#17142b" stroke-width="3" stroke-opacity="1" stroke-miterlimit="10"/><path stroke-linecap="round" transform="matrix(1.385849, 0, 0, 1.385849, -107.617092, -107.132571)" fill="none" stroke-linejoin="round" d="M 313.686741 177.150328 L 318.317814 183.562799 " stroke="#ffffff" stroke-width="3" stroke-opacity="1" stroke-miterlimit="10"/><path stroke-linecap="round" transform="matrix(1.385849, 0, 0, 1.385849, -107.617092, -107.132571)" fill="none" stroke-linejoin="round" d="M 279.386363 165.092064 L 290.094485 152.86468 " stroke="#17142b" stroke-width="3" stroke-opacity="1" stroke-miterlimit="10"/><path stroke-linecap="round" transform="matrix(1.385849, 0, 0, 1.385849, -107.617092, -107.132571)" fill-opacity="1" fill="#e04867" fill-rule="nonzero" stroke-linejoin="round" d="M 283.197203 143.579985 C 281.649754 145.34729 281.82733 148.033482 283.591817 149.578112 L 294.206923 158.874081 C 295.974228 160.42153 298.660419 160.243954 300.207868 158.476649 C 301.755317 156.712162 301.574922 154.025971 299.807617 152.478522 L 289.19533 143.185372 C 287.428025 141.637923 284.741833 141.81268 283.197203 143.579985 Z M 283.197203 143.579985 " stroke="#17142b" stroke-width="3" stroke-opacity="1" stroke-miterlimit="10"/><path stroke-linecap="round" transform="matrix(1.385849, 0, 0, 1.385849, -107.617092, -107.132571)" fill="none" stroke-linejoin="round" d="M 220.822886 137.015306 L 220.822886 120.765682 " stroke="#17142b" stroke-width="3" stroke-opacity="1" stroke-miterlimit="10"/><path fill="#e04867" d="M 322.957031 203.769531 C 322.957031 205.761719 322.910156 207.753906 322.8125 209.742188 C 322.714844 211.734375 322.566406 213.71875 322.371094 215.703125 C 322.175781 217.683594 321.933594 219.660156 321.640625 221.632812 C 321.347656 223.601562 321.007812 225.566406 320.617188 227.519531 C 320.230469 229.472656 319.792969 231.417969 319.308594 233.351562 C 318.824219 235.28125 318.292969 237.203125 317.714844 239.109375 C 317.136719 241.015625 316.511719 242.90625 315.839844 244.78125 C 315.171875 246.660156 314.453125 248.515625 313.691406 250.359375 C 312.929688 252.199219 312.121094 254.019531 311.269531 255.820312 C 310.417969 257.621094 309.523438 259.402344 308.582031 261.15625 C 307.644531 262.914062 306.660156 264.648438 305.636719 266.355469 C 304.613281 268.066406 303.546875 269.75 302.441406 271.40625 C 301.332031 273.0625 300.1875 274.691406 299 276.289062 C 297.8125 277.890625 296.585938 279.460938 295.324219 281 C 294.058594 282.542969 292.757812 284.050781 291.421875 285.527344 C 290.082031 287.003906 288.710938 288.445312 287.300781 289.855469 C 285.890625 291.261719 284.449219 292.636719 282.972656 293.972656 C 281.496094 295.3125 279.988281 296.613281 278.449219 297.878906 C 276.90625 299.140625 275.335938 300.367188 273.738281 301.554688 C 272.136719 302.742188 270.507812 303.886719 268.851562 304.996094 C 267.195312 306.101562 265.511719 307.167969 263.804688 308.191406 C 262.09375 309.214844 260.363281 310.195312 258.605469 311.136719 C 256.847656 312.074219 255.066406 312.972656 253.265625 313.824219 C 251.464844 314.675781 249.644531 315.480469 247.804688 316.246094 C 245.964844 317.007812 244.105469 317.722656 242.230469 318.394531 C 240.351562 319.066406 238.460938 319.691406 236.554688 320.269531 C 234.648438 320.847656 232.730469 321.378906 230.796875 321.863281 C 228.863281 322.347656 226.921875 322.785156 224.964844 323.171875 C 223.011719 323.5625 221.050781 323.902344 219.078125 324.195312 C 217.109375 324.484375 215.132812 324.730469 213.148438 324.925781 C 211.164062 325.121094 209.179688 325.265625 207.1875 325.363281 C 205.199219 325.460938 203.207031 325.511719 201.214844 325.511719 C 199.222656 325.511719 197.230469 325.460938 195.242188 325.363281 C 193.25 325.265625 191.265625 325.121094 189.28125 324.925781 C 187.300781 324.730469 185.324219 324.484375 183.351562 324.195312 C 181.382812 323.902344 179.417969 323.5625 177.464844 323.171875 C 175.511719 322.785156 173.566406 322.347656 171.632812 321.863281 C 169.703125 321.378906 167.78125 320.847656 165.875 320.269531 C 163.96875 319.691406 162.078125 319.066406 160.203125 318.394531 C 158.324219 317.722656 156.46875 317.007812 154.625 316.246094 C 152.785156 315.480469 150.964844 314.675781 149.164062 313.824219 C 147.363281 312.972656 145.582031 312.074219 143.824219 311.136719 C 142.070312 310.195312 140.335938 309.214844 138.628906 308.191406 C 136.917969 307.167969 135.234375 306.101562 133.578125 304.996094 C 131.921875 303.886719 130.292969 302.742188 128.691406 301.554688 C 127.09375 300.367188 125.523438 299.140625 123.984375 297.878906 C 122.441406 296.613281 120.933594 295.3125 119.457031 293.972656 C 117.980469 292.636719 116.539062 291.261719 115.128906 289.855469 C 113.722656 288.445312 112.347656 287.003906 111.011719 285.527344 C 109.671875 284.050781 108.371094 282.542969 107.105469 281 C 105.84375 279.460938 104.617188 277.890625 103.429688 276.289062 C 102.242188 274.691406 101.097656 273.0625 99.988281 271.40625 C 98.882812 269.75 97.816406 268.066406 96.792969 266.355469 C 95.769531 264.648438 94.785156 262.914062 93.847656 261.15625 C 92.910156 259.402344 92.011719 257.621094 91.160156 255.820312 C 90.308594 254.019531 89.503906 252.199219 88.738281 250.359375 C 87.976562 248.515625 87.261719 246.660156 86.589844 244.78125 C 85.917969 242.90625 85.292969 241.015625 84.714844 239.109375 C 84.136719 237.203125 83.605469 235.28125 83.121094 233.351562 C 82.636719 231.417969 82.199219 229.472656 81.8125 227.519531 C 81.421875 225.566406 81.082031 223.601562 80.789062 221.632812 C 80.496094 219.660156 80.253906 217.683594 80.058594 215.703125 C 79.863281 213.71875 79.71875 211.734375 79.621094 209.742188 C 79.519531 207.753906 79.472656 205.761719 79.472656 203.769531 C 79.472656 201.777344 79.519531 199.785156 79.621094 197.796875 C 79.71875 195.804688 79.863281 193.820312 80.058594 191.835938 C 80.253906 189.851562 80.496094 187.875 80.789062 185.90625 C 81.082031 183.933594 81.421875 181.972656 81.8125 180.019531 C 82.199219 178.0625 82.636719 176.121094 83.121094 174.1875 C 83.605469 172.253906 84.136719 170.335938 84.714844 168.429688 C 85.292969 166.523438 85.917969 164.632812 86.589844 162.753906 C 87.261719 160.878906 87.976562 159.019531 88.738281 157.179688 C 89.503906 155.339844 90.308594 153.519531 91.160156 151.71875 C 92.011719 149.914062 92.910156 148.136719 93.847656 146.378906 C 94.785156 144.621094 95.769531 142.890625 96.792969 141.179688 C 97.816406 139.472656 98.882812 137.789062 99.988281 136.132812 C 101.097656 134.476562 102.242188 132.847656 103.429688 131.246094 C 104.617188 129.644531 105.84375 128.078125 107.105469 126.535156 C 108.371094 124.996094 109.671875 123.488281 111.011719 122.011719 C 112.347656 120.535156 113.722656 119.09375 115.128906 117.683594 C 116.539062 116.273438 117.980469 114.902344 119.457031 113.5625 C 120.933594 112.226562 122.441406 110.925781 123.984375 109.660156 C 125.523438 108.398438 127.09375 107.171875 128.691406 105.984375 C 130.292969 104.796875 131.921875 103.652344 133.578125 102.542969 C 135.234375 101.4375 136.917969 100.371094 138.628906 99.347656 C 140.335938 98.324219 142.070312 97.339844 143.824219 96.402344 C 145.582031 95.460938 147.363281 94.566406 149.164062 93.714844 C 150.964844 92.863281 152.785156 92.054688 154.625 91.292969 C 156.46875 90.53125 158.324219 89.8125 160.203125 89.144531 C 162.078125 88.472656 163.96875 87.847656 165.875 87.269531 C 167.78125 86.691406 169.703125 86.160156 171.632812 85.675781 C 173.566406 85.191406 175.511719 84.753906 177.464844 84.367188 C 179.417969 83.976562 181.382812 83.636719 183.351562 83.34375 C 185.324219 83.050781 187.300781 82.808594 189.28125 82.613281 C 191.265625 82.417969 193.25 82.269531 195.242188 82.171875 C 197.230469 82.074219 199.222656 82.027344 201.214844 82.027344 C 203.207031 82.027344 205.199219 82.074219 207.1875 82.171875 C 209.179688 82.269531 211.164062 82.417969 213.148438 82.613281 C 215.132812 82.808594 217.109375 83.050781 219.078125 83.34375 C 221.050781 83.636719 223.011719 83.976562 224.964844 84.367188 C 226.921875 84.753906 228.863281 85.191406 230.796875 85.675781 C 232.730469 86.160156 234.648438 86.691406 236.554688 87.269531 C 238.460938 87.847656 240.351562 88.472656 242.230469 89.144531 C 244.105469 89.8125 245.964844 90.53125 247.804688 91.292969 C 249.644531 92.054688 251.464844 92.863281 253.265625 93.714844 C 255.066406 94.566406 256.847656 95.460938 258.605469 96.402344 C 260.363281 97.339844 262.09375 98.324219 263.804688 99.347656 C 265.511719 100.371094 267.195312 101.4375 268.851562 102.542969 C 270.507812 103.652344 272.136719 104.796875 273.738281 105.984375 C 275.335938 107.171875 276.90625 108.398438 278.449219 109.660156 C 279.988281 110.925781 281.496094 112.226562 282.972656 113.5625 C 284.449219 114.902344 285.890625 116.273438 287.300781 117.683594 C 288.710938 119.09375 290.082031 120.535156 291.421875 122.011719 C 292.757812 123.488281 294.058594 124.996094 295.324219 126.535156 C 296.585938 128.078125 297.8125 129.648438 299 131.246094 C 300.1875 132.847656 301.332031 134.476562 302.441406 136.132812 C 303.546875 137.789062 304.613281 139.472656 305.636719 141.179688 C 306.660156 142.890625 307.644531 144.621094 308.582031 146.378906 C 309.523438 148.136719 310.417969 149.917969 311.269531 151.71875 C 312.121094 153.519531 312.929688 155.339844 313.691406 157.179688 C 314.453125 159.019531 315.171875 160.878906 315.839844 162.753906 C 316.511719 164.632812 317.136719 166.523438 317.714844 168.429688 C 318.292969 170.335938 318.824219 172.253906 319.308594 174.1875 C 319.792969 176.121094 320.230469 178.0625 320.617188 180.019531 C 321.007812 181.972656 321.347656 183.933594 321.640625 185.90625 C 321.933594 187.875 322.175781 189.851562 322.371094 191.835938 C 322.566406 193.820312 322.714844 195.804688 322.8125 197.796875 C 322.910156 199.785156 322.957031 201.777344 322.957031 203.769531 Z M 322.957031 203.769531 " fill-opacity="1" fill-rule="nonzero"/><g clip-path="url(#5943e58e2e)"><path stroke-linecap="round" transform="matrix(1.385849, 0, 0, 1.385849, -107.617092, -107.132571)" fill="none" stroke-linejoin="round" d="M 310.693315 224.340478 C 310.693315 225.777999 310.659491 227.21552 310.589024 228.650222 C 310.518558 230.087743 310.411448 231.519627 310.270515 232.951511 C 310.129582 234.380576 309.954824 235.806822 309.743424 237.23025 C 309.532024 238.650858 309.2868 240.068649 309.004933 241.477983 C 308.725885 242.887317 308.410194 244.291014 308.060679 245.686255 C 307.711164 247.078678 307.327825 248.465463 306.910662 249.840973 C 306.493499 251.216483 306.042512 252.580719 305.557701 253.93368 C 305.075709 255.289459 304.557074 256.628327 304.007433 257.958738 C 303.457793 259.286331 302.874329 260.599831 302.259859 261.899237 C 301.645389 263.198643 300.999914 264.483956 300.320615 265.749538 C 299.644134 267.017939 298.93383 268.269428 298.195339 269.501186 C 297.456847 270.735763 296.687351 271.950609 295.889668 273.145725 C 295.089166 274.34084 294.263296 275.516225 293.406421 276.669061 C 292.549545 277.824715 291.664484 278.957819 290.754054 280.068375 C 289.840805 281.181749 288.902188 282.269755 287.938204 283.335212 C 286.9714 284.400669 285.982048 285.440757 284.964508 286.458297 C 283.946969 287.473017 282.90688 288.465189 281.841423 289.429173 C 280.775967 290.395977 279.687961 291.334593 278.577405 292.247842 C 277.464031 293.158272 276.330926 294.043334 275.178091 294.900209 C 274.022437 295.757084 272.847052 296.582954 271.651936 297.383456 C 270.456821 298.181139 269.241975 298.950636 268.010217 299.689127 C 266.77564 300.427618 265.52697 301.135104 264.258569 301.814403 C 262.990168 302.490884 261.704855 303.139177 260.405449 303.753647 C 259.106043 304.368117 257.792543 304.948763 256.46495 305.501222 C 255.137357 306.050862 253.795671 306.566678 252.44271 307.051489 C 251.08693 307.5363 249.722695 307.987287 248.347184 308.40445 C 246.971674 308.821613 245.587708 309.204952 244.192467 309.554467 C 242.797226 309.903982 241.396348 310.219673 239.984195 310.498721 C 238.57486 310.780588 237.159889 311.025812 235.736461 311.237212 C 234.315852 311.445794 232.889606 311.62337 231.457722 311.764303 C 230.025839 311.905237 228.593955 312.009527 227.156434 312.079994 C 225.721732 312.150461 224.284211 312.187104 222.84669 312.187104 C 221.409169 312.187104 219.971648 312.150461 218.536945 312.079994 C 217.099424 312.009527 215.667541 311.905237 214.235657 311.764303 C 212.806592 311.62337 211.380346 311.445794 209.956918 311.237212 C 208.536309 311.025812 207.118519 310.780588 205.709185 310.498721 C 204.29985 310.219673 202.896153 309.903982 201.500912 309.554467 C 200.10849 309.204952 198.721705 308.821613 197.346195 308.40445 C 195.970685 307.987287 194.606449 307.5363 193.253488 307.051489 C 191.897708 306.566678 190.558841 306.050862 189.228429 305.501222 C 187.900836 304.948763 186.587337 304.368117 185.287931 303.753647 C 183.988524 303.139177 182.703211 302.490884 181.434811 301.814403 C 180.169228 301.135104 178.917739 300.427618 177.685981 299.689127 C 176.451404 298.950636 175.236558 298.181139 174.041443 297.383456 C 172.846327 296.582954 171.670943 295.757084 170.515288 294.900209 C 169.362453 294.043334 168.229348 293.158272 167.118793 292.247842 C 166.005419 291.334593 164.917413 290.395977 163.851956 289.429173 C 162.786499 288.465189 161.74641 287.473017 160.728871 286.458297 C 159.71415 285.440757 158.721979 284.400669 157.757994 283.335212 C 156.791191 282.269755 155.852574 281.181749 154.939326 280.068375 C 154.028896 278.957819 153.143834 277.824715 152.286959 276.669061 C 151.430083 275.516225 150.604213 274.34084 149.803712 273.145725 C 149.006028 271.950609 148.236532 270.735763 147.498041 269.501186 C 146.759549 268.269428 146.049245 267.017939 145.372764 265.749538 C 144.696284 264.483956 144.04799 263.198643 143.43352 261.899237 C 142.819051 260.599831 142.238405 259.286331 141.685946 257.958738 C 141.136306 256.628327 140.620489 255.289459 140.135678 253.93368 C 139.650867 252.580719 139.19988 251.216483 138.782717 249.840973 C 138.365554 248.465463 137.982215 247.078678 137.6327 245.686255 C 137.283186 244.291014 136.967495 242.887317 136.688447 241.477983 C 136.40658 240.068649 136.161355 238.650858 135.949955 237.23025 C 135.738555 235.806822 135.563798 234.380576 135.422864 232.951511 C 135.281931 231.519627 135.17764 230.087743 135.107173 228.650222 C 135.033888 227.21552 135.000064 225.777999 135.000064 224.340478 C 135.000064 222.902957 135.033888 221.465436 135.107173 220.030734 C 135.17764 218.593213 135.281931 217.161329 135.422864 215.729445 C 135.563798 214.297562 135.738555 212.871315 135.949955 211.450707 C 136.161355 210.027279 136.40658 208.612307 136.688447 207.202973 C 136.967495 205.79082 137.283186 204.389942 137.6327 202.994701 C 137.982215 201.59946 138.365554 200.215493 138.782717 198.839983 C 139.19988 197.464473 139.650867 196.100237 140.135678 194.744458 C 140.620489 193.391497 141.136306 192.049811 141.685946 190.722218 C 142.238405 189.394625 142.819051 188.081125 143.43352 186.781719 C 144.04799 185.479494 144.696284 184.197 145.372764 182.928599 C 146.049245 181.660198 146.759549 180.411528 147.498041 179.176951 C 148.236532 177.945193 149.006028 176.730347 149.803712 175.535231 C 150.604213 174.340116 151.430083 173.164731 152.286959 172.009077 C 153.143834 170.853423 154.028896 169.723137 154.939326 168.609762 C 155.852574 167.499207 156.791191 166.411201 157.757994 165.345744 C 158.721979 164.280287 159.71415 163.240199 160.728871 162.222659 C 161.74641 161.20512 162.786499 160.215767 163.851956 159.248964 C 164.917413 158.284979 166.005419 157.346363 167.118793 156.433114 C 168.229348 155.522684 169.362453 154.637622 170.515288 153.780747 C 171.670943 152.923872 172.846327 152.098002 174.041443 151.2975 C 175.236558 150.499817 176.451404 149.73032 177.685981 148.991829 C 178.917739 148.253338 180.169228 147.543033 181.434811 146.866553 C 182.703211 146.187254 183.988524 145.541779 185.287931 144.927309 C 186.587337 144.312839 187.900836 143.729375 189.228429 143.179734 C 190.558841 142.630094 191.897708 142.111459 193.253488 141.629467 C 194.606449 141.144656 195.970685 140.693669 197.346195 140.276506 C 198.721705 139.859343 200.10849 139.476004 201.500912 139.126489 C 202.896153 138.776974 204.29985 138.461283 205.709185 138.182235 C 207.118519 137.900368 208.536309 137.655144 209.956918 137.443744 C 211.380346 137.232344 212.806592 137.057586 214.235657 136.916653 C 215.667541 136.775719 217.099424 136.66861 218.536945 136.598143 C 219.971648 136.527676 221.409169 136.493852 222.84669 136.493852 C 224.284211 136.493852 225.721732 136.527676 227.156434 136.598143 C 228.593955 136.66861 230.025839 136.775719 231.457722 136.916653 C 232.889606 137.057586 234.315852 137.232344 235.736461 137.443744 C 237.159889 137.655144 238.57486 137.900368 239.984195 138.182235 C 241.396348 138.461283 242.797226 138.776974 244.192467 139.126489 C 245.587708 139.476004 246.971674 139.859343 248.347184 140.276506 C 249.722695 140.693669 251.08693 141.144656 252.44271 141.629467 C 253.795671 142.111459 255.137357 142.630094 256.46495 143.179734 C 257.792543 143.729375 259.106043 144.312839 260.405449 144.927309 C 261.704855 145.541779 262.990168 146.187254 264.258569 146.866553 C 265.52697 147.543033 266.77564 148.253338 268.010217 148.991829 C 269.241975 149.73032 270.456821 150.499817 271.651936 151.2975 C 272.847052 152.098002 274.022437 152.923872 275.178091 153.780747 C 276.330926 154.637622 277.464031 155.522684 278.577405 156.433114 C 279.687961 157.346363 280.775967 158.284979 281.841423 159.248964 C 282.90688 160.215767 283.946969 161.20512 284.964508 162.222659 C 285.982048 163.240199 286.9714 164.280287 287.938204 165.345744 C 288.902188 166.411201 289.840805 167.499207 290.754054 168.609762 C 291.664484 169.723137 292.549545 170.856241 293.406421 172.009077 C 294.263296 173.164731 295.089166 174.340116 295.889668 175.535231 C 296.687351 176.730347 297.456847 177.945193 298.195339 179.176951 C 298.93383 180.411528 299.644134 181.660198 300.320615 182.928599 C 300.999914 184.197 301.645389 185.482313 302.259859 186.781719 C 302.874329 188.081125 303.457793 189.394625 304.007433 190.722218 C 304.557074 192.049811 305.075709 193.391497 305.557701 194.744458 C 306.042512 196.100237 306.493499 197.464473 306.910662 198.839983 C 307.327825 200.215493 307.711164 201.59946 308.060679 202.994701 C 308.410194 204.389942 308.725885 205.79082 309.004933 207.202973 C 309.2868 208.612307 309.532024 210.027279 309.743424 211.450707 C 309.954824 212.871315 310.129582 214.297562 310.270515 215.729445 C 310.411448 217.161329 310.518558 218.593213 310.589024 220.030734 C 310.659491 221.465436 310.693315 222.902957 310.693315 224.340478 Z M 310.693315 224.340478 " stroke="#17142b" stroke-width="3" stroke-opacity="1" stroke-miterlimit="10"/></g><path stroke-linecap="round" transform="matrix(1.385849, 0, 0, 1.385849, -107.617092, -107.132571)" fill-opacity="1" fill="#ffffff" fill-rule="nonzero" stroke-linejoin="round" d="M 294.356312 224.343297 C 294.356312 225.513044 294.325307 226.682792 294.268933 227.84972 C 294.21256 229.019468 294.125181 230.186397 294.009616 231.350507 C 293.896869 232.514617 293.753117 233.675908 293.581178 234.834381 C 293.409239 235.992854 293.209114 237.145689 292.980802 238.292888 C 292.75249 239.440086 292.495991 240.581646 292.211305 241.71757 C 291.92662 242.853493 291.616566 243.980961 291.275507 245.099972 C 290.937267 246.218984 290.568021 247.329539 290.176226 248.431639 C 289.781613 249.533738 289.358813 250.624563 288.910644 251.706931 C 288.462476 252.7893 287.98894 253.857576 287.490035 254.914576 C 286.988312 255.974396 286.46404 257.017303 285.911581 258.051754 C 285.359122 259.083387 284.784113 260.100927 284.180918 261.104373 C 283.580542 262.107819 282.954798 263.097171 282.303685 264.069612 C 281.652573 265.042053 280.978911 266.0004 280.2827 266.939017 C 279.586489 267.880452 278.864909 268.802157 278.1236 269.706949 C 277.38229 270.611742 276.615612 271.496804 275.832022 272.364954 C 275.045613 273.230285 274.239474 274.078704 273.410786 274.904574 C 272.582097 275.733263 271.736497 276.539402 270.868347 277.32581 C 270.003015 278.112219 269.115135 278.876078 268.210342 279.617388 C 267.305549 280.361516 266.383845 281.080277 265.445228 281.776488 C 264.503793 282.475518 263.548264 283.14918 262.575824 283.797473 C 261.600564 284.448586 260.61403 285.07433 259.610584 285.677525 C 258.604319 286.277902 257.58678 286.855729 256.555147 287.405369 C 255.523515 287.957828 254.477789 288.484919 253.420788 288.983824 C 252.363787 289.485547 251.292693 289.959083 250.213143 290.407251 C 249.130774 290.85542 248.03995 291.275401 246.93785 291.670015 C 245.835751 292.064628 244.725195 292.431055 243.603365 292.772114 C 242.484354 293.110355 241.356886 293.423227 240.220963 293.707912 C 239.087858 293.992598 237.946297 294.246278 236.796281 294.47459 C 235.649082 294.702902 234.496247 294.903028 233.340593 295.074967 C 232.18212 295.246905 231.020829 295.390657 229.856718 295.506223 C 228.692608 295.61897 227.52568 295.706348 226.355932 295.762722 C 225.186185 295.821914 224.016437 295.8501 222.84669 295.8501 C 221.676942 295.8501 220.507195 295.821914 219.337447 295.762722 C 218.170518 295.706348 217.00359 295.61897 215.836661 295.506223 C 214.672551 295.390657 213.511259 295.246905 212.355605 295.074967 C 211.197132 294.903028 210.044297 294.702902 208.897099 294.47459 C 207.749901 294.246278 206.60834 293.992598 205.472416 293.707912 C 204.336493 293.423227 203.209025 293.110355 202.090014 292.772114 C 200.968184 292.431055 199.857629 292.064628 198.755529 291.670015 C 197.65343 291.275401 196.562605 290.85542 195.483055 290.407251 C 194.400686 289.959083 193.332411 289.485547 192.272591 288.983824 C 191.215591 288.484919 190.169865 287.957828 189.138232 287.405369 C 188.106599 286.855729 187.08906 286.277902 186.085614 285.677525 C 185.079349 285.07433 184.092815 284.448586 183.120374 283.797473 C 182.145115 283.14918 181.189586 282.475518 180.25097 281.776488 C 179.309534 281.080277 178.38783 280.361516 177.483037 279.617388 C 176.578245 278.876078 175.693183 278.112219 174.825033 277.32581 C 173.956883 276.539402 173.111282 275.733263 172.282594 274.904574 C 171.456724 274.078704 170.647766 273.230285 169.864176 272.364954 C 169.077767 271.496804 168.313908 270.611742 167.56978 269.706949 C 166.82847 268.802157 166.109709 267.880452 165.41068 266.939017 C 164.714468 266.0004 164.040807 265.042053 163.389694 264.069612 C 162.7414 263.097171 162.112837 262.107819 161.512461 261.104373 C 160.912084 260.100927 160.334257 259.083387 159.781798 258.051754 C 159.232158 257.017303 158.705067 255.974396 158.203344 254.914576 C 157.70444 253.857576 157.230903 252.7893 156.782735 251.706931 C 156.334567 250.624563 155.914585 249.533738 155.519971 248.431639 C 155.125358 247.329539 154.758931 246.218984 154.417872 245.099972 C 154.079632 243.980961 153.76676 242.853493 153.482074 241.71757 C 153.197389 240.581646 152.94089 239.440086 152.712578 238.292888 C 152.484265 237.145689 152.28414 235.992854 152.112201 234.834381 C 151.940262 233.675908 151.799329 232.514617 151.683763 231.350507 C 151.568198 230.186397 151.483638 229.019468 151.424446 227.84972 C 151.368073 226.682792 151.339886 225.513044 151.339886 224.343297 C 151.339886 223.170731 151.368073 222.000983 151.424446 220.834054 C 151.483638 219.664307 151.568198 218.497378 151.683763 217.333268 C 151.799329 216.169158 151.940262 215.007866 152.112201 213.849393 C 152.28414 212.690921 152.484265 211.538085 152.712578 210.390887 C 152.94089 209.243689 153.197389 208.102128 153.482074 206.966205 C 153.76676 205.8331 154.079632 204.702814 154.417872 203.583802 C 154.758931 202.464791 155.125358 201.354236 155.519971 200.252136 C 155.914585 199.150037 156.334567 198.059212 156.782735 196.976843 C 157.230903 195.894474 157.70444 194.826199 158.203344 193.769198 C 158.705067 192.709379 159.232158 191.666472 159.781798 190.63202 C 160.334257 189.600388 160.912084 188.582848 161.512461 187.579402 C 162.112837 186.575956 162.7414 185.586603 163.389694 184.614163 C 164.040807 183.641722 164.714468 182.683375 165.41068 181.744758 C 166.109709 180.806141 166.82847 179.881618 167.56978 178.976826 C 168.313908 178.072033 169.077767 177.186971 169.864176 176.318821 C 170.647766 175.45349 171.456724 174.605071 172.282594 173.779201 C 173.111282 172.950512 173.956883 172.144373 174.825033 171.357964 C 175.693183 170.571556 176.578245 169.807697 177.483037 169.066387 C 178.38783 168.322258 179.309534 167.603498 180.25097 166.907287 C 181.189586 166.208257 182.145115 165.534595 183.120374 164.886301 C 184.092815 164.235189 185.079349 163.609444 186.085614 163.006249 C 187.08906 162.405873 188.106599 161.828046 189.138232 161.278405 C 190.169865 160.725946 191.215591 160.198855 192.272591 159.699951 C 193.332411 159.198228 194.400686 158.724692 195.483055 158.276523 C 196.562605 157.828355 197.65343 157.408373 198.755529 157.01376 C 199.857629 156.619146 200.968184 156.252719 202.090014 155.914479 C 203.209025 155.57342 204.336493 155.260548 205.472416 154.975862 C 206.60834 154.693996 207.749901 154.437497 208.897099 154.209185 C 210.044297 153.980872 211.197132 153.780747 212.355605 153.608808 C 213.511259 153.436869 214.672551 153.293117 215.836661 153.177552 C 217.00359 153.064805 218.170518 152.977426 219.337447 152.921053 C 220.507195 152.861861 221.676942 152.833674 222.84669 152.833674 C 224.016437 152.833674 225.186185 152.861861 226.355932 152.921053 C 227.52568 152.977426 228.692608 153.064805 229.856718 153.177552 C 231.020829 153.293117 232.18212 153.436869 233.340593 153.608808 C 234.496247 153.780747 235.649082 153.980872 236.796281 154.209185 C 237.946297 154.437497 239.087858 154.693996 240.220963 154.975862 C 241.356886 155.260548 242.484354 155.57342 243.603365 155.914479 C 244.725195 156.252719 245.835751 156.619146 246.93785 157.01376 C 248.03995 157.408373 249.130774 157.828355 250.213143 158.276523 C 251.292693 158.724692 252.363787 159.198228 253.420788 159.699951 C 254.477789 160.198855 255.523515 160.725946 256.555147 161.278405 C 257.58678 161.828046 258.604319 162.405873 259.610584 163.006249 C 260.61403 163.609444 261.600564 164.235189 262.575824 164.886301 C 263.548264 165.534595 264.503793 166.208257 265.445228 166.907287 C 266.383845 167.603498 267.305549 168.322258 268.210342 169.066387 C 269.115135 169.807697 270.003015 170.571556 270.868347 171.357964 C 271.736497 172.144373 272.582097 172.950512 273.410786 173.779201 C 274.239474 174.605071 275.045613 175.45349 275.832022 176.318821 C 276.615612 177.186971 277.38229 178.072033 278.1236 178.976826 C 278.864909 179.881618 279.586489 180.803323 280.2827 181.744758 C 280.978911 182.683375 281.652573 183.641722 282.303685 184.614163 C 282.954798 185.586603 283.580542 186.575956 284.180918 187.579402 C 284.784113 188.582848 285.359122 189.600388 285.911581 190.63202 C 286.46404 191.666472 286.988312 192.709379 287.490035 193.769198 C 287.98894 194.826199 288.465295 195.894474 288.910644 196.976843 C 289.358813 198.059212 289.781613 199.150037 290.176226 200.252136 C 290.568021 201.354236 290.937267 202.464791 291.275507 203.583802 C 291.616566 204.702814 291.92662 205.8331 292.211305 206.966205 C 292.495991 208.102128 292.75249 209.243689 292.980802 210.390887 C 293.209114 211.538085 293.409239 212.690921 293.581178 213.849393 C 293.753117 215.007866 293.896869 216.169158 294.009616 217.333268 C 294.125181 218.497378 294.21256 219.664307 294.268933 220.834054 C 294.325307 222.000983 294.356312 223.170731 294.356312 224.343297 Z M 294.356312 224.343297 " stroke="#17142b" stroke-width="3" stroke-opacity="1" stroke-miterlimit="10"/><path stroke-linecap="round" transform="matrix(1.385849, 0, 0, 1.385849, -107.617092, -107.132571)" fill="none" stroke-linejoin="round" d="M 223.410423 144.09862 C 223.410423 144.09862 304.218833 147.196337 302.809499 228.204873 " stroke="#ffffff" stroke-width="3" stroke-opacity="1" stroke-miterlimit="10"/><path stroke-linecap="round" transform="matrix(1.385849, 0, 0, 1.385849, -107.617092, -107.132571)" fill="none" stroke-linejoin="round" d="M 223.410423 304.86984 C 223.410423 304.86984 287.041867 305.997307 302.809499 238.980643 " stroke="#ffffff" stroke-width="3" stroke-opacity="1" stroke-miterlimit="10"/><path stroke-linecap="round" transform="matrix(1.385849, 0, 0, 1.385849, -107.617092, -107.132571)" fill="none" stroke-linejoin="round" d="M 220.822886 157.898822 C 257.519132 157.898822 289.291165 187.64705 289.291165 224.340478 C 289.291165 261.036725 257.519132 290.784953 220.822886 290.784953 " stroke="#17142b" stroke-width="3" stroke-opacity="1" stroke-miterlimit="10"/><path stroke-linecap="round" transform="matrix(1.385849, 0, 0, 1.385849, -107.617092, -107.132571)" fill="none" stroke-linejoin="round" d="M 291.289601 151.029726 L 297.248266 156.232989 " stroke="#ffffff" stroke-width="3" stroke-opacity="1" stroke-miterlimit="10"/><path fill="#e04867" d="M 225.898438 57.253906 C 225.898438 61.546875 222.417969 65.023438 218.128906 65.023438 L 178.695312 65.023438 C 174.40625 65.023438 170.925781 61.542969 170.925781 57.253906 C 170.925781 52.960938 174.40625 49.484375 178.695312 49.484375 L 218.128906 49.484375 C 222.417969 49.484375 225.898438 52.960938 225.898438 57.253906 Z M 225.898438 57.253906 " fill-opacity="1" fill-rule="nonzero"/><g clip-path="url(#b7ede05100)"><path stroke-linecap="round" transform="matrix(1.385849, 0, 0, 1.385849, -107.617092, -107.132571)" fill="none" stroke-linejoin="round" d="M 240.657857 118.617856 C 240.657857 121.715573 238.146423 124.224188 235.051525 124.224188 L 206.597065 124.224188 C 203.502167 124.224188 200.990733 121.712754 200.990733 118.617856 C 200.990733 115.520139 203.502167 113.011524 206.597065 113.011524 L 235.051525 113.011524 C 238.146423 113.011524 240.657857 115.520139 240.657857 118.617856 Z M 240.657857 118.617856 " stroke="#17142b" stroke-width="3" stroke-opacity="1" stroke-miterlimit="10"/></g><path stroke-linecap="round" transform="matrix(1.385849, 0, 0, 1.385849, -107.617092, -107.132571)" fill="none" stroke-linejoin="round" d="M 219.007663 118.617856 L 235.508149 118.617856 " stroke="#ffffff" stroke-width="3" stroke-opacity="1" stroke-miterlimit="10"/><path stroke-linecap="round" transform="matrix(1.385849, 0, 0, 1.385849, -107.617092, -107.132571)" fill="none" stroke-linejoin="round" d="M 220.822886 157.898822 L 220.822886 169.39899 " stroke="#17142b" stroke-width="3" stroke-opacity="1" stroke-miterlimit="10"/><path stroke-linecap="round" transform="matrix(1.385849, 0, 0, 1.385849, -107.617092, -107.132571)" fill="none" stroke-linejoin="round" d="M 220.822886 279.284785 L 220.822886 290.784953 " stroke="#17142b" stroke-width="3" stroke-opacity="1" stroke-miterlimit="10"/><path stroke-linecap="round" transform="matrix(1.385849, 0, 0, 1.385849, -107.617092, -107.132571)" fill-opacity="1" fill="#ffffff" fill-rule="nonzero" stroke-linejoin="round" d="M 147.424755 210.340151 L 107.701259 210.340151 C 104.958694 210.340151 102.734765 208.262792 102.734765 205.697804 C 102.734765 203.138453 104.958694 201.061094 107.701259 201.061094 L 147.424755 201.061094 C 150.16732 201.061094 152.391249 203.138453 152.391249 205.697804 C 152.391249 208.262792 150.16732 210.340151 147.424755 210.340151 Z M 147.424755 210.340151 " stroke="#17142b" stroke-width="3" stroke-opacity="1" stroke-miterlimit="10"/><path stroke-linecap="round" transform="matrix(1.385849, 0, 0, 1.385849, -107.617092, -107.132571)" fill-opacity="1" fill="#ffffff" fill-rule="nonzero" stroke-linejoin="round" d="M 147.424755 247.619862 L 107.701259 247.619862 C 104.958694 247.619862 102.734765 245.545322 102.734765 242.983152 C 102.734765 240.418164 104.958694 238.343624 107.701259 238.343624 L 147.424755 238.343624 C 150.16732 238.343624 152.391249 240.418164 152.391249 242.983152 C 152.391249 245.545322 150.16732 247.619862 147.424755 247.619862 Z M 147.424755 247.619862 " stroke="#17142b" stroke-width="3" stroke-opacity="1" stroke-miterlimit="10"/><path stroke-linecap="round" transform="matrix(1.385849, 0, 0, 1.385849, -107.617092, -107.132571)" fill-opacity="1" fill="#ffffff" fill-rule="nonzero" stroke-linejoin="round" d="M 175.515606 189.730046 L 135.79211 189.730046 C 133.049545 189.730046 130.825616 187.649869 130.825616 185.087699 C 130.825616 182.528348 133.049545 180.448171 135.79211 180.448171 L 175.515606 180.448171 C 178.258171 180.448171 180.482101 182.528348 180.482101 185.087699 C 180.479282 187.649869 178.258171 189.730046 175.515606 189.730046 Z M 175.515606 189.730046 " stroke="#17142b" stroke-width="3" stroke-opacity="1" stroke-miterlimit="10"/><path stroke-linecap="round" transform="matrix(1.385849, 0, 0, 1.385849, -107.617092, -107.132571)" fill-opacity="1" fill="#ffffff" fill-rule="nonzero" stroke-linejoin="round" d="M 175.515606 268.232785 L 135.79211 268.232785 C 133.049545 268.232785 130.825616 266.155427 130.825616 263.593257 C 130.825616 261.031087 133.049545 258.953728 135.79211 258.953728 L 175.515606 258.953728 C 178.258171 258.953728 180.482101 261.031087 180.482101 263.593257 C 180.482101 266.155427 178.258171 268.232785 175.515606 268.232785 Z M 175.515606 268.232785 " stroke="#17142b" stroke-width="3" stroke-opacity="1" stroke-miterlimit="10"/><path stroke-linecap="round" transform="matrix(1.385849, 0, 0, 1.385849, -107.617092, -107.132571)" fill-opacity="1" fill="#ffffff" fill-rule="nonzero" stroke-linejoin="round" d="M 175.515606 228.980007 L 135.79211 228.980007 C 133.049545 228.980007 130.825616 226.902648 130.825616 224.340478 C 130.825616 221.778308 133.049545 219.700949 135.79211 219.700949 L 175.515606 219.700949 C 178.258171 219.700949 180.482101 221.778308 180.482101 224.340478 C 180.479282 226.902648 178.258171 228.980007 175.515606 228.980007 Z M 175.515606 228.980007 " stroke="#17142b" stroke-width="3" stroke-opacity="1" stroke-miterlimit="10"/><path stroke-linecap="round" transform="matrix(1.385849, 0, 0, 1.385849, -107.617092, -107.132571)" fill-opacity="1" fill="#e04867" fill-rule="nonzero" stroke-linejoin="round" d="M 222.84669 224.343297 L 249.590217 252.341132 " stroke="#17142b" stroke-width="3" stroke-opacity="1" stroke-miterlimit="10"/><path stroke-linecap="round" transform="matrix(1.385849, 0, 0, 1.385849, -107.617092, -107.132571)" fill-opacity="1" fill="#e04867" fill-rule="nonzero" stroke-linejoin="round" d="M 233.847953 224.343297 C 233.847953 225.064876 233.777486 225.780818 233.636553 226.488303 C 233.49562 227.195789 233.287038 227.883544 233.010809 228.551569 C 232.734579 229.219593 232.39352 229.853794 231.993269 230.45417 C 231.593018 231.054547 231.136394 231.609824 230.626215 232.120003 C 230.113217 232.630182 229.55794 233.086807 228.957563 233.487058 C 228.357187 233.890127 227.722986 234.228367 227.057781 234.504597 C 226.389756 234.780827 225.702001 234.989408 224.991696 235.130341 C 224.284211 235.271275 223.568269 235.341742 222.84669 235.341742 C 222.12511 235.341742 221.409169 235.271275 220.701683 235.130341 C 219.991378 234.989408 219.303623 234.780827 218.638417 234.504597 C 217.970393 234.228367 217.336193 233.890127 216.735816 233.487058 C 216.13544 233.086807 215.580162 232.630182 215.069983 232.120003 C 214.556985 231.609824 214.10318 231.054547 213.70011 230.45417 C 213.299859 229.853794 212.961619 229.219593 212.685389 228.551569 C 212.40916 227.883544 212.200578 227.195789 212.059645 226.488303 C 211.918711 225.780818 211.848245 225.064876 211.848245 224.343297 C 211.848245 223.618899 211.918711 222.905776 212.059645 222.195471 C 212.200578 221.487985 212.40916 220.80023 212.685389 220.132206 C 212.961619 219.464181 213.299859 218.829981 213.70011 218.229604 C 214.10318 217.629228 214.556985 217.07395 215.069983 216.563771 C 215.580162 216.053592 216.13544 215.596968 216.735816 215.196717 C 217.336193 214.793647 217.970393 214.455407 218.638417 214.179178 C 219.303623 213.902948 219.991378 213.694367 220.701683 213.553433 C 221.409169 213.4125 222.12511 213.342033 222.84669 213.342033 C 223.568269 213.342033 224.284211 213.4125 224.991696 213.553433 C 225.702001 213.694367 226.389756 213.902948 227.057781 214.179178 C 227.722986 214.455407 228.357187 214.793647 228.957563 215.196717 C 229.55794 215.596968 230.113217 216.053592 230.626215 216.563771 C 231.136394 217.07395 231.593018 217.629228 231.993269 218.229604 C 232.39352 218.829981 232.734579 219.464181 233.010809 220.132206 C 233.287038 220.80023 233.49562 221.487985 233.636553 222.195471 C 233.777486 222.905776 233.847953 223.618899 233.847953 224.343297 Z M 233.847953 224.343297 " stroke="#17142b" stroke-width="3" stroke-opacity="1" stroke-miterlimit="10"/></svg>