<svg xmlns="http://www.w3.org/2000/svg" xmlns:xlink="http://www.w3.org/1999/xlink" width="500" zoomAndPan="magnify" viewBox="0 0 375 374.999991" height="500" preserveAspectRatio="xMidYMid meet" version="1.0"><defs><clipPath id="2b02239fa2"><path d="M 172 77.058594 L 220 77.058594 L 220 93 L 172 93 Z M 172 77.058594 " clip-rule="nonzero"/></clipPath></defs><path stroke-linecap="round" transform="matrix(1.092359, 0, 0, 1.092359, -45.123633, -44.739578)" fill="none" stroke-linejoin="round" d="M 298.921776 188.172646 L 312.106402 178.671277 " stroke="#17142b" stroke-width="3" stroke-opacity="1" stroke-miterlimit="10"/><path stroke-linecap="round" transform="matrix(1.092359, 0, 0, 1.092359, -45.123633, -44.739578)" fill-opacity="1" fill="#e04867" fill-rule="nonzero" stroke-linejoin="round" d="M 307.479088 168.068507 C 305.573093 169.441681 305.143976 172.102208 306.513575 174.004627 L 314.763352 185.451328 C 316.136527 187.357324 318.793478 187.790017 320.699473 186.413266 C 322.605469 185.043667 323.034586 182.386716 321.661411 180.480721 L 313.411633 169.03402 C 312.042034 167.128025 309.385084 166.695332 307.479088 168.068507 Z M 307.479088 168.068507 " stroke="#17142b" stroke-width="3" stroke-opacity="1" stroke-miterlimit="10"/><path stroke-linecap="round" transform="matrix(1.092359, 0, 0, 1.092359, -45.123633, -44.739578)" fill="none" stroke-linejoin="round" d="M 313.686983 177.151487 L 318.317873 183.563213 " stroke="#ffffff" stroke-width="3" stroke-opacity="1" stroke-miterlimit="10"/><path stroke-linecap="round" transform="matrix(1.092359, 0, 0, 1.092359, -45.123633, -44.739578)" fill="none" stroke-linejoin="round" d="M 279.386217 165.093294 L 290.09269 152.863454 " stroke="#17142b" stroke-width="3" stroke-opacity="1" stroke-miterlimit="10"/><path stroke-linecap="round" transform="matrix(1.092359, 0, 0, 1.092359, -45.123633, -44.739578)" fill-opacity="1" fill="#e04867" fill-rule="nonzero" stroke-linejoin="round" d="M 283.194632 143.580219 C 281.64981 145.346752 281.828609 148.03231 283.591565 149.577132 L 294.208639 158.874671 C 295.971596 160.423069 298.66073 160.24427 300.205552 158.477738 C 301.75395 156.711205 301.575151 154.025647 299.808619 152.477249 L 289.19512 143.183286 C 287.428588 141.638464 284.74303 141.813687 283.194632 143.580219 Z M 283.194632 143.580219 " stroke="#17142b" stroke-width="3" stroke-opacity="1" stroke-miterlimit="10"/><path stroke-linecap="round" transform="matrix(1.092359, 0, 0, 1.092359, -45.123633, -44.739578)" fill="none" stroke-linejoin="round" d="M 220.82245 137.014727 L 220.82245 120.765489 " stroke="#17142b" stroke-width="3" stroke-opacity="1" stroke-miterlimit="10"/><path stroke-linecap="round" transform="matrix(1.092359, 0, 0, 1.092359, -45.123633, -44.739578)" fill-opacity="1" fill="#e04867" fill-rule="nonzero" stroke-linejoin="round" d="M 310.693891 224.340073 C 310.693891 225.777615 310.658131 227.215158 310.586612 228.649124 C 310.518668 230.086667 310.411389 231.520634 310.271926 232.951024 C 310.128887 234.381415 309.953664 235.808229 309.742681 237.231468 C 309.531699 238.651131 309.284956 240.067217 309.00603 241.479728 C 308.727104 242.888663 308.412418 244.290446 308.061972 245.685076 C 307.711527 247.079707 307.328897 248.46361 306.910508 249.840361 C 306.495695 251.217112 306.041546 252.579559 305.558789 253.934854 C 305.076032 255.290149 304.557515 256.627565 304.006815 257.957828 C 303.456115 259.284515 302.873231 260.600474 302.258163 261.898554 C 301.646671 263.200209 300.999419 264.483985 300.319983 265.749881 C 299.644124 267.019352 298.93608 268.270944 298.195853 269.50108 C 297.455626 270.734792 296.686791 271.950624 295.889348 273.145 C 295.091906 274.339376 294.262279 275.515872 293.407621 276.670913 C 292.549386 277.825953 291.66612 278.959538 290.754246 280.06809 C 289.842372 281.180219 288.90189 282.270892 287.936377 283.332957 C 286.970863 284.398598 285.980318 285.439207 284.96474 286.45836 C 283.949163 287.473938 282.904978 288.464483 281.842913 289.429997 C 280.777272 290.395511 279.686599 291.335992 278.578046 292.247866 C 277.465917 293.15974 276.332333 294.043007 275.177293 294.897665 C 274.022252 295.755899 272.845756 296.58195 271.65138 297.382969 C 270.457004 298.180411 269.241172 298.949246 268.011036 299.689474 C 266.777324 300.429701 265.525732 301.137744 264.25626 301.813604 C 262.990365 302.493039 261.706589 303.136715 260.404934 303.751783 C 259.106854 304.366851 257.794471 304.949735 256.464207 305.500435 C 255.13752 306.051136 253.796529 306.566076 252.441234 307.052409 C 251.089515 307.535166 249.723492 307.985739 248.346741 308.404128 C 246.973566 308.822518 245.586087 309.205147 244.191456 309.555593 C 242.796825 309.902462 241.395043 310.217148 239.986108 310.49965 C 238.573597 310.778577 237.15751 311.025319 235.737848 311.236302 C 234.314609 311.447284 232.887794 311.622507 231.457404 311.765546 C 230.027013 311.905009 228.593047 312.012289 227.15908 312.080232 C 225.721538 312.151752 224.283995 312.187511 222.846452 312.187511 C 221.40891 312.187511 219.971367 312.151752 218.537401 312.080232 C 217.099858 312.012289 215.665892 311.905009 214.235501 311.765546 C 212.80511 311.622507 211.378296 311.447284 209.958633 311.236302 C 208.535394 311.025319 207.119308 310.778577 205.710373 310.49965 C 204.297862 310.217148 202.89608 309.902462 201.501449 309.555593 C 200.106818 309.205147 198.722915 308.822518 197.346164 308.404128 C 195.969413 307.985739 194.606966 307.535166 193.251671 307.052409 C 191.899952 306.566076 190.558961 306.051136 189.228697 305.500435 C 187.90201 304.949735 186.586051 304.366851 185.287971 303.751783 C 183.986316 303.136715 182.70254 302.493039 181.436645 301.813604 C 180.167173 301.137744 178.919157 300.429701 177.685445 299.689474 C 176.451733 298.949246 175.235901 298.180411 174.041525 297.382969 C 172.847149 296.58195 171.670653 295.755899 170.515612 294.897665 C 169.360572 294.043007 168.230563 293.15974 167.118435 292.247866 C 166.006306 291.335992 164.919209 290.395511 163.853568 289.429997 C 162.787927 288.464483 161.747318 287.473938 160.728165 286.45836 C 159.712587 285.439207 158.722042 284.398598 157.756528 283.332957 C 156.791015 282.270892 155.854109 281.180219 154.938659 280.06809 C 154.026785 278.959538 153.143518 277.825953 152.28886 276.670913 C 151.430626 275.515872 150.604575 274.339376 149.803556 273.145 C 149.006114 271.950624 148.237279 270.734792 147.497052 269.50108 C 146.7604 268.270944 146.048781 267.019352 145.372922 265.749881 C 144.693486 264.483985 144.04981 263.200209 143.434742 261.898554 C 142.819674 260.600474 142.23679 259.284515 141.68609 257.957828 C 141.135389 256.627565 140.620449 255.290149 140.134116 253.934854 C 139.651359 252.579559 139.200786 251.217112 138.782397 249.840361 C 138.364008 248.46361 137.981378 247.079707 137.630932 245.685076 C 137.284063 244.290446 136.969377 242.888663 136.686875 241.479728 C 136.407948 240.067217 136.161206 238.651131 135.950223 237.231468 C 135.739241 235.808229 135.564018 234.381415 135.424555 232.951024 C 135.281516 231.520634 135.177813 230.086667 135.106293 228.649124 C 135.034773 227.215158 134.999014 225.777615 134.999014 224.340073 C 134.999014 222.90253 135.034773 221.464988 135.106293 220.031021 C 135.177813 218.593478 135.281516 217.159512 135.424555 215.729121 C 135.564018 214.298731 135.739241 212.871916 135.950223 211.448677 C 136.161206 210.029015 136.407948 208.612928 136.686875 207.200417 C 136.969377 205.791483 137.284063 204.3897 137.630932 202.995069 C 137.981378 201.600438 138.364008 200.216535 138.782397 198.839784 C 139.200786 197.463033 139.651359 196.100586 140.134116 194.745291 C 140.620449 193.389996 141.135389 192.049005 141.68609 190.722318 C 142.23679 189.39563 142.819674 188.079671 143.434742 186.781592 C 144.04981 185.479936 144.693486 184.196161 145.372922 182.930265 C 146.048781 181.660793 146.7604 180.409201 147.497052 179.179065 C 148.237279 177.945354 149.006114 176.729522 149.803556 175.535145 C 150.604575 174.340769 151.430626 173.164273 152.28886 172.009233 C 153.143518 170.854192 154.026785 169.720608 154.938659 168.612055 C 155.854109 167.499926 156.791015 166.409253 157.756528 165.347188 C 158.722042 164.281547 159.712587 163.240938 160.728165 162.221785 C 161.747318 161.206208 162.787927 160.215662 163.853568 159.250148 C 164.919209 158.284635 166.006306 157.344153 167.118435 156.432279 C 168.230563 155.520405 169.360572 154.637139 170.515612 153.778904 C 171.670653 152.924246 172.847149 152.098195 174.041525 151.297177 C 175.235901 150.499734 176.451733 149.730899 177.685445 148.990672 C 178.919157 148.250445 180.167173 147.542401 181.436645 146.866542 C 182.70254 146.187106 183.986316 145.543431 185.287971 144.928363 C 186.586051 144.313295 187.90201 143.73041 189.228697 143.17971 C 190.558961 142.62901 191.899952 142.114069 193.251671 141.627736 C 194.606966 141.144979 195.969413 140.694406 197.346164 140.276017 C 198.722915 139.857628 200.106818 139.474998 201.501449 139.124553 C 202.89608 138.777683 204.297862 138.462997 205.710373 138.180495 C 207.119308 137.901569 208.535394 137.654826 209.958633 137.443844 C 211.378296 137.232861 212.80511 137.057638 214.235501 136.914599 C 215.665892 136.775136 217.099858 136.667857 218.537401 136.599913 C 219.971367 136.528394 221.40891 136.492634 222.846452 136.492634 C 224.283995 136.492634 225.721538 136.528394 227.15908 136.599913 C 228.593047 136.667857 230.027013 136.775136 231.457404 136.914599 C 232.887794 137.057638 234.314609 137.232861 235.737848 137.443844 C 237.15751 137.654826 238.573597 137.901569 239.986108 138.180495 C 241.395043 138.462997 242.796825 138.777683 244.191456 139.124553 C 245.586087 139.474998 246.973566 139.857628 248.346741 140.276017 C 249.723492 140.694406 251.089515 141.144979 252.441234 141.627736 C 253.796529 142.114069 255.13752 142.62901 256.464207 143.17971 C 257.794471 143.73041 259.106854 144.313295 260.404934 144.928363 C 261.706589 145.543431 262.990365 146.187106 264.25626 146.866542 C 265.525732 147.542401 266.777324 148.250445 268.011036 148.990672 C 269.241172 149.730899 270.457004 150.499734 271.65138 151.297177 C 272.849332 152.098195 274.022252 152.924246 275.177293 153.778904 C 276.332333 154.637139 277.465917 155.520405 278.578046 156.432279 C 279.686599 157.344153 280.777272 158.284635 281.842913 159.250148 C 282.904978 160.215662 283.949163 161.206208 284.96474 162.221785 C 285.980318 163.240938 286.970863 164.281547 287.936377 165.347188 C 288.90189 166.409253 289.842372 167.499926 290.754246 168.612055 C 291.66612 169.720608 292.549386 170.854192 293.407621 172.009233 C 294.262279 173.164273 295.091906 174.340769 295.889348 175.535145 C 296.686791 176.729522 297.455626 177.945354 298.195853 179.179065 C 298.93608 180.409201 299.644124 181.660793 300.319983 182.930265 C 300.999419 184.196161 301.646671 185.479936 302.258163 186.781592 C 302.873231 188.079671 303.456115 189.39563 304.006815 190.722318 C 304.557515 192.049005 305.076032 193.389996 305.558789 194.745291 C 306.041546 196.100586 306.495695 197.463033 306.910508 198.839784 C 307.328897 200.216535 307.711527 201.600438 308.061972 202.995069 C 308.412418 204.3897 308.727104 205.791483 309.00603 207.200417 C 309.284956 208.612928 309.531699 210.029015 309.742681 211.448677 C 309.953664 212.871916 310.128887 214.298731 310.271926 215.729121 C 310.411389 217.159512 310.518668 218.593478 310.586612 220.031021 C 310.658131 221.464988 310.693891 222.90253 310.693891 224.340073 Z M 310.693891 224.340073 " stroke="#17142b" stroke-width="3" stroke-opacity="1" stroke-miterlimit="10"/><path stroke-linecap="round" transform="matrix(1.092359, 0, 0, 1.092359, -45.123633, -44.739578)" fill-opacity="1" fill="#ffffff" fill-rule="nonzero" stroke-linejoin="round" d="M 294.355254 224.343649 C 294.355254 225.512993 294.326647 226.682337 294.269431 227.851682 C 294.212215 229.021026 294.126392 230.186794 294.011961 231.352563 C 293.897529 232.514755 293.75449 233.676947 293.579268 234.835564 C 293.407621 235.990604 293.210942 237.145645 292.98208 238.293533 C 292.753217 239.441421 292.495747 240.582158 292.213245 241.715743 C 291.927166 242.852903 291.616056 243.979336 291.276339 245.098616 C 290.936621 246.217897 290.568295 247.330026 290.174938 248.431426 C 289.781581 249.532827 289.359615 250.627076 288.912618 251.707021 C 288.465621 252.786966 287.990016 253.856183 287.48938 254.914672 C 286.988743 255.973161 286.463074 257.017346 285.912374 258.050803 C 285.358098 259.08426 284.782365 260.099838 284.181601 261.104687 C 283.580837 262.109536 282.955041 263.096506 282.304214 264.069172 C 281.653386 265.041837 280.981102 266.000199 280.283787 266.940681 C 279.586472 267.877587 278.864124 268.800189 278.123897 269.704911 C 277.380094 270.609633 276.618411 271.496475 275.831696 272.365437 C 275.044981 273.230823 274.236811 274.07833 273.41076 274.90438 C 272.58471 275.734007 271.737203 276.538602 270.868241 277.325317 C 270.002855 278.112031 269.116012 278.87729 268.21129 279.617517 C 267.306568 280.361321 266.383966 281.080092 265.443484 281.777407 C 264.503003 282.474723 263.548217 283.147006 262.575551 283.797834 C 261.602886 284.448662 260.61234 285.074458 259.611067 285.675222 C 258.606217 286.279562 257.587064 286.855294 256.557183 287.405994 C 255.523726 287.956695 254.479541 288.482363 253.421051 288.983 C 252.362562 289.483637 251.293345 289.959241 250.213401 290.406239 C 249.12988 290.853236 248.039207 291.275201 246.937806 291.668558 C 245.836405 292.065492 244.724277 292.430241 243.604996 292.769959 C 242.485715 293.109677 241.355707 293.424363 240.222122 293.706865 C 239.088538 293.992943 237.944225 294.246837 236.796337 294.4757 C 235.648448 294.704562 234.496984 294.904817 233.338367 295.076464 C 232.183327 295.248111 231.021135 295.39115 229.855366 295.505581 C 228.689598 295.620012 227.52383 295.705836 226.354485 295.763051 C 225.185141 295.820267 224.015797 295.848875 222.846452 295.848875 C 221.677108 295.848875 220.507764 295.820267 219.338419 295.763051 C 218.169075 295.705836 217.003307 295.620012 215.837538 295.505581 C 214.67177 295.39115 213.513154 295.248111 212.354537 295.076464 C 211.195921 294.904817 210.044457 294.704562 208.896568 294.4757 C 207.74868 294.246837 206.607943 293.992943 205.470783 293.706865 C 204.337198 293.424363 203.210765 293.109677 202.087909 292.769959 C 200.968628 292.430241 199.860075 292.065492 198.755099 291.668558 C 197.653698 291.275201 196.563025 290.853236 195.48308 290.406239 C 194.399559 289.959241 193.330342 289.483637 192.271853 288.983 C 191.21694 288.482363 190.169179 287.956695 189.139298 287.405994 C 188.105841 286.855294 187.086687 286.279562 186.085414 285.675222 C 185.080565 285.074458 184.093595 284.448662 183.120929 283.797834 C 182.144688 283.147006 181.189902 282.474723 180.24942 281.777407 C 179.308939 281.080092 178.386337 280.361321 177.481615 279.617517 C 176.576892 278.87729 175.693626 278.112031 174.824664 277.325317 C 173.959278 276.538602 173.111771 275.734007 172.282145 274.90438 C 171.456094 274.07833 170.647923 273.230823 169.864785 272.365437 C 169.07807 271.496475 168.312811 270.609633 167.569008 269.704911 C 166.828781 268.800189 166.110009 267.877587 165.412694 266.940681 C 164.715378 266.000199 164.039519 265.041837 163.388691 264.069172 C 162.741439 263.096506 162.115644 262.109536 161.511303 261.104687 C 160.910539 260.099838 160.334807 259.08426 159.784107 258.050803 C 159.22983 257.017346 158.704162 255.973161 158.203525 254.914672 C 157.702889 253.856183 157.23086 252.786966 156.783863 251.707021 C 156.33329 250.627076 155.9149 249.532827 155.517967 248.431426 C 155.124609 247.330026 154.756284 246.217897 154.416566 245.098616 C 154.076848 243.979336 153.765738 242.852903 153.483236 241.715743 C 153.197158 240.582158 152.939688 239.441421 152.714401 238.293533 C 152.485539 237.145645 152.285284 235.990604 152.113637 234.835564 C 151.94199 233.676947 151.798951 232.514755 151.68452 231.352563 C 151.570089 230.186794 151.484265 229.021026 151.423474 227.851682 C 151.366258 226.682337 151.33765 225.512993 151.33765 224.343649 C 151.33765 223.170728 151.366258 222.001384 151.423474 220.83204 C 151.484265 219.662695 151.570089 218.496927 151.68452 217.334735 C 151.798951 216.168966 151.94199 215.006774 152.113637 213.848158 C 152.285284 212.693117 152.485539 211.538077 152.714401 210.390188 C 152.939688 209.2423 153.197158 208.101563 153.483236 206.967979 C 153.765738 205.830818 154.076848 204.704386 154.416566 203.585105 C 154.756284 202.465824 155.124609 201.353696 155.517967 200.252295 C 155.9149 199.150894 156.33329 198.056645 156.783863 196.976701 C 157.23086 195.896756 157.702889 194.827539 158.203525 193.76905 C 158.704162 192.710561 159.22983 191.666375 159.784107 190.632918 C 160.334807 189.599461 160.910539 188.583884 161.511303 187.579034 C 162.115644 186.574185 162.741439 185.587215 163.388691 184.61455 C 164.039519 183.641884 164.715378 182.683522 165.412694 181.743041 C 166.110009 180.806135 166.828781 179.883533 167.569008 178.978811 C 168.312811 178.074089 169.07807 177.187247 169.864785 176.32186 C 170.647923 175.452898 171.456094 174.605392 172.282145 173.779341 C 173.111771 172.949714 173.959278 172.14512 174.824664 171.358405 C 175.693626 170.57169 176.576892 169.806431 177.481615 169.066204 C 178.386337 168.322401 179.308939 167.60363 180.24942 166.906314 C 181.189902 166.208999 182.144688 165.536715 183.120929 164.885887 C 184.093595 164.23506 185.080565 163.609264 186.085414 163.0085 C 187.086687 162.40416 188.105841 161.828428 189.139298 161.277727 C 190.169179 160.727027 191.21694 160.201358 192.271853 159.700721 C 193.330342 159.200085 194.399559 158.72448 195.48308 158.277483 C 196.563025 157.830486 197.653698 157.408521 198.755099 157.015163 C 199.860075 156.61823 200.968628 156.25348 202.087909 155.913762 C 203.210765 155.574045 204.337198 155.262935 205.470783 154.976857 C 206.607943 154.694354 207.74868 154.436884 208.896568 154.208022 C 210.044457 153.979159 211.195921 153.778904 212.354537 153.607258 C 213.513154 153.435611 214.67177 153.292572 215.837538 153.17814 C 217.003307 153.063709 218.169075 152.977886 219.338419 152.92067 C 220.507764 152.863454 221.677108 152.834847 222.846452 152.834847 C 224.015797 152.834847 225.185141 152.863454 226.354485 152.92067 C 227.52383 152.977886 228.689598 153.063709 229.855366 153.17814 C 231.021135 153.292572 232.183327 153.435611 233.338367 153.607258 C 234.496984 153.778904 235.648448 153.979159 236.796337 154.208022 C 237.944225 154.436884 239.088538 154.694354 240.222122 154.976857 C 241.355707 155.262935 242.485715 155.574045 243.604996 155.913762 C 244.724277 156.25348 245.836405 156.61823 246.937806 157.015163 C 248.039207 157.408521 249.12988 157.830486 250.213401 158.277483 C 251.293345 158.72448 252.362562 159.200085 253.421051 159.700721 C 254.479541 160.201358 255.523726 160.727027 256.557183 161.277727 C 257.587064 161.828428 258.606217 162.40416 259.611067 163.0085 C 260.61234 163.609264 261.602886 164.23506 262.575551 164.885887 C 263.548217 165.536715 264.503003 166.208999 265.443484 166.906314 C 266.383966 167.60363 267.306568 168.322401 268.21129 169.066204 C 269.116012 169.806431 270.002855 170.57169 270.868241 171.358405 C 271.737203 172.14512 272.58471 172.949714 273.41076 173.779341 C 274.236811 174.605392 275.044981 175.452898 275.831696 176.32186 C 276.618411 177.187247 277.380094 178.074089 278.123897 178.978811 C 278.864124 179.883533 279.586472 180.806135 280.283787 181.743041 C 280.981102 182.683522 281.653386 183.641884 282.304214 184.61455 C 282.955041 185.587215 283.580837 186.574185 284.181601 187.579034 C 284.782365 188.583884 285.358098 189.599461 285.912374 190.632918 C 286.463074 191.666375 286.988743 192.710561 287.48938 193.76905 C 287.990016 194.827539 288.465621 195.896756 288.912618 196.976701 C 289.359615 198.056645 289.781581 199.150894 290.174938 200.252295 C 290.568295 201.353696 290.936621 202.465824 291.276339 203.585105 C 291.616056 204.704386 291.927166 205.830818 292.213245 206.967979 C 292.495747 208.101563 292.753217 209.2423 292.98208 210.390188 C 293.210942 211.538077 293.407621 212.693117 293.579268 213.848158 C 293.75449 215.006774 293.897529 216.168966 294.011961 217.334735 C 294.126392 218.496927 294.212215 219.662695 294.269431 220.83204 C 294.326647 222.001384 294.355254 223.170728 294.355254 224.343649 Z M 294.355254 224.343649 " stroke="#17142b" stroke-width="3" stroke-opacity="1" stroke-miterlimit="10"/><path stroke-linecap="round" transform="matrix(1.092359, 0, 0, 1.092359, -45.123633, -44.739578)" fill="none" stroke-linejoin="round" d="M 223.411457 144.098736 C 223.411457 144.098736 304.217798 147.195532 302.808863 228.205703 " stroke="#ffffff" stroke-width="3" stroke-opacity="1" stroke-miterlimit="10"/><path stroke-linecap="round" transform="matrix(1.092359, 0, 0, 1.092359, -45.123633, -44.739578)" fill="none" stroke-linejoin="round" d="M 223.411457 304.867488 C 223.411457 304.867488 287.042383 305.997496 302.808863 238.983696 " stroke="#ffffff" stroke-width="3" stroke-opacity="1" stroke-miterlimit="10"/><path stroke-linecap="round" transform="matrix(1.092359, 0, 0, 1.092359, -45.123633, -44.739578)" fill="none" stroke-linejoin="round" d="M 220.82245 157.898429 C 257.519121 157.898429 289.291672 187.646978 289.291672 224.340073 C 289.291672 261.036744 257.519121 290.785292 220.82245 290.785292 " stroke="#17142b" stroke-width="3" stroke-opacity="1" stroke-miterlimit="10"/><path stroke-linecap="round" transform="matrix(1.092359, 0, 0, 1.092359, -45.123633, -44.739578)" fill="none" stroke-linejoin="round" d="M 291.290643 151.028978 L 297.248219 156.2356 " stroke="#ffffff" stroke-width="3" stroke-opacity="1" stroke-miterlimit="10"/><path fill="#e04867" d="M 217.761719 84.832031 C 217.761719 88.21875 215.019531 90.957031 211.636719 90.957031 L 180.554688 90.957031 C 177.171875 90.957031 174.429688 88.214844 174.429688 84.832031 C 174.429688 81.449219 177.171875 78.710938 180.554688 78.710938 L 211.636719 78.710938 C 215.019531 78.710938 217.761719 81.449219 217.761719 84.832031 Z M 217.761719 84.832031 " fill-opacity="1" fill-rule="nonzero"/><g clip-path="url(#2b02239fa2)"><path stroke-linecap="round" transform="matrix(1.092359, 0, 0, 1.092359, -45.123633, -44.739578)" fill="none" stroke-linejoin="round" d="M 240.658391 118.616327 C 240.658391 121.716699 238.148056 124.223459 235.05126 124.223459 L 206.597215 124.223459 C 203.50042 124.223459 200.990084 121.713123 200.990084 118.616327 C 200.990084 115.519532 203.50042 113.012772 206.597215 113.012772 L 235.05126 113.012772 C 238.148056 113.012772 240.658391 115.519532 240.658391 118.616327 Z M 240.658391 118.616327 " stroke="#17142b" stroke-width="3" stroke-opacity="1" stroke-miterlimit="10"/></g><path stroke-linecap="round" transform="matrix(1.092359, 0, 0, 1.092359, -45.123633, -44.739578)" fill="none" stroke-linejoin="round" d="M 219.00943 118.619903 L 235.508985 118.619903 " stroke="#ffffff" stroke-width="3" stroke-opacity="1" stroke-miterlimit="10"/><path stroke-linecap="round" transform="matrix(1.092359, 0, 0, 1.092359, -45.123633, -44.739578)" fill="none" stroke-linejoin="round" d="M 220.82245 157.898429 L 220.82245 169.39877 " stroke="#17142b" stroke-width="3" stroke-opacity="1" stroke-miterlimit="10"/><path stroke-linecap="round" transform="matrix(1.092359, 0, 0, 1.092359, -45.123633, -44.739578)" fill="none" stroke-linejoin="round" d="M 220.82245 279.284952 L 220.82245 290.785292 " stroke="#17142b" stroke-width="3" stroke-opacity="1" stroke-miterlimit="10"/><path stroke-linecap="round" transform="matrix(1.092359, 0, 0, 1.092359, -45.123633, -44.739578)" fill-opacity="1" fill="#ffffff" fill-rule="nonzero" stroke-linejoin="round" d="M 147.425532 210.340125 L 107.700009 210.340125 C 104.957235 210.340125 102.736554 208.262482 102.736554 205.698507 C 102.736554 203.138108 104.957235 201.060466 107.700009 201.060466 L 147.425532 201.060466 C 150.16473 201.060466 152.388987 203.138108 152.388987 205.698507 C 152.388987 208.262482 150.16473 210.340125 147.425532 210.340125 Z M 147.425532 210.340125 " stroke="#17142b" stroke-width="3" stroke-opacity="1" stroke-miterlimit="10"/><path stroke-linecap="round" transform="matrix(1.092359, 0, 0, 1.092359, -45.123633, -44.739578)" fill-opacity="1" fill="#ffffff" fill-rule="nonzero" stroke-linejoin="round" d="M 147.425532 247.61968 L 107.700009 247.61968 C 104.957235 247.61968 102.736554 245.545613 102.736554 242.981638 C 102.736554 240.417663 104.957235 238.343597 107.700009 238.343597 L 147.425532 238.343597 C 150.16473 238.343597 152.388987 240.417663 152.388987 242.981638 C 152.388987 245.545613 150.16473 247.61968 147.425532 247.61968 Z M 147.425532 247.61968 " stroke="#17142b" stroke-width="3" stroke-opacity="1" stroke-miterlimit="10"/><path stroke-linecap="round" transform="matrix(1.092359, 0, 0, 1.092359, -45.123633, -44.739578)" fill-opacity="1" fill="#ffffff" fill-rule="nonzero" stroke-linejoin="round" d="M 175.514827 189.728196 L 135.79288 189.728196 C 133.050107 189.728196 130.825849 187.650554 130.825849 185.086579 C 130.825849 182.526179 133.050107 180.448537 135.79288 180.448537 L 175.514827 180.448537 C 178.257601 180.448537 180.481859 182.526179 180.481859 185.086579 C 180.478283 187.650554 178.257601 189.728196 175.514827 189.728196 Z M 175.514827 189.728196 " stroke="#17142b" stroke-width="3" stroke-opacity="1" stroke-miterlimit="10"/><path stroke-linecap="round" transform="matrix(1.092359, 0, 0, 1.092359, -45.123633, -44.739578)" fill-opacity="1" fill="#ffffff" fill-rule="nonzero" stroke-linejoin="round" d="M 175.514827 268.231608 L 135.79288 268.231608 C 133.050107 268.231608 130.825849 266.157542 130.825849 263.593567 C 130.825849 261.029592 133.050107 258.955525 135.79288 258.955525 L 175.514827 258.955525 C 178.257601 258.955525 180.481859 261.029592 180.481859 263.593567 C 180.481859 266.157542 178.257601 268.231608 175.514827 268.231608 Z M 175.514827 268.231608 " stroke="#17142b" stroke-width="3" stroke-opacity="1" stroke-miterlimit="10"/><path stroke-linecap="round" transform="matrix(1.092359, 0, 0, 1.092359, -45.123633, -44.739578)" fill-opacity="1" fill="#ffffff" fill-rule="nonzero" stroke-linejoin="round" d="M 175.514827 228.98169 L 135.79288 228.98169 C 133.050107 228.98169 130.825849 226.900472 130.825849 224.340073 C 130.825849 221.779674 133.050107 219.698455 135.79288 219.698455 L 175.514827 219.698455 C 178.257601 219.698455 180.481859 221.779674 180.481859 224.340073 C 180.478283 226.900472 178.257601 228.98169 175.514827 228.98169 Z M 175.514827 228.98169 " stroke="#17142b" stroke-width="3" stroke-opacity="1" stroke-miterlimit="10"/><path stroke-linecap="round" transform="matrix(1.092359, 0, 0, 1.092359, -45.123633, -44.739578)" fill-opacity="1" fill="#e04867" fill-rule="nonzero" stroke-linejoin="round" d="M 222.846452 224.343649 L 249.591181 252.343545 " stroke="#17142b" stroke-width="3" stroke-opacity="1" stroke-miterlimit="10"/><path stroke-linecap="round" transform="matrix(1.092359, 0, 0, 1.092359, -45.123633, -44.739578)" fill-opacity="1" fill="#e04867" fill-rule="nonzero" stroke-linejoin="round" d="M 233.846156 224.343649 C 233.846156 225.065996 233.778213 225.781191 233.635174 226.489235 C 233.49571 227.197278 233.284728 227.883865 233.009378 228.552573 C 232.734027 229.217705 232.39431 229.854228 231.9938 230.454993 C 231.593291 231.052181 231.135566 231.610033 230.624201 232.121398 C 230.112837 232.629186 229.55856 233.086911 228.957796 233.487421 C 228.357032 233.88793 227.724084 234.227648 227.055377 234.502998 C 226.390245 234.781924 225.700082 234.989331 224.992038 235.13237 C 224.283995 235.271833 223.5688 235.343352 222.846452 235.343352 C 222.124105 235.343352 221.40891 235.271833 220.700867 235.13237 C 219.992823 234.989331 219.306236 234.781924 218.637528 234.502998 C 217.96882 234.227648 217.335873 233.88793 216.735109 233.487421 C 216.134345 233.086911 215.580068 232.629186 215.068704 232.121398 C 214.557339 231.610033 214.10319 231.052181 213.699105 230.454993 C 213.298595 229.854228 212.962453 229.217705 212.683527 228.552573 C 212.408177 227.883865 212.20077 227.197278 212.057731 226.489235 C 211.918268 225.781191 211.846749 225.065996 211.846749 224.343649 C 211.846749 223.621301 211.918268 222.906106 212.057731 222.194487 C 212.20077 221.486443 212.408177 220.799856 212.683527 220.131148 C 212.962453 219.466017 213.298595 218.829493 213.699105 218.232305 C 214.10319 217.631541 214.557339 217.073688 215.068704 216.562324 C 215.580068 216.054535 216.134345 215.59681 216.735109 215.196301 C 217.335873 214.795791 217.96882 214.456074 218.637528 214.180723 C 219.306236 213.901797 219.992823 213.694391 220.700867 213.554928 C 221.40891 213.411889 222.124105 213.340369 222.846452 213.340369 C 223.5688 213.340369 224.283995 213.411889 224.992038 213.554928 C 225.700082 213.694391 226.390245 213.901797 227.055377 214.180723 C 227.724084 214.456074 228.357032 214.795791 228.957796 215.196301 C 229.55856 215.59681 230.112837 216.054535 230.624201 216.562324 C 231.135566 217.073688 231.593291 217.631541 231.9938 218.232305 C 232.39431 218.829493 232.734027 219.466017 233.009378 220.131148 C 233.284728 220.799856 233.49571 221.486443 233.635174 222.194487 C 233.778213 222.906106 233.846156 223.621301 233.846156 224.343649 Z M 233.846156 224.343649 " stroke="#17142b" stroke-width="3" stroke-opacity="1" stroke-miterlimit="10"/></svg>