<svg xmlns="http://www.w3.org/2000/svg" xmlns:xlink="http://www.w3.org/1999/xlink" width="500" zoomAndPan="magnify" viewBox="0 0 375 374.999991" height="500" preserveAspectRatio="xMidYMid meet" version="1.0"><defs><clipPath id="b23b5a7a09"><path d="M 39.882812 211 L 53 211 L 53 225 L 39.882812 225 Z M 39.882812 211 " clip-rule="nonzero"/></clipPath><clipPath id="0daff748c2"><path d="M 320 92 L 335.382812 92 L 335.382812 194 L 320 194 Z M 320 92 " clip-rule="nonzero"/></clipPath><clipPath id="e57f448fa8"><path d="M 324 71 L 335.382812 71 L 335.382812 83 L 324 83 Z M 324 71 " clip-rule="nonzero"/></clipPath></defs><g clip-path="url(#b23b5a7a09)"><path fill="#e04867" d="M 42.917969 224.480469 C 41.84375 221.3125 40.832031 218.089844 39.90625 214.902344 L 49.984375 211.976562 C 50.867188 215.019531 51.835938 218.09375 52.859375 221.117188 Z M 42.917969 224.480469 " fill-opacity="1" fill-rule="nonzero"/></g><path fill="#e04867" d="M 129.722656 339.984375 C 117.847656 331.726562 106.851562 322.4375 96.730469 312.105469 C 86.613281 301.773438 77.550781 290.585938 69.542969 278.542969 C 59.953125 264.15625 52.066406 248.890625 45.890625 232.742188 L 55.695312 229 C 61.589844 244.414062 69.117188 258.988281 78.277344 272.722656 C 85.917969 284.214844 94.566406 294.894531 104.226562 304.757812 C 113.882812 314.617188 124.378906 323.488281 135.714844 331.367188 Z M 129.722656 339.984375 " fill-opacity="1" fill-rule="nonzero"/><g clip-path="url(#0daff748c2)"><path fill="#e04867" d="M 331.109375 193.421875 L 320.796875 191.476562 C 323.34375 177.925781 324.621094 164.257812 324.621094 150.46875 L 324.621094 92.75 L 335.113281 92.75 L 335.113281 150.46875 C 335.113281 164.914062 333.78125 179.230469 331.109375 193.421875 Z M 331.109375 193.421875 " fill-opacity="1" fill-rule="nonzero"/></g><g clip-path="url(#e57f448fa8)"><path fill="#e04867" d="M 324.621094 71.757812 L 335.113281 71.757812 L 335.113281 82.253906 L 324.621094 82.253906 Z M 324.621094 71.757812 " fill-opacity="1" fill-rule="nonzero"/></g><path fill="#e04867" d="M 308.878906 66.511719 L 308.878906 150.46875 C 308.878906 155.488281 308.695312 160.496094 308.324219 165.5 C 307.957031 170.5 307.40625 175.484375 306.671875 180.445312 C 305.9375 185.40625 305.019531 190.335938 303.921875 195.230469 C 302.824219 200.125 301.550781 204.972656 300.097656 209.773438 C 298.644531 214.574219 297.015625 219.316406 295.214844 223.996094 C 293.410156 228.679688 291.4375 233.285156 289.296875 237.824219 C 287.15625 242.359375 284.851562 246.8125 282.382812 251.179688 C 279.914062 255.542969 277.289062 259.816406 274.507812 263.988281 C 271.726562 268.160156 268.792969 272.226562 265.710938 276.1875 C 262.628906 280.144531 259.40625 283.984375 256.042969 287.703125 C 252.679688 291.425781 249.183594 295.019531 245.554688 298.484375 C 241.929688 301.945312 238.179688 305.273438 234.304688 308.460938 C 230.433594 311.648438 226.449219 314.691406 222.351562 317.585938 C 218.257812 320.480469 214.058594 323.222656 209.761719 325.808594 C 205.464844 328.394531 201.078125 330.820312 196.601562 333.085938 C 192.125 335.351562 187.570312 337.445312 182.941406 339.375 C 178.308594 337.445312 173.757812 335.351562 169.28125 333.085938 C 164.804688 330.820312 160.417969 328.394531 156.121094 325.808594 C 151.824219 323.222656 147.625 320.480469 143.53125 317.585938 C 139.433594 314.691406 135.449219 311.648438 131.578125 308.460938 C 127.703125 305.273438 123.953125 301.945312 120.324219 298.484375 C 116.699219 295.019531 113.203125 291.425781 109.839844 287.703125 C 106.472656 283.984375 103.25 280.144531 100.171875 276.1875 C 97.089844 272.226562 94.15625 268.160156 91.375 263.988281 C 88.59375 259.816406 85.964844 255.542969 83.496094 251.179688 C 81.03125 246.8125 78.726562 242.359375 76.582031 237.824219 C 74.441406 233.289062 72.472656 228.679688 70.667969 223.996094 C 68.867188 219.316406 67.238281 214.574219 65.785156 209.773438 C 64.332031 204.972656 63.054688 200.125 61.957031 195.230469 C 60.863281 190.335938 59.945312 185.40625 59.210938 180.445312 C 58.476562 175.484375 57.925781 170.5 57.554688 165.5 C 57.1875 160.496094 57.003906 155.488281 57.003906 150.46875 L 57.003906 66.511719 L 182.941406 35.027344 Z M 308.878906 66.511719 " fill-opacity="1" fill-rule="nonzero"/><path fill="#222f99" d="M 282.640625 86.996094 L 282.640625 150.46875 C 282.644531 161.046875 281.714844 171.542969 279.859375 181.953125 C 279.246094 185.382812 278.527344 188.789062 277.714844 192.171875 C 276.898438 195.558594 275.988281 198.917969 274.976562 202.25 C 273.964844 205.582031 272.855469 208.878906 271.652344 212.148438 C 270.445312 215.414062 269.148438 218.644531 267.753906 221.835938 C 266.359375 225.023438 264.875 228.171875 263.296875 231.277344 C 261.71875 234.382812 260.054688 237.4375 258.296875 240.441406 C 256.539062 243.449219 254.699219 246.402344 252.769531 249.300781 C 250.839844 252.199219 248.828125 255.039062 246.730469 257.820312 C 244.636719 260.601562 242.460938 263.316406 240.207031 265.972656 C 237.953125 268.625 235.621094 271.210938 233.21875 273.726562 C 230.8125 276.246094 228.332031 278.691406 225.785156 281.0625 C 223.234375 283.433594 220.621094 285.730469 217.9375 287.949219 C 215.253906 290.167969 212.507812 292.308594 209.699219 294.367188 C 206.890625 296.425781 204.027344 298.398438 201.101562 300.289062 C 198.179688 302.179688 195.203125 303.984375 192.171875 305.703125 C 189.140625 307.417969 186.066406 309.042969 182.941406 310.582031 C 179.222656 308.757812 175.570312 306.804688 171.988281 304.722656 C 168.40625 302.644531 164.898438 300.441406 161.472656 298.117188 C 158.042969 295.792969 154.699219 293.355469 151.4375 290.796875 C 148.179688 288.238281 145.015625 285.570312 141.941406 282.792969 C 138.867188 280.015625 135.894531 277.132812 133.023438 274.148438 C 130.152344 271.164062 127.386719 268.082031 124.730469 264.902344 C 122.074219 261.726562 119.53125 258.460938 117.101562 255.105469 C 114.671875 251.75 112.363281 248.3125 110.171875 244.796875 C 107.984375 241.28125 105.917969 237.691406 103.980469 234.03125 C 102.039062 230.371094 100.230469 226.648438 98.550781 222.859375 C 96.871094 219.074219 95.324219 215.234375 93.914062 211.339844 C 92.5 207.445312 91.226562 203.507812 90.089844 199.523438 C 88.953125 195.539062 87.953125 191.523438 87.097656 187.46875 C 86.238281 183.417969 85.523438 179.339844 84.953125 175.234375 C 84.378906 171.132812 83.949219 167.015625 83.664062 162.882812 C 83.378906 158.75 83.238281 154.613281 83.242188 150.46875 L 83.242188 86.996094 L 182.941406 62.070312 Z M 282.640625 86.996094 " fill-opacity="1" fill-rule="nonzero"/><path fill="#ffffff" d="M 279.859375 181.953125 C 279.246094 185.382812 278.527344 188.789062 277.714844 192.171875 C 276.898438 195.558594 275.988281 198.917969 274.976562 202.25 C 273.964844 205.582031 272.855469 208.878906 271.652344 212.148438 C 270.445312 215.414062 269.148438 218.644531 267.753906 221.835938 C 266.359375 225.023438 264.875 228.171875 263.296875 231.277344 C 261.71875 234.382812 260.054688 237.4375 258.296875 240.441406 C 256.539062 243.449219 254.699219 246.402344 252.769531 249.300781 C 250.839844 252.199219 248.828125 255.039062 246.730469 257.820312 C 244.636719 260.601562 242.460938 263.316406 240.207031 265.972656 C 237.953125 268.625 235.621094 271.210938 233.21875 273.726562 C 230.8125 276.246094 228.332031 278.691406 225.785156 281.0625 C 223.234375 283.433594 220.621094 285.730469 217.9375 287.949219 C 215.253906 290.167969 212.507812 292.308594 209.699219 294.367188 C 206.890625 296.425781 204.027344 298.398438 201.101562 300.289062 C 198.179688 302.179688 195.203125 303.984375 192.171875 305.703125 C 189.140625 307.417969 186.066406 309.042969 182.941406 310.582031 L 182.941406 181.953125 Z M 279.859375 181.953125 " fill-opacity="1" fill-rule="nonzero"/><path fill="#ffffff" d="M 182.941406 62.070312 L 182.941406 181.953125 L 86.023438 181.953125 C 84.164062 171.542969 83.238281 161.046875 83.242188 150.46875 L 83.242188 86.996094 Z M 182.941406 62.070312 " fill-opacity="1" fill-rule="nonzero"/></svg>