<svg xmlns="http://www.w3.org/2000/svg" xmlns:xlink="http://www.w3.org/1999/xlink" width="500" zoomAndPan="magnify" viewBox="0 0 375 374.999991" height="500" preserveAspectRatio="xMidYMid meet" version="1.0"><defs><clipPath id="1fb57c50c8"><path d="M 76.160156 205 L 86 205 L 86 216 L 76.160156 216 Z M 76.160156 205 " clip-rule="nonzero"/></clipPath><clipPath id="bd9e39f14e"><path d="M 80 218 L 149 218 L 149 302.640625 L 80 302.640625 Z M 80 218 " clip-rule="nonzero"/></clipPath><clipPath id="61fec8af1f"><path d="M 288 116 L 298.910156 116 L 298.910156 192 L 288 192 Z M 288 116 " clip-rule="nonzero"/></clipPath><clipPath id="8aa58d7240"><path d="M 290 100 L 298.910156 100 L 298.910156 109 L 290 109 Z M 290 100 " clip-rule="nonzero"/></clipPath><clipPath id="a114cef24e"><path d="M 89 72.390625 L 280 72.390625 L 280 302.640625 L 89 302.640625 Z M 89 72.390625 " clip-rule="nonzero"/></clipPath></defs><g clip-path="url(#1fb57c50c8)"><path fill="#e04867" d="M 78.445312 215.394531 C 77.636719 213.003906 76.875 210.574219 76.175781 208.171875 L 83.777344 205.960938 C 84.445312 208.257812 85.171875 210.578125 85.945312 212.855469 Z M 78.445312 215.394531 " fill-opacity="1" fill-rule="nonzero"/></g><g clip-path="url(#bd9e39f14e)"><path fill="#e04867" d="M 143.917969 302.511719 C 134.960938 296.285156 126.667969 289.277344 119.035156 281.484375 C 111.402344 273.691406 104.566406 265.253906 98.53125 256.171875 C 91.292969 245.320312 85.347656 233.804688 80.691406 221.625 L 88.085938 218.800781 C 92.53125 230.429688 98.207031 241.421875 105.117188 251.78125 C 110.878906 260.449219 117.402344 268.503906 124.6875 275.941406 C 131.972656 283.378906 139.890625 290.070312 148.4375 296.011719 Z M 143.917969 302.511719 " fill-opacity="1" fill-rule="nonzero"/></g><g clip-path="url(#61fec8af1f)"><path fill="#e04867" d="M 295.816406 191.96875 L 288.039062 190.5 C 289.960938 180.28125 290.921875 169.96875 290.921875 159.570312 L 290.921875 116.035156 L 298.839844 116.035156 L 298.839844 159.570312 C 298.839844 170.464844 297.832031 181.261719 295.816406 191.96875 Z M 295.816406 191.96875 " fill-opacity="1" fill-rule="nonzero"/></g><g clip-path="url(#8aa58d7240)"><path fill="#e04867" d="M 290.921875 100.203125 L 298.839844 100.203125 L 298.839844 108.117188 L 290.921875 108.117188 Z M 290.921875 100.203125 " fill-opacity="1" fill-rule="nonzero"/></g><g clip-path="url(#a114cef24e)"><path fill="#e04867" d="M 279.050781 96.246094 L 279.050781 159.570312 C 279.050781 163.355469 278.910156 167.132812 278.632812 170.90625 C 278.355469 174.679688 277.9375 178.4375 277.382812 182.179688 C 276.828125 185.921875 276.140625 189.640625 275.3125 193.332031 C 274.484375 197.023438 273.523438 200.679688 272.425781 204.300781 C 271.328125 207.921875 270.101562 211.5 268.742188 215.03125 C 267.382812 218.558594 265.894531 222.035156 264.28125 225.457031 C 262.664062 228.878906 260.925781 232.238281 259.066406 235.53125 C 257.203125 238.824219 255.222656 242.046875 253.125 245.191406 C 251.027344 248.339844 248.816406 251.40625 246.492188 254.394531 C 244.167969 257.378906 241.734375 260.273438 239.199219 263.082031 C 236.660156 265.886719 234.023438 268.597656 231.289062 271.210938 C 228.550781 273.824219 225.722656 276.332031 222.800781 278.738281 C 219.882812 281.140625 216.875 283.4375 213.785156 285.621094 C 210.695312 287.804688 207.53125 289.871094 204.289062 291.820312 C 201.046875 293.773438 197.738281 295.601562 194.363281 297.308594 C 190.988281 299.019531 187.550781 300.597656 184.058594 302.054688 C 180.566406 300.597656 177.132812 299.019531 173.757812 297.308594 C 170.382812 295.601562 167.070312 293.773438 163.832031 291.820312 C 160.589844 289.871094 157.421875 287.804688 154.332031 285.621094 C 151.246094 283.4375 148.238281 281.140625 145.316406 278.738281 C 142.398438 276.332031 139.570312 273.824219 136.832031 271.210938 C 134.09375 268.597656 131.457031 265.886719 128.921875 263.082031 C 126.382812 260.273438 123.953125 257.378906 121.628906 254.394531 C 119.304688 251.40625 117.09375 248.339844 114.996094 245.191406 C 112.898438 242.046875 110.917969 238.824219 109.054688 235.53125 C 107.191406 232.238281 105.453125 228.878906 103.839844 225.457031 C 102.222656 222.035156 100.738281 218.558594 99.378906 215.03125 C 98.019531 211.5 96.789062 207.921875 95.695312 204.300781 C 94.597656 200.679688 93.636719 197.023438 92.808594 193.332031 C 91.980469 189.640625 91.289062 185.921875 90.734375 182.179688 C 90.183594 178.4375 89.765625 174.679688 89.488281 170.90625 C 89.210938 167.132812 89.070312 163.355469 89.070312 159.570312 L 89.070312 96.246094 L 184.058594 72.5 Z M 279.050781 96.246094 " fill-opacity="1" fill-rule="nonzero"/></g><path fill="#222f99" d="M 259.257812 111.695312 L 259.257812 159.570312 C 259.261719 167.550781 258.5625 175.464844 257.160156 183.320312 C 256.234375 188.492188 255.003906 193.59375 253.476562 198.625 C 251.949219 203.65625 250.136719 208.582031 248.03125 213.398438 C 245.929688 218.214844 243.550781 222.894531 240.898438 227.433594 C 238.246094 231.972656 235.339844 236.339844 232.175781 240.539062 C 229.011719 244.738281 225.613281 248.738281 221.980469 252.539062 C 218.347656 256.339844 214.507812 259.914062 210.457031 263.265625 C 206.40625 266.617188 202.171875 269.71875 197.757812 272.574219 C 193.34375 275.429688 188.777344 278.015625 184.058594 280.335938 C 181.253906 278.960938 178.5 277.488281 175.800781 275.917969 C 173.097656 274.351562 170.453125 272.6875 167.867188 270.9375 C 165.28125 269.183594 162.757812 267.34375 160.300781 265.414062 C 157.839844 263.484375 155.453125 261.472656 153.136719 259.378906 C 150.816406 257.28125 148.578125 255.109375 146.410156 252.855469 C 144.242188 250.605469 142.160156 248.28125 140.15625 245.882812 C 138.152344 243.488281 136.234375 241.023438 134.398438 238.492188 C 132.566406 235.960938 130.824219 233.371094 129.175781 230.71875 C 127.523438 228.066406 125.964844 225.359375 124.503906 222.597656 C 123.039062 219.835938 121.675781 217.027344 120.40625 214.171875 C 119.140625 211.316406 117.976562 208.417969 116.910156 205.480469 C 115.84375 202.542969 114.882812 199.574219 114.027344 196.570312 C 113.167969 193.566406 112.414062 190.535156 111.769531 187.476562 C 111.121094 184.421875 110.582031 181.34375 110.152344 178.25 C 109.71875 175.15625 109.394531 172.050781 109.179688 168.933594 C 108.964844 165.816406 108.859375 162.695312 108.859375 159.570312 L 108.859375 111.695312 L 184.058594 92.894531 Z M 259.257812 111.695312 " fill-opacity="1" fill-rule="nonzero"/><path fill="#ffffff" d="M 257.160156 183.320312 C 256.234375 188.492188 255.003906 193.59375 253.476562 198.625 C 251.949219 203.65625 250.136719 208.582031 248.03125 213.398438 C 245.929688 218.214844 243.550781 222.894531 240.898438 227.433594 C 238.246094 231.972656 235.339844 236.339844 232.175781 240.539062 C 229.011719 244.738281 225.613281 248.738281 221.980469 252.539062 C 218.347656 256.339844 214.507812 259.914062 210.457031 263.265625 C 206.40625 266.617188 202.171875 269.71875 197.757812 272.574219 C 193.34375 275.429688 188.777344 278.015625 184.058594 280.335938 L 184.058594 183.320312 Z M 257.160156 183.320312 " fill-opacity="1" fill-rule="nonzero"/><path fill="#ffffff" d="M 184.058594 92.894531 L 184.058594 183.320312 L 110.957031 183.320312 C 109.558594 175.464844 108.859375 167.550781 108.859375 159.570312 L 108.859375 111.695312 Z M 184.058594 92.894531 " fill-opacity="1" fill-rule="nonzero"/></svg>