<svg xmlns="http://www.w3.org/2000/svg" xmlns:xlink="http://www.w3.org/1999/xlink" width="500" zoomAndPan="magnify" viewBox="0 0 375 374.999991" height="500" preserveAspectRatio="xMidYMid meet" version="1.0"><defs><clipPath id="946a4043ba"><path d="M 65.679688 8.722656 L 309.429688 8.722656 L 309.429688 366.472656 L 65.679688 366.472656 Z M 65.679688 8.722656 " clip-rule="nonzero"/></clipPath></defs><g clip-path="url(#946a4043ba)"><path fill="#d9d9d9" d="M 223.714844 344.019531 C 213.347656 316.015625 202.980469 288.015625 192.613281 260.011719 L 165.445312 363.804688 L 154.441406 344.769531 C 148.648438 334.75 142.859375 324.726562 137.070312 314.707031 L 90.070312 345.789062 L 120.046875 231.277344 C 118.511719 230.78125 117.121094 230.078125 115.855469 229.152344 C 110.609375 225.324219 109.398438 219.015625 108.511719 214.414062 C 108.277344 213.1875 107.945312 211.453125 107.621094 210.464844 C 106.632812 210.144531 104.902344 209.8125 103.675781 209.574219 C 99.070312 208.691406 92.765625 207.476562 88.9375 202.234375 C 85.066406 196.925781 85.851562 190.5 86.425781 185.808594 C 86.570312 184.613281 86.777344 182.933594 86.785156 181.90625 C 85.945312 181.304688 84.453125 180.480469 83.390625 179.890625 C 79.261719 177.609375 73.605469 174.480469 71.585938 168.246094 C 69.574219 162.039062 72.3125 156.207031 74.3125 151.945312 C 74.832031 150.839844 75.5625 149.28125 75.890625 148.296875 C 75.28125 147.476562 74.140625 146.253906 73.328125 145.382812 C 70.097656 141.921875 65.679688 137.183594 65.679688 130.601562 C 65.679688 124.023438 70.097656 119.285156 73.324219 115.824219 C 74.140625 114.953125 75.28125 113.726562 75.890625 112.90625 C 75.5625 111.921875 74.832031 110.367188 74.3125 109.261719 C 72.3125 105 69.574219 99.164062 71.585938 92.957031 C 73.605469 86.722656 79.261719 83.597656 83.390625 81.3125 C 84.453125 80.726562 85.945312 79.898438 86.785156 79.300781 C 86.777344 78.273438 86.570312 76.59375 86.425781 75.394531 C 85.851562 70.707031 85.066406 64.28125 88.933594 58.976562 C 92.765625 53.726562 99.070312 52.515625 103.675781 51.628906 C 104.902344 51.394531 106.632812 51.0625 107.621094 50.738281 C 107.945312 49.75 108.277344 48.019531 108.511719 46.792969 C 109.398438 42.1875 110.609375 35.882812 115.855469 32.054688 C 118.625 30.035156 121.988281 29.054688 126.136719 29.054688 C 128.285156 29.054688 130.410156 29.3125 132.28125 29.542969 C 133.757812 29.722656 135.152344 29.894531 136.1875 29.894531 C 136.789062 29.054688 137.613281 27.566406 138.199219 26.503906 C 140.484375 22.375 143.613281 16.71875 149.84375 14.703125 C 151.28125 14.238281 152.8125 14 154.390625 14 C 158.832031 14 162.714844 15.824219 166.144531 17.429688 C 167.25 17.949219 168.804688 18.679688 169.792969 19.007812 C 170.609375 18.398438 171.835938 17.257812 172.707031 16.445312 C 176.167969 13.21875 180.90625 8.796875 187.484375 8.796875 C 194.0625 8.796875 198.800781 13.214844 202.261719 16.441406 C 203.136719 17.257812 204.363281 18.398438 205.183594 19.007812 C 206.167969 18.679688 207.722656 17.953125 208.828125 17.433594 C 212.253906 15.824219 216.140625 14 220.582031 14 C 222.160156 14 223.691406 14.238281 225.132812 14.703125 C 231.363281 16.71875 234.492188 22.375 236.777344 26.507812 C 237.359375 27.566406 238.183594 29.054688 238.785156 29.894531 C 239.816406 29.894531 241.214844 29.722656 242.691406 29.542969 C 244.5625 29.3125 246.6875 29.054688 248.835938 29.054688 C 252.984375 29.054688 256.34375 30.035156 259.113281 32.050781 C 264.363281 35.878906 265.578125 42.191406 266.460938 46.796875 C 266.699219 48.023438 267.03125 49.75 267.351562 50.738281 C 268.339844 51.0625 270.070312 51.394531 271.296875 51.628906 C 275.898438 52.515625 282.207031 53.726562 286.035156 58.972656 C 289.90625 64.28125 289.121094 70.707031 288.546875 75.398438 C 288.398438 76.59375 288.195312 78.273438 288.1875 79.300781 C 289.027344 79.902344 290.519531 80.726562 291.578125 81.3125 C 295.710938 83.597656 301.371094 86.726562 303.386719 92.964844 C 305.394531 99.164062 302.65625 105 300.65625 109.257812 C 300.136719 110.367188 299.40625 111.921875 299.078125 112.910156 C 299.6875 113.726562 300.828125 114.953125 301.644531 115.824219 C 304.871094 119.285156 309.292969 124.023438 309.292969 130.601562 C 309.292969 137.179688 304.871094 141.917969 301.644531 145.378906 C 300.832031 146.253906 299.6875 147.480469 299.078125 148.300781 C 299.40625 149.285156 300.136719 150.839844 300.65625 151.945312 C 302.65625 156.207031 305.394531 162.039062 303.382812 168.25 C 301.371094 174.480469 295.710938 177.609375 291.578125 179.894531 C 290.519531 180.480469 289.027344 181.304688 288.1875 181.90625 C 288.195312 182.933594 288.398438 184.613281 288.546875 185.808594 C 289.121094 190.5 289.90625 196.925781 286.035156 202.230469 C 282.207031 207.480469 275.898438 208.691406 271.292969 209.578125 C 270.070312 209.8125 268.339844 210.144531 267.351562 210.464844 C 267.03125 211.453125 266.699219 213.183594 266.460938 214.410156 C 265.8125 217.792969 264.984375 222.09375 262.511719 225.65625 L 304.007812 337.75 L 252.605469 313.785156 C 248.921875 323.121094 245.234375 332.457031 241.550781 341.792969 L 231.925781 366.191406 Z M 223.714844 344.019531 " fill-opacity="1" fill-rule="nonzero"/></g><path fill="#222f99" d="M 162.265625 339.5625 C 154.875 326.769531 147.480469 313.976562 140.089844 301.183594 C 128.328125 308.960938 116.566406 316.742188 104.804688 324.519531 C 117.085938 277.609375 129.363281 230.695312 141.640625 183.785156 L 199.101562 198.824219 Z M 237.390625 183.148438 L 181.6875 203.769531 C 198.523438 249.246094 215.355469 294.722656 232.191406 340.199219 C 237.367188 327.082031 242.546875 313.964844 247.722656 300.847656 C 261.113281 307.089844 274.503906 313.332031 287.894531 319.578125 Z M 237.390625 183.148438 " fill-opacity="1" fill-rule="nonzero"/><path fill="#e04867" d="M 187.484375 242.683594 C 181.757812 242.683594 176.796875 233.257812 171.242188 232.386719 C 165.609375 231.507812 157.996094 238.957031 152.625 237.21875 C 147.226562 235.46875 145.429688 224.96875 140.375 222.390625 C 135.347656 219.820312 125.789062 224.523438 121.183594 221.164062 C 116.644531 217.851562 118.191406 207.3125 114.140625 203.261719 C 110.089844 199.210938 99.554688 200.757812 96.238281 196.21875 C 92.878906 191.613281 97.582031 182.054688 95.011719 177.027344 C 92.433594 171.972656 81.933594 170.175781 80.1875 164.777344 C 78.445312 159.40625 85.894531 151.792969 85.015625 146.160156 C 84.148438 140.609375 74.71875 135.644531 74.71875 129.917969 C 74.71875 124.191406 84.148438 119.226562 85.015625 113.675781 C 85.894531 108.042969 78.445312 100.429688 80.1875 95.058594 C 81.933594 89.660156 92.433594 87.863281 95.011719 82.808594 C 97.582031 77.78125 92.878906 68.222656 96.238281 63.617188 C 99.554688 59.078125 110.089844 60.621094 114.140625 56.574219 C 118.191406 52.523438 116.644531 41.984375 121.183594 38.671875 C 125.789062 35.3125 135.347656 40.015625 140.375 37.445312 C 145.429688 34.863281 147.226562 24.367188 152.625 22.617188 C 157.996094 20.878906 165.609375 28.328125 171.242188 27.449219 C 176.796875 26.578125 181.757812 17.152344 187.484375 17.152344 C 193.214844 17.152344 198.175781 26.578125 203.726562 27.449219 C 209.359375 28.328125 216.972656 20.878906 222.347656 22.617188 C 227.746094 24.367188 229.542969 34.867188 234.59375 37.445312 C 239.621094 40.015625 249.179688 35.3125 253.785156 38.671875 C 258.328125 41.984375 256.78125 52.523438 260.832031 56.574219 C 264.878906 60.621094 275.417969 59.078125 278.730469 63.617188 C 282.089844 68.222656 277.386719 77.78125 279.957031 82.808594 C 282.539062 87.863281 293.035156 89.660156 294.785156 95.058594 C 296.523438 100.429688 289.074219 108.042969 289.957031 113.675781 C 290.824219 119.226562 300.25 124.191406 300.25 129.917969 C 300.25 135.644531 290.824219 140.609375 289.957031 146.160156 C 289.074219 151.792969 296.523438 159.40625 294.785156 164.777344 C 293.035156 170.175781 282.539062 171.972656 279.957031 177.027344 C 277.386719 182.054688 282.089844 191.613281 278.730469 196.21875 C 275.417969 200.757812 264.878906 199.214844 260.832031 203.261719 C 256.78125 207.3125 258.328125 217.851562 253.785156 221.164062 C 249.179688 224.523438 239.621094 219.820312 234.59375 222.390625 C 229.542969 224.972656 227.742188 235.46875 222.347656 237.21875 C 216.972656 238.957031 209.359375 231.507812 203.726562 232.386719 C 198.175781 233.257812 193.214844 242.683594 187.484375 242.683594 Z M 187.484375 242.683594 " fill-opacity="1" fill-rule="nonzero"/><path fill="#ffffff" d="M 176.519531 153.480469 C 189.5 135.050781 202.480469 116.625 215.464844 98.195312 L 230.234375 107.59375 C 213.421875 132.1875 196.605469 156.78125 179.792969 181.375 L 144.734375 146.316406 C 148.914062 142.140625 153.089844 137.960938 157.269531 133.78125 C 163.683594 140.347656 170.101562 146.914062 176.519531 153.480469 Z M 212.1875 196.171875 C 231.472656 188.933594 241.421875 175.457031 244.691406 171.027344 C 252.707031 160.167969 255.75 149.8125 256.6875 145.863281 C 257.671875 141.710938 259.679688 130.570312 257.078125 116.828125 C 256.042969 111.363281 254.375 106 252.121094 100.890625 C 251.867188 100.316406 251.199219 100.058594 250.628906 100.3125 C 250.058594 100.5625 249.800781 101.230469 250.050781 101.800781 C 252.238281 106.753906 253.855469 111.953125 254.859375 117.25 C 257.378906 130.566406 255.4375 141.332031 254.488281 145.339844 C 253.582031 149.15625 250.640625 159.160156 242.871094 169.6875 C 239.699219 173.980469 230.050781 187.054688 211.390625 194.054688 C 194.726562 200.308594 179.578125 198.523438 169.804688 195.925781 C 161.582031 193.738281 145.980469 187.816406 133.832031 172.695312 C 129.15625 166.875 118.335938 150.96875 118.882812 129.082031 C 119.03125 123.222656 119.992188 117.371094 121.742188 111.691406 C 121.925781 111.097656 121.589844 110.464844 120.996094 110.28125 C 120.402344 110.097656 119.765625 110.429688 119.582031 111.027344 C 117.773438 116.902344 116.777344 122.957031 116.625 129.023438 C 116.054688 151.65625 127.238281 168.09375 132.070312 174.113281 C 144.621094 189.734375 160.734375 195.851562 169.222656 198.109375 C 174.242188 199.445312 180.636719 200.570312 187.914062 200.570312 C 195.269531 200.570312 203.527344 199.417969 212.1875 196.171875 Z M 188.578125 243.492188 L 163.359375 339.847656 C 163.242188 340.289062 162.871094 340.621094 162.417969 340.679688 C 162.367188 340.6875 162.316406 340.691406 162.265625 340.691406 C 161.867188 340.691406 161.492188 340.480469 161.289062 340.125 L 139.710938 302.789062 L 105.429688 325.464844 C 105.039062 325.722656 104.527344 325.714844 104.148438 325.441406 C 103.765625 325.167969 103.59375 324.6875 103.710938 324.234375 L 130.25 222.84375 C 130.980469 223.164062 131.78125 223.230469 132.539062 223.03125 L 106.648438 321.949219 L 139.464844 300.242188 C 139.652344 300.117188 139.871094 300.054688 140.089844 300.054688 C 140.175781 300.054688 140.261719 300.0625 140.347656 300.082031 C 140.652344 300.15625 140.910156 300.347656 141.066406 300.617188 L 161.867188 336.617188 L 186.246094 243.476562 C 186.992188 243.71875 187.824219 243.722656 188.578125 243.492188 Z M 288.660156 320.410156 C 288.324219 320.71875 287.832031 320.796875 287.417969 320.601562 L 248.332031 302.378906 L 233.242188 340.613281 C 233.074219 341.042969 232.65625 341.328125 232.191406 341.328125 L 232.179688 341.328125 C 231.710938 341.324219 231.296875 341.03125 231.132812 340.589844 L 193.316406 238.4375 C 193.949219 237.984375 194.585938 237.535156 195.230469 237.097656 L 232.226562 337.035156 L 246.671875 300.433594 C 246.785156 300.144531 247.015625 299.914062 247.304688 299.796875 C 247.59375 299.683594 247.917969 299.691406 248.199219 299.824219 L 285.878906 317.390625 L 251.222656 223.773438 C 251.917969 223.652344 252.585938 223.359375 253.070312 222.832031 C 253.121094 222.777344 253.167969 222.714844 253.21875 222.65625 L 288.953125 319.183594 C 289.113281 319.613281 288.996094 320.097656 288.660156 320.410156 Z M 187.484375 243.8125 C 184.023438 243.8125 181.011719 241.007812 178.101562 238.292969 C 175.765625 236.113281 173.351562 233.863281 171.066406 233.503906 C 168.726562 233.140625 165.703125 234.558594 162.78125 235.929688 C 159.210938 237.605469 155.515625 239.339844 152.277344 238.292969 C 149.015625 237.238281 147.035156 233.652344 145.117188 230.1875 C 143.5625 227.375 141.953125 224.464844 139.863281 223.394531 C 137.785156 222.335938 134.5 222.738281 131.320312 223.125 C 127.378906 223.609375 123.300781 224.105469 120.519531 222.074219 C 117.789062 220.085938 117.019531 216.09375 116.277344 212.230469 C 115.664062 209.046875 115.03125 205.753906 113.339844 204.0625 C 111.652344 202.371094 108.355469 201.738281 105.171875 201.125 C 101.3125 200.382812 97.320312 199.613281 95.328125 196.886719 C 93.296875 194.101562 93.792969 190.023438 94.277344 186.082031 C 94.664062 182.902344 95.066406 179.617188 94.007812 177.539062 C 92.9375 175.449219 90.03125 173.839844 87.21875 172.285156 C 83.75 170.367188 80.167969 168.386719 79.109375 165.125 C 78.0625 161.890625 79.796875 158.195312 81.472656 154.621094 C 82.847656 151.699219 84.265625 148.675781 83.898438 146.335938 C 83.542969 144.050781 81.289062 141.636719 79.113281 139.300781 C 76.398438 136.390625 73.589844 133.378906 73.589844 129.917969 C 73.589844 126.457031 76.398438 123.445312 79.113281 120.535156 C 81.289062 118.199219 83.542969 115.785156 83.898438 113.5 C 84.265625 111.160156 82.847656 108.136719 81.472656 105.214844 C 79.796875 101.640625 78.0625 97.945312 79.109375 94.707031 C 80.167969 91.449219 83.75 89.46875 87.21875 87.550781 C 90.03125 85.996094 92.9375 84.386719 94.007812 82.292969 C 95.066406 80.21875 94.664062 76.933594 94.277344 73.753906 C 93.792969 69.8125 93.296875 65.734375 95.328125 62.949219 C 97.320312 60.222656 101.3125 59.453125 105.171875 58.710938 C 108.355469 58.097656 111.648438 57.464844 113.339844 55.773438 C 115.03125 54.082031 115.664062 50.789062 116.277344 47.601562 C 117.019531 43.742188 117.789062 39.75 120.519531 37.757812 C 123.300781 35.730469 127.378906 36.226562 131.320312 36.710938 C 134.5 37.097656 137.785156 37.5 139.863281 36.441406 C 141.953125 35.371094 143.5625 32.460938 145.117188 29.648438 C 147.035156 26.183594 149.015625 22.597656 152.277344 21.542969 C 155.515625 20.496094 159.210938 22.230469 162.78125 23.90625 C 165.703125 25.277344 168.726562 26.699219 171.066406 26.332031 C 173.351562 25.972656 175.765625 23.722656 178.101562 21.542969 C 181.011719 18.828125 184.023438 16.023438 187.484375 16.023438 C 190.949219 16.023438 193.957031 18.828125 196.867188 21.542969 C 199.203125 23.722656 201.617188 25.972656 203.902344 26.332031 C 206.246094 26.699219 209.265625 25.277344 212.1875 23.90625 C 215.761719 22.230469 219.457031 20.496094 222.695312 21.542969 C 225.953125 22.597656 227.9375 26.183594 229.851562 29.648438 C 231.40625 32.464844 233.015625 35.371094 235.109375 36.441406 C 237.183594 37.5 240.472656 37.097656 243.648438 36.710938 C 247.59375 36.226562 251.667969 35.730469 254.453125 37.757812 C 257.183594 39.75 257.949219 43.742188 258.691406 47.601562 C 259.304688 50.789062 259.9375 54.082031 261.628906 55.773438 C 263.320312 57.464844 266.613281 58.097656 269.800781 58.710938 C 273.660156 59.453125 277.652344 60.222656 279.644531 62.949219 C 281.675781 65.734375 281.175781 69.8125 280.695312 73.753906 C 280.304688 76.933594 279.902344 80.21875 280.964844 82.296875 C 282.03125 84.386719 284.941406 85.996094 287.753906 87.550781 C 291.21875 89.46875 294.804688 91.449219 295.859375 94.710938 C 296.90625 97.945312 295.171875 101.640625 293.496094 105.214844 C 292.125 108.136719 290.707031 111.160156 291.074219 113.5 C 291.429688 115.785156 293.679688 118.199219 295.859375 120.535156 C 298.574219 123.445312 301.382812 126.457031 301.382812 129.917969 C 301.382812 133.378906 298.574219 136.390625 295.859375 139.300781 C 293.679688 141.636719 291.429688 144.050781 291.070312 146.335938 C 290.707031 148.675781 292.125 151.699219 293.496094 154.621094 C 295.171875 158.195312 296.90625 161.890625 295.859375 165.125 C 294.804688 168.386719 291.21875 170.367188 287.753906 172.285156 C 284.941406 173.839844 282.03125 175.449219 280.964844 177.542969 C 279.902344 179.617188 280.304688 182.902344 280.695312 186.082031 C 281.175781 190.023438 281.675781 194.101562 279.644531 196.886719 C 277.652344 199.613281 273.660156 200.382812 269.800781 201.125 C 266.613281 201.738281 263.320312 202.371094 261.628906 204.0625 C 259.9375 205.753906 259.304688 209.046875 258.691406 212.234375 C 257.949219 216.09375 257.183594 220.085938 254.453125 222.074219 C 251.667969 224.109375 247.589844 223.609375 243.648438 223.125 C 240.46875 222.738281 237.183594 222.335938 235.109375 223.394531 C 233.015625 224.464844 231.40625 227.371094 229.851562 230.1875 C 227.933594 233.652344 225.953125 237.238281 222.695312 238.292969 C 219.453125 239.339844 215.761719 237.605469 212.1875 235.929688 C 209.265625 234.558594 206.246094 233.140625 203.902344 233.503906 C 201.617188 233.863281 199.203125 236.113281 196.867188 238.292969 C 193.957031 241.007812 190.949219 243.8125 187.484375 243.8125 Z M 170.28125 231.1875 C 170.664062 231.1875 171.042969 231.214844 171.417969 231.273438 C 174.386719 231.734375 177.058594 234.226562 179.644531 236.640625 C 182.234375 239.054688 184.914062 241.554688 187.484375 241.554688 C 190.058594 241.554688 192.734375 239.054688 195.328125 236.640625 C 197.910156 234.226562 200.582031 231.734375 203.554688 231.273438 C 206.578125 230.796875 209.917969 232.367188 213.148438 233.882812 C 216.324219 235.375 219.609375 236.917969 222 236.140625 C 224.40625 235.363281 226.171875 232.175781 227.875 229.09375 C 229.59375 225.980469 231.371094 222.765625 234.078125 221.382812 C 236.769531 220.007812 240.40625 220.453125 243.921875 220.882812 C 247.429688 221.3125 251.058594 221.757812 253.121094 220.25 C 255.132812 218.78125 255.8125 215.234375 256.472656 211.804688 C 257.148438 208.285156 257.851562 204.644531 260.03125 202.464844 C 262.210938 200.28125 265.851562 199.582031 269.371094 198.90625 C 272.804688 198.246094 276.351562 197.5625 277.816406 195.554688 C 279.324219 193.492188 278.878906 189.863281 278.449219 186.355469 C 278.019531 182.839844 277.574219 179.203125 278.949219 176.511719 C 280.332031 173.804688 283.550781 172.027344 286.660156 170.308594 C 289.742188 168.601562 292.929688 166.839844 293.707031 164.429688 C 294.484375 162.042969 292.941406 158.757812 291.449219 155.582031 C 289.933594 152.351562 288.367188 149.011719 288.839844 145.988281 C 289.304688 143.015625 291.796875 140.34375 294.207031 137.761719 C 296.621094 135.167969 299.121094 132.488281 299.121094 129.917969 C 299.121094 127.347656 296.621094 124.667969 294.207031 122.078125 C 291.796875 119.492188 289.304688 116.820312 288.839844 113.847656 C 288.367188 110.824219 289.933594 107.484375 291.449219 104.253906 C 292.941406 101.078125 294.484375 97.792969 293.710938 95.40625 C 292.929688 92.996094 289.742188 91.234375 286.660156 89.527344 C 283.550781 87.808594 280.332031 86.03125 278.949219 83.324219 C 277.574219 80.632812 278.019531 76.996094 278.449219 73.480469 C 278.878906 69.972656 279.324219 66.34375 277.816406 64.28125 C 276.351562 62.273438 272.804688 61.589844 269.371094 60.929688 C 265.851562 60.253906 262.210938 59.550781 260.03125 57.371094 C 257.851562 55.191406 257.148438 51.550781 256.472656 48.03125 C 255.8125 44.601562 255.128906 41.050781 253.121094 39.585938 C 251.058594 38.082031 247.429688 38.523438 243.921875 38.953125 C 240.40625 39.382812 236.769531 39.828125 234.082031 38.453125 C 231.371094 37.070312 229.59375 33.855469 227.875 30.742188 C 226.171875 27.660156 224.40625 24.472656 222 23.695312 C 219.605469 22.921875 216.324219 24.460938 213.148438 25.953125 C 209.917969 27.46875 206.578125 29.035156 203.554688 28.5625 C 200.582031 28.101562 197.910156 25.609375 195.328125 23.199219 C 192.738281 20.78125 190.058594 18.28125 187.484375 18.28125 C 184.914062 18.28125 182.234375 20.78125 179.644531 23.195312 C 177.058594 25.609375 174.386719 28.101562 171.417969 28.5625 C 168.394531 29.035156 165.050781 27.46875 161.824219 25.953125 C 158.644531 24.460938 155.363281 22.921875 152.972656 23.695312 C 150.5625 24.472656 148.800781 27.660156 147.097656 30.742188 C 145.375 33.855469 143.597656 37.070312 140.890625 38.453125 C 138.199219 39.828125 134.5625 39.382812 131.046875 38.953125 C 127.539062 38.523438 123.914062 38.082031 121.851562 39.585938 C 119.839844 41.050781 119.15625 44.601562 118.496094 48.03125 C 117.820312 51.550781 117.121094 55.191406 114.9375 57.371094 C 112.757812 59.550781 109.117188 60.253906 105.597656 60.929688 C 102.167969 61.589844 98.621094 62.273438 97.152344 64.28125 C 95.648438 66.34375 96.089844 69.972656 96.519531 73.480469 C 96.949219 76.996094 97.394531 80.632812 96.019531 83.324219 C 94.636719 86.03125 91.421875 87.808594 88.3125 89.527344 C 85.230469 91.234375 82.042969 92.996094 81.261719 95.40625 C 80.488281 97.792969 82.027344 101.078125 83.519531 104.253906 C 85.035156 107.484375 86.605469 110.824219 86.132812 113.847656 C 85.667969 116.820312 83.175781 119.492188 80.765625 122.078125 C 78.347656 124.667969 75.847656 127.347656 75.847656 129.917969 C 75.847656 132.488281 78.347656 135.167969 80.765625 137.757812 C 83.175781 140.34375 85.667969 143.015625 86.132812 145.988281 C 86.605469 149.011719 85.035156 152.351562 83.519531 155.582031 C 82.027344 158.757812 80.488281 162.042969 81.261719 164.429688 C 82.042969 166.839844 85.226562 168.601562 88.3125 170.308594 C 91.421875 172.027344 94.636719 173.804688 96.019531 176.511719 C 97.394531 179.203125 96.949219 182.839844 96.519531 186.355469 C 96.089844 189.863281 95.648438 193.492188 97.152344 195.554688 C 98.621094 197.5625 102.167969 198.246094 105.597656 198.90625 C 109.117188 199.582031 112.757812 200.28125 114.9375 202.464844 C 117.121094 204.644531 117.820312 208.285156 118.496094 211.804688 C 119.15625 215.234375 119.839844 218.785156 121.851562 220.25 C 123.914062 221.753906 127.539062 221.3125 131.046875 220.882812 C 134.5625 220.453125 138.199219 220.007812 140.890625 221.382812 C 143.597656 222.765625 145.375 225.980469 147.09375 229.09375 C 148.800781 232.175781 150.5625 235.363281 152.972656 236.140625 C 155.363281 236.917969 158.644531 235.375 161.820312 233.882812 C 164.652344 232.554688 167.566406 231.1875 170.28125 231.1875 Z M 187.484375 220.25 C 137.675781 220.25 97.15625 179.726562 97.15625 129.917969 C 97.15625 80.109375 137.675781 39.585938 187.484375 39.585938 C 237.292969 39.585938 277.816406 80.109375 277.816406 129.917969 C 277.816406 179.726562 237.292969 220.25 187.484375 220.25 Z M 187.484375 41.847656 C 138.921875 41.847656 99.414062 81.355469 99.414062 129.917969 C 99.414062 178.480469 138.921875 217.988281 187.484375 217.988281 C 236.046875 217.988281 275.554688 178.480469 275.554688 129.917969 C 275.554688 81.355469 236.046875 41.847656 187.484375 41.847656 Z M 124.699219 92.578125 C 124.5 92.363281 124.28125 92.183594 124.078125 92 C 123.859375 91.804688 123.664062 91.601562 123.4375 91.4375 C 123.203125 91.265625 122.96875 91.113281 122.730469 90.976562 C 122.476562 90.832031 122.226562 90.703125 121.96875 90.601562 C 121.699219 90.492188 121.441406 90.351562 121.171875 90.289062 C 120.890625 90.222656 120.597656 90.261719 120.320312 90.242188 C 120.035156 90.226562 119.757812 90.230469 119.476562 90.261719 C 119.195312 90.292969 118.902344 90.273438 118.628906 90.355469 C 118.359375 90.4375 118.109375 90.585938 117.851562 90.710938 C 117.601562 90.835938 117.382812 91.015625 117.144531 91.183594 C 116.917969 91.347656 116.664062 91.480469 116.453125 91.683594 C 116.25 91.875 116.101562 92.121094 115.914062 92.347656 C 115.738281 92.558594 115.582031 92.792969 115.421875 93.035156 C 115.269531 93.265625 115.074219 93.476562 114.933594 93.734375 C 114.808594 93.964844 114.691406 94.203125 114.574219 94.433594 C 114.453125 94.667969 114.355469 94.910156 114.238281 95.144531 C 114.121094 95.382812 113.949219 95.585938 113.832031 95.824219 C 113.71875 96.058594 113.683594 96.332031 113.566406 96.570312 C 113.453125 96.808594 113.304688 97.03125 113.1875 97.269531 C 113.074219 97.503906 112.902344 97.71875 112.785156 97.957031 C 112.648438 98.300781 112.574219 98.613281 112.457031 98.859375 C 112.277344 99.238281 112.109375 99.507812 112.058594 99.738281 C 111.992188 100.042969 112.09375 100.292969 112.457031 100.558594 C 112.652344 100.703125 112.941406 100.828125 113.308594 101.015625 C 113.546875 101.136719 113.804688 101.25 114.0625 101.382812 C 114.304688 101.503906 114.511719 101.714844 114.765625 101.84375 C 115.011719 101.96875 115.304688 102.015625 115.558594 102.144531 C 115.804688 102.269531 116.039062 102.433594 116.289062 102.5625 C 116.539062 102.6875 116.816406 102.757812 117.070312 102.886719 C 117.320312 103.011719 117.519531 103.242188 117.765625 103.367188 C 118.019531 103.496094 118.300781 103.558594 118.546875 103.679688 C 118.796875 103.808594 119.023438 103.976562 119.269531 104.101562 C 119.523438 104.226562 119.785156 104.324219 120.03125 104.445312 C 120.285156 104.574219 120.53125 104.707031 120.773438 104.824219 C 121.03125 104.953125 121.289062 105.058594 121.53125 105.175781 C 121.765625 105.289062 122 105.445312 122.269531 105.578125 C 122.507812 105.695312 122.804688 105.730469 123.066406 105.855469 C 123.3125 105.980469 123.53125 106.171875 123.789062 106.296875 C 124.035156 106.421875 124.3125 106.5 124.566406 106.625 C 124.816406 106.75 125.042969 106.929688 125.292969 107.054688 C 125.542969 107.179688 125.800781 107.296875 126.046875 107.417969 C 126.300781 107.546875 126.5625 107.65625 126.808594 107.777344 C 127.066406 107.90625 127.3125 108.039062 127.554688 108.160156 C 127.816406 108.292969 128.074219 108.402344 128.3125 108.523438 C 128.644531 108.65625 128.898438 108.816406 129.125 108.835938 C 129.476562 108.871094 129.691406 108.683594 129.882812 108.492188 C 130.058594 108.320312 130.191406 108.089844 130.332031 107.78125 C 130.4375 107.546875 130.628906 107.3125 130.757812 107.015625 C 130.867188 106.769531 130.914062 106.472656 131.0625 106.195312 C 131.210938 105.925781 131.378906 105.675781 131.515625 105.40625 C 131.65625 105.136719 131.820312 104.878906 131.953125 104.609375 C 132.085938 104.335938 132.199219 104.054688 132.328125 103.78125 C 132.457031 103.507812 132.535156 103.210938 132.65625 102.933594 C 132.777344 102.65625 132.972656 102.410156 133.089844 102.128906 C 133.207031 101.851562 133.308594 101.5625 133.421875 101.277344 C 133.527344 101.015625 133.554688 100.734375 133.621094 100.46875 C 133.691406 100.195312 133.738281 99.925781 133.769531 99.65625 C 133.800781 99.375 133.878906 99.105469 133.867188 98.832031 C 133.859375 98.550781 133.8125 98.277344 133.757812 98.003906 C 133.707031 97.730469 133.625 97.464844 133.527344 97.207031 C 133.433594 96.945312 133.28125 96.710938 133.144531 96.46875 C 133.011719 96.230469 132.898438 95.976562 132.726562 95.753906 C 132.558594 95.535156 132.414062 95.289062 132.210938 95.089844 C 132.015625 94.902344 131.769531 94.757812 131.542969 94.585938 C 131.320312 94.425781 131.070312 94.308594 130.820312 94.164062 C 130.550781 94.011719 130.28125 93.871094 130.007812 93.75 C 129.722656 93.625 129.429688 93.550781 129.140625 93.464844 C 128.84375 93.378906 128.570312 93.207031 128.269531 93.164062 C 127.964844 93.125 127.65625 93.199219 127.347656 93.203125 C 127.042969 93.210938 126.734375 93.171875 126.425781 93.226562 C 126.132812 93.28125 125.84375 93.382812 125.546875 93.488281 C 125.203125 93.109375 124.949219 92.847656 124.699219 92.578125 Z M 119.832031 100.511719 C 119.546875 100.375 119.238281 100.316406 118.976562 100.1875 C 118.695312 100.050781 118.4375 99.886719 118.175781 99.761719 C 117.894531 99.625 117.636719 99.464844 117.375 99.335938 C 117.097656 99.199219 116.820312 99.085938 116.550781 98.957031 C 116.550781 98.671875 116.519531 98.402344 116.5625 98.144531 C 116.605469 97.871094 116.746094 97.628906 116.828125 97.378906 C 116.917969 97.121094 117.007812 96.871094 117.128906 96.636719 C 117.253906 96.394531 117.34375 96.132812 117.496094 95.914062 C 117.648438 95.691406 117.808594 95.472656 117.980469 95.265625 C 118.152344 95.058594 118.382812 94.898438 118.566406 94.703125 C 118.78125 94.464844 119.007812 94.269531 119.253906 94.125 C 119.527344 93.964844 119.808594 93.855469 120.09375 93.8125 C 120.394531 93.765625 120.710938 93.738281 121.003906 93.8125 C 121.285156 93.886719 121.550781 94.0625 121.800781 94.25 C 122.042969 94.429688 122.191406 94.660156 122.34375 94.867188 C 122.511719 95.101562 122.664062 95.320312 122.71875 95.585938 C 122.773438 95.847656 122.8125 96.128906 122.761719 96.417969 C 122.714844 96.671875 122.621094 96.941406 122.496094 97.210938 C 122.378906 97.460938 122.285156 97.722656 122.164062 97.976562 C 122.042969 98.222656 121.828125 98.421875 121.703125 98.679688 C 121.582031 98.921875 121.542969 99.210938 121.417969 99.46875 C 121.296875 99.710938 121.113281 99.933594 120.984375 100.191406 C 120.867188 100.433594 120.765625 100.691406 120.636719 100.953125 C 120.347656 100.8125 120.097656 100.640625 119.832031 100.511719 Z M 127.304688 104.105469 C 127.050781 103.980469 126.804688 103.851562 126.550781 103.726562 C 126.296875 103.605469 126.085938 103.398438 125.839844 103.277344 C 125.582031 103.152344 125.292969 103.105469 125.046875 102.984375 C 124.789062 102.859375 124.550781 102.707031 124.308594 102.589844 C 124.046875 102.460938 123.816406 102.324219 123.582031 102.207031 C 123.6875 101.9375 123.777344 101.679688 123.886719 101.421875 C 124.003906 101.152344 124.074219 100.871094 124.195312 100.617188 C 124.320312 100.355469 124.519531 100.140625 124.65625 99.890625 C 124.792969 99.636719 124.921875 99.386719 125.074219 99.140625 C 125.222656 98.898438 125.332031 98.628906 125.496094 98.390625 C 125.660156 98.160156 125.828125 97.925781 126.003906 97.695312 C 126.210938 97.433594 126.484375 97.269531 126.722656 97.109375 C 126.988281 96.925781 127.261719 96.796875 127.546875 96.730469 C 127.851562 96.664062 128.160156 96.65625 128.464844 96.710938 C 128.757812 96.769531 129.070312 96.84375 129.339844 97.003906 C 129.617188 97.167969 129.824219 97.394531 130 97.609375 C 130.191406 97.84375 130.265625 98.121094 130.332031 98.417969 C 130.390625 98.6875 130.445312 98.96875 130.390625 99.292969 C 130.347656 99.558594 130.304688 99.859375 130.179688 100.164062 C 130.082031 100.40625 129.972656 100.648438 129.863281 100.890625 C 129.757812 101.125 129.671875 101.375 129.554688 101.617188 C 129.441406 101.847656 129.226562 102.039062 129.109375 102.277344 C 128.992188 102.507812 128.957031 102.785156 128.835938 103.027344 C 128.71875 103.257812 128.535156 103.460938 128.414062 103.703125 C 128.300781 103.933594 128.203125 104.179688 128.085938 104.421875 C 127.832031 104.300781 127.558594 104.226562 127.304688 104.105469 Z M 128.328125 79.878906 C 128.527344 79.652344 128.699219 79.410156 128.894531 79.1875 C 129.089844 78.960938 129.347656 78.789062 129.542969 78.570312 C 129.738281 78.34375 129.90625 78.101562 130.101562 77.878906 C 130.296875 77.65625 130.523438 77.457031 130.714844 77.238281 C 130.914062 77.011719 131.09375 76.777344 131.289062 76.554688 C 131.484375 76.332031 131.625 76.0625 131.820312 75.839844 C 132.019531 75.617188 132.214844 75.394531 132.414062 75.175781 C 132.664062 74.890625 132.894531 74.679688 133.027344 74.453125 C 133.199219 74.15625 133.226562 73.90625 133.085938 73.574219 C 132.992188 73.351562 132.847656 73.09375 132.5625 72.796875 C 132.316406 72.582031 132.113281 72.351562 131.914062 72.171875 C 131.667969 71.949219 131.429688 71.789062 131.132812 71.8125 C 130.910156 71.828125 130.621094 71.902344 130.304688 72.164062 C 130.113281 72.324219 129.957031 72.59375 129.71875 72.867188 C 129.53125 73.070312 129.347656 73.277344 129.167969 73.484375 C 128.988281 73.695312 128.75 73.859375 128.578125 74.070312 C 128.402344 74.285156 128.265625 74.53125 128.09375 74.746094 C 127.921875 74.964844 127.78125 75.207031 127.613281 75.421875 C 127.441406 75.640625 127.226562 75.824219 127.054688 76.039062 C 126.867188 76.273438 126.714844 76.542969 126.515625 76.765625 C 126.316406 76.992188 126.117188 77.222656 125.90625 77.441406 C 125.699219 77.65625 125.441406 77.832031 125.226562 78.050781 C 125.015625 78.265625 124.808594 78.484375 124.59375 78.703125 C 124.386719 78.917969 124.191406 79.148438 123.980469 79.375 C 123.777344 79.59375 123.523438 79.777344 123.320312 80.011719 C 123.125 80.238281 123.003906 80.5 122.816406 80.742188 C 123.023438 80.929688 123.191406 81.117188 123.398438 81.308594 C 123.605469 81.496094 123.777344 81.726562 123.984375 81.914062 C 124.191406 82.105469 124.441406 82.246094 124.648438 82.4375 C 124.859375 82.625 125.046875 82.835938 125.253906 83.023438 C 125.464844 83.214844 125.671875 83.398438 125.882812 83.589844 C 126.089844 83.777344 126.324219 83.9375 126.53125 84.125 C 126.738281 84.3125 126.960938 84.488281 127.167969 84.675781 C 127.375 84.863281 127.523438 85.121094 127.730469 85.308594 C 127.941406 85.496094 128.210938 85.613281 128.417969 85.800781 C 128.625 85.988281 128.808594 86.203125 129.015625 86.390625 C 129.222656 86.578125 129.472656 86.71875 129.679688 86.902344 C 129.890625 87.089844 130.019531 87.363281 130.226562 87.546875 C 130.433594 87.734375 130.691406 87.867188 130.898438 88.054688 C 131.105469 88.238281 131.277344 88.464844 131.488281 88.648438 C 131.695312 88.835938 131.921875 89 132.128906 89.183594 C 132.339844 89.371094 132.539062 89.5625 132.746094 89.75 C 132.953125 89.933594 133.171875 90.105469 133.378906 90.289062 C 133.589844 90.476562 133.769531 90.691406 133.980469 90.875 C 134.191406 91.058594 134.464844 91.167969 134.671875 91.351562 C 134.882812 91.539062 135.042969 91.777344 135.25 91.960938 C 135.460938 92.148438 135.703125 92.289062 135.914062 92.472656 C 136.121094 92.65625 136.292969 92.882812 136.5 93.066406 C 136.683594 93.226562 137.097656 93.277344 137.496094 93.25 C 137.886719 93.226562 138.261719 93.101562 138.433594 92.925781 C 138.625 92.726562 138.820312 92.53125 139.011719 92.332031 C 139.203125 92.136719 139.382812 91.925781 139.574219 91.726562 C 139.765625 91.527344 140.019531 91.390625 140.210938 91.1875 C 140.402344 90.988281 140.507812 90.710938 140.695312 90.511719 C 140.886719 90.308594 141.078125 90.113281 141.265625 89.910156 C 141.453125 89.707031 141.703125 89.5625 141.890625 89.359375 C 142.078125 89.15625 142.199219 88.894531 142.386719 88.691406 C 142.570312 88.484375 142.777344 88.300781 142.960938 88.097656 C 143.144531 87.890625 143.347656 87.703125 143.527344 87.496094 C 143.710938 87.289062 143.875 87.066406 144.054688 86.855469 C 144.234375 86.648438 144.375 86.40625 144.550781 86.195312 C 144.730469 85.984375 144.964844 85.824219 145.144531 85.609375 C 145.339844 85.371094 145.429688 85.121094 145.449219 84.898438 C 145.46875 84.636719 145.328125 84.421875 145.15625 84.214844 C 145.003906 84.035156 144.800781 83.894531 144.546875 83.78125 C 144.324219 83.679688 144.09375 83.542969 143.828125 83.507812 C 143.53125 83.46875 143.253906 83.4375 142.996094 83.449219 C 142.726562 83.464844 142.480469 83.550781 142.246094 83.777344 C 142.023438 83.996094 141.839844 84.25 141.628906 84.480469 C 141.414062 84.710938 141.175781 84.914062 140.972656 85.152344 C 140.769531 85.390625 140.523438 85.597656 140.324219 85.835938 C 140.121094 86.078125 139.960938 86.347656 139.757812 86.585938 C 139.554688 86.824219 139.378906 87.089844 139.167969 87.320312 C 138.960938 87.550781 138.753906 87.777344 138.558594 88 C 138.339844 88.246094 138.152344 88.5 137.976562 88.703125 C 137.625 89.109375 137.777344 89.210938 137.332031 89.300781 C 136.957031 89.378906 137.0625 89.207031 136.695312 88.929688 C 136.511719 88.792969 136.34375 88.574219 136.125 88.398438 C 135.929688 88.242188 135.710938 88.09375 135.511719 87.921875 C 135.3125 87.75 135.132812 87.558594 134.953125 87.382812 C 134.753906 87.195312 134.527344 87.042969 134.332031 86.832031 C 134.160156 86.644531 133.984375 86.425781 133.808594 86.179688 C 133.988281 85.972656 134.203125 85.78125 134.386719 85.574219 C 134.574219 85.367188 134.734375 85.140625 134.921875 84.933594 C 135.109375 84.726562 135.3125 84.535156 135.492188 84.328125 C 135.679688 84.121094 135.871094 83.921875 136.050781 83.714844 C 136.230469 83.503906 136.378906 83.265625 136.550781 83.054688 C 136.730469 82.839844 136.933594 82.65625 137.101562 82.441406 C 137.300781 82.214844 137.410156 81.964844 137.550781 81.777344 C 137.75 81.519531 137.953125 81.332031 138.023438 81.136719 C 138.132812 80.847656 138.109375 80.574219 137.957031 80.34375 C 137.839844 80.164062 137.589844 80.046875 137.324219 79.851562 C 137.136719 79.714844 136.949219 79.511719 136.691406 79.355469 C 136.484375 79.226562 136.234375 79.078125 135.980469 78.929688 C 135.769531 79.144531 135.597656 79.429688 135.390625 79.648438 C 135.179688 79.871094 134.929688 80.054688 134.71875 80.277344 C 134.507812 80.496094 134.273438 80.695312 134.0625 80.914062 C 133.851562 81.132812 133.703125 81.417969 133.488281 81.632812 C 133.273438 81.847656 132.980469 81.988281 132.761719 82.195312 C 132.578125 82.371094 132.464844 82.625 132.292969 82.804688 C 132.105469 83.003906 131.921875 83.183594 131.773438 83.355469 C 131.480469 83.691406 131.648438 83.957031 131.269531 83.96875 C 130.84375 83.984375 130.976562 83.699219 130.601562 83.394531 C 130.398438 83.230469 130.144531 83.070312 129.921875 82.878906 C 129.691406 82.6875 129.503906 82.449219 129.316406 82.28125 C 129.132812 82.117188 128.972656 81.933594 128.789062 81.726562 C 128.632812 81.550781 128.421875 81.398438 128.234375 81.179688 C 128.085938 81.003906 127.964844 80.785156 127.773438 80.574219 C 127.972656 80.347656 128.132812 80.105469 128.328125 79.878906 Z M 142.25 68.539062 C 142.164062 68.277344 142.132812 68.003906 142.136719 67.722656 C 142.144531 67.449219 142.242188 67.195312 142.335938 66.925781 C 142.425781 66.671875 142.476562 66.390625 142.644531 66.152344 C 142.792969 65.933594 143.003906 65.75 143.222656 65.554688 C 143.457031 65.34375 143.695312 65.132812 143.980469 65.011719 C 144.261719 64.886719 144.574219 64.808594 144.882812 64.75 C 145.1875 64.691406 145.5 64.648438 145.808594 64.628906 C 146.125 64.605469 146.441406 64.59375 146.742188 64.589844 C 147.074219 64.582031 147.386719 64.578125 147.664062 64.554688 C 148.039062 64.523438 148.265625 64.460938 148.445312 64.363281 C 148.683594 64.230469 148.84375 64.074219 148.910156 63.734375 C 148.953125 63.515625 148.917969 63.234375 148.960938 62.894531 C 148.996094 62.65625 148.96875 62.269531 148.886719 61.90625 C 148.796875 61.511719 148.675781 61.09375 148.386719 61.070312 C 147.828125 61.023438 147.605469 61.03125 147.320312 61.027344 C 147.085938 61.023438 146.800781 61.027344 146.25 61.058594 C 145.925781 61.078125 145.625 61.164062 145.328125 61.203125 C 145.015625 61.246094 144.714844 61.3125 144.421875 61.390625 C 144.125 61.464844 143.820312 61.527344 143.53125 61.640625 C 143.253906 61.753906 142.949219 61.835938 142.667969 61.992188 C 142.40625 62.132812 142.183594 62.367188 141.914062 62.550781 C 141.671875 62.710938 141.453125 62.894531 141.234375 63.082031 C 141.011719 63.265625 140.78125 63.441406 140.585938 63.648438 C 140.382812 63.855469 140.203125 64.078125 140.035156 64.308594 C 139.859375 64.542969 139.730469 64.796875 139.589844 65.046875 C 139.445312 65.296875 139.296875 65.542969 139.191406 65.808594 C 139.085938 66.078125 139.019531 66.355469 138.957031 66.636719 C 138.890625 66.914062 138.769531 67.1875 138.75 67.480469 C 138.730469 67.761719 138.808594 68.050781 138.832031 68.34375 C 138.855469 68.625 138.851562 68.917969 138.921875 69.207031 C 138.984375 69.480469 139.082031 69.753906 139.191406 70.03125 C 139.292969 70.292969 139.394531 70.566406 139.535156 70.832031 C 139.667969 71.078125 139.835938 71.316406 140.003906 71.566406 C 140.171875 71.8125 140.347656 72.058594 140.550781 72.269531 C 140.757812 72.484375 140.984375 72.6875 141.226562 72.859375 C 141.46875 73.03125 141.746094 73.144531 142.019531 73.269531 C 142.285156 73.390625 142.5625 73.503906 142.855469 73.574219 C 143.140625 73.644531 143.441406 73.652344 143.742188 73.667969 C 144.03125 73.6875 144.324219 73.671875 144.628906 73.640625 C 144.917969 73.609375 145.203125 73.550781 145.5 73.472656 C 145.773438 73.398438 146.046875 73.328125 146.320312 73.253906 C 146.59375 73.183594 146.871094 73.109375 147.144531 73.039062 C 147.417969 72.96875 147.691406 72.882812 147.964844 72.8125 C 148.242188 72.742188 148.515625 72.664062 148.789062 72.59375 C 149.0625 72.527344 149.347656 72.496094 149.621094 72.433594 C 149.898438 72.367188 150.191406 72.375 150.46875 72.3125 C 150.746094 72.25 151.015625 72.140625 151.292969 72.113281 C 151.585938 72.085938 151.871094 72.089844 152.136719 72.152344 C 152.410156 72.210938 152.660156 72.328125 152.878906 72.535156 C 153.0625 72.703125 153.21875 72.929688 153.347656 73.234375 C 153.453125 73.480469 153.515625 73.777344 153.496094 74.105469 C 153.480469 74.386719 153.375 74.675781 153.277344 74.972656 C 153.1875 75.25 153.050781 75.511719 152.894531 75.769531 C 152.742188 76.027344 152.585938 76.277344 152.375 76.484375 C 152.15625 76.695312 151.914062 76.851562 151.644531 76.972656 C 151.378906 77.109375 151.097656 77.238281 150.789062 77.328125 C 150.496094 77.410156 150.1875 77.460938 149.878906 77.503906 C 149.566406 77.550781 149.257812 77.617188 148.953125 77.628906 C 148.625 77.640625 148.3125 77.59375 148.023438 77.570312 C 147.671875 77.542969 147.347656 77.550781 147.097656 77.476562 C 146.742188 77.375 146.476562 77.304688 146.28125 77.375 C 146.039062 77.460938 145.953125 77.722656 145.847656 78.039062 C 145.773438 78.261719 145.707031 78.523438 145.644531 78.839844 C 145.578125 79.191406 145.496094 79.496094 145.472656 79.757812 C 145.441406 80.125 145.453125 80.4375 145.703125 80.636719 C 145.882812 80.773438 146.183594 80.855469 146.609375 80.910156 C 146.792969 80.957031 147.085938 81.039062 147.46875 81.089844 C 147.726562 81.121094 148.023438 81.164062 148.351562 81.171875 C 148.625 81.175781 148.921875 81.140625 149.234375 81.113281 C 149.515625 81.089844 149.8125 81.058594 150.117188 81.003906 C 150.394531 80.949219 150.660156 80.804688 150.957031 80.71875 C 151.226562 80.636719 151.539062 80.632812 151.820312 80.511719 C 152.085938 80.402344 152.316406 80.203125 152.585938 80.054688 C 152.835938 79.917969 153.140625 79.84375 153.394531 79.671875 C 153.632812 79.511719 153.847656 79.320312 154.0625 79.152344 C 154.289062 78.972656 154.492188 78.773438 154.691406 78.589844 C 154.902344 78.394531 155.085938 78.175781 155.265625 77.976562 C 155.460938 77.761719 155.640625 77.546875 155.800781 77.328125 C 155.972656 77.097656 156.136719 76.867188 156.273438 76.628906 C 156.414062 76.382812 156.566406 76.140625 156.671875 75.890625 C 156.78125 75.625 156.800781 75.335938 156.867188 75.070312 C 156.9375 74.796875 157.054688 74.53125 157.078125 74.253906 C 157.105469 73.972656 157.066406 73.691406 157.042969 73.410156 C 157.019531 73.132812 157.007812 72.84375 156.933594 72.574219 C 156.863281 72.304688 156.773438 72.03125 156.652344 71.773438 C 156.535156 71.523438 156.371094 71.289062 156.210938 71.050781 C 156.054688 70.816406 155.898438 70.585938 155.722656 70.378906 C 155.542969 70.164062 155.324219 69.988281 155.121094 69.800781 C 154.917969 69.613281 154.6875 69.464844 154.464844 69.308594 C 154.238281 69.148438 154.023438 68.976562 153.773438 68.855469 C 153.527344 68.738281 153.261719 68.664062 152.992188 68.585938 C 152.730469 68.511719 152.460938 68.492188 152.179688 68.453125 C 151.914062 68.421875 151.644531 68.34375 151.359375 68.347656 C 151.09375 68.351562 150.816406 68.363281 150.53125 68.398438 C 150.265625 68.433594 150.003906 68.515625 149.722656 68.582031 C 149.480469 68.671875 149.230469 68.746094 148.984375 68.828125 C 148.738281 68.910156 148.476562 68.9375 148.226562 69.011719 C 147.976562 69.082031 147.730469 69.15625 147.480469 69.222656 C 147.226562 69.285156 146.988281 69.398438 146.734375 69.453125 C 146.46875 69.515625 146.195312 69.625 145.902344 69.691406 C 145.625 69.757812 145.324219 69.773438 145.042969 69.816406 C 144.75 69.863281 144.457031 69.910156 144.179688 69.914062 C 143.875 69.914062 143.582031 69.863281 143.324219 69.773438 C 143.050781 69.679688 142.769531 69.550781 142.585938 69.3125 C 142.410156 69.085938 142.332031 68.800781 142.25 68.539062 Z M 163.046875 56.261719 C 163.347656 56.15625 163.621094 56.058594 163.882812 55.960938 C 164.171875 55.855469 164.445312 55.757812 164.707031 55.660156 C 164.992188 55.558594 165.265625 55.460938 165.535156 55.359375 C 165.902344 55.226562 166.136719 55.050781 166.292969 54.863281 C 166.484375 54.632812 166.574219 54.351562 166.523438 54.003906 C 166.488281 53.746094 166.414062 53.441406 166.289062 53.105469 C 166.175781 52.796875 166.03125 52.558594 165.902344 52.378906 C 165.71875 52.121094 165.492188 51.964844 165.222656 51.941406 C 165.003906 51.921875 164.734375 52.003906 164.414062 52.113281 C 164.140625 52.210938 163.867188 52.292969 163.59375 52.390625 C 163.324219 52.484375 163.0625 52.617188 162.792969 52.714844 C 162.519531 52.808594 162.234375 52.867188 161.964844 52.964844 C 161.691406 53.058594 161.4375 53.207031 161.167969 53.304688 C 160.894531 53.402344 160.605469 53.4375 160.332031 53.535156 C 160.058594 53.632812 159.816406 53.804688 159.542969 53.898438 C 159.273438 53.996094 158.996094 54.078125 158.722656 54.175781 C 158.449219 54.269531 158.175781 54.351562 157.902344 54.449219 C 157.632812 54.546875 157.339844 54.589844 157.070312 54.6875 C 156.800781 54.785156 156.535156 54.90625 156.265625 55 C 155.992188 55.097656 155.714844 55.179688 155.445312 55.277344 C 155.171875 55.371094 154.894531 55.453125 154.625 55.550781 C 154.363281 55.644531 154.023438 55.789062 153.910156 55.992188 C 153.773438 56.234375 153.722656 56.503906 153.734375 56.753906 C 153.742188 57.035156 153.894531 57.277344 153.984375 57.488281 C 154.105469 57.765625 154.09375 58.097656 154.21875 58.351562 C 154.347656 58.613281 154.570312 58.78125 154.886719 58.894531 C 155.121094 58.980469 155.414062 59.015625 155.710938 58.925781 C 155.980469 58.847656 156.246094 58.714844 156.503906 58.648438 C 156.808594 58.550781 157.09375 58.445312 157.367188 58.367188 C 157.691406 58.273438 157.976562 58.171875 158.230469 58.105469 C 158.761719 57.964844 158.722656 57.664062 159.105469 57.898438 C 159.507812 58.140625 159.246094 58.269531 159.445312 58.777344 C 159.546875 59.046875 159.640625 59.359375 159.757812 59.675781 C 159.871094 59.972656 160.050781 60.253906 160.148438 60.535156 C 160.242188 60.800781 160.269531 61.09375 160.367188 61.367188 C 160.460938 61.632812 160.59375 61.890625 160.691406 62.164062 C 160.789062 62.429688 160.847656 62.714844 160.945312 62.988281 C 161.042969 63.257812 161.132812 63.535156 161.234375 63.808594 C 161.328125 64.078125 161.453125 64.339844 161.550781 64.613281 C 161.648438 64.878906 161.734375 65.15625 161.835938 65.429688 C 161.933594 65.699219 162.070312 65.953125 162.167969 66.226562 C 162.269531 66.496094 162.394531 66.757812 162.492188 67.023438 C 162.59375 67.292969 162.65625 67.578125 162.753906 67.84375 C 162.855469 68.113281 162.984375 68.371094 163.082031 68.636719 C 163.183594 68.90625 163.320312 69.164062 163.417969 69.429688 C 163.519531 69.699219 163.566406 69.984375 163.667969 70.25 C 163.769531 70.519531 163.867188 70.789062 163.96875 71.050781 C 164.070312 71.320312 164.203125 71.574219 164.304688 71.835938 C 164.460938 72.238281 164.589844 72.511719 164.738281 72.691406 C 164.992188 73 165.261719 73.066406 165.609375 72.960938 C 165.859375 72.886719 166.152344 72.734375 166.519531 72.589844 C 166.875 72.449219 167.125 72.28125 167.324219 72.15625 C 167.675781 71.945312 167.761719 71.75 167.75 71.453125 C 167.742188 71.222656 167.695312 70.941406 167.550781 70.570312 C 167.445312 70.300781 167.320312 70.019531 167.210938 69.726562 C 167.105469 69.449219 167.011719 69.160156 166.902344 68.871094 C 166.796875 68.589844 166.644531 68.320312 166.535156 68.03125 C 166.429688 67.75 166.359375 67.449219 166.253906 67.167969 C 166.144531 66.882812 166.003906 66.609375 165.898438 66.328125 C 165.792969 66.042969 165.792969 65.71875 165.6875 65.441406 C 165.578125 65.152344 165.472656 64.867188 165.367188 64.59375 C 165.257812 64.296875 165.117188 64.027344 165.015625 63.757812 C 164.914062 63.492188 164.84375 63.214844 164.742188 62.949219 C 164.640625 62.683594 164.460938 62.449219 164.355469 62.183594 C 164.253906 61.917969 164.140625 61.65625 164.039062 61.390625 C 163.933594 61.121094 163.8125 60.863281 163.707031 60.59375 C 163.605469 60.328125 163.515625 60.054688 163.414062 59.785156 C 163.308594 59.519531 163.203125 59.253906 163.097656 58.984375 C 162.996094 58.71875 162.964844 58.425781 162.859375 58.15625 C 162.757812 57.890625 162.621094 57.636719 162.515625 57.367188 C 162.414062 57.105469 162.363281 56.863281 162.261719 56.589844 C 162.558594 56.480469 162.785156 56.359375 163.046875 56.261719 Z M 187.488281 60.753906 C 187.804688 60.746094 188.113281 60.703125 188.410156 60.695312 C 188.726562 60.6875 189.035156 60.691406 189.332031 60.683594 C 189.644531 60.675781 189.949219 60.613281 190.25 60.601562 C 190.5625 60.59375 190.867188 60.574219 191.167969 60.5625 C 191.476562 60.546875 191.785156 60.566406 192.085938 60.546875 C 192.378906 60.53125 192.679688 60.539062 192.953125 60.476562 C 193.238281 60.414062 193.492188 60.25 193.757812 60.140625 C 194.027344 60.03125 194.269531 59.890625 194.515625 59.742188 C 194.757812 59.589844 195.007812 59.445312 195.222656 59.253906 C 195.4375 59.066406 195.632812 58.855469 195.816406 58.628906 C 195.996094 58.410156 196.132812 58.160156 196.28125 57.90625 C 196.425781 57.660156 196.574219 57.417969 196.679688 57.144531 C 196.785156 56.882812 196.851562 56.605469 196.917969 56.320312 C 196.984375 56.042969 197.105469 55.769531 197.132812 55.476562 C 197.15625 55.195312 197.097656 54.914062 197.097656 54.644531 C 197.097656 54.355469 197.136719 54.078125 197.109375 53.8125 C 197.078125 53.53125 197.023438 53.257812 196.960938 52.996094 C 196.898438 52.722656 196.835938 52.449219 196.734375 52.199219 C 196.632812 51.9375 196.496094 51.695312 196.351562 51.460938 C 196.210938 51.222656 196.058594 50.988281 195.875 50.78125 C 195.695312 50.578125 195.492188 50.378906 195.273438 50.207031 C 195.058594 50.042969 194.800781 49.925781 194.550781 49.792969 C 194.3125 49.667969 194.0625 49.546875 193.792969 49.457031 C 193.539062 49.371094 193.261719 49.335938 192.976562 49.277344 C 192.695312 49.222656 192.410156 49.179688 192.125 49.128906 C 191.835938 49.082031 191.550781 49.046875 191.265625 49.007812 C 190.976562 48.96875 190.691406 48.933594 190.402344 48.90625 C 190.113281 48.875 189.828125 48.851562 189.539062 48.828125 C 189.25 48.808594 188.960938 48.804688 188.671875 48.792969 C 188.382812 48.78125 188.09375 48.785156 187.804688 48.78125 C 187.515625 48.78125 187.226562 48.742188 186.9375 48.75 C 186.648438 48.753906 186.355469 48.691406 186.066406 48.703125 C 185.757812 48.71875 185.492188 48.769531 185.253906 48.765625 C 184.925781 48.757812 184.660156 48.738281 184.445312 48.730469 C 184.0625 48.722656 183.828125 48.757812 183.695312 48.960938 C 183.59375 49.113281 183.542969 49.363281 183.511719 49.753906 C 183.492188 49.976562 183.503906 50.25 183.496094 50.578125 C 183.488281 50.863281 183.433594 51.152344 183.425781 51.445312 C 183.417969 51.730469 183.390625 52.019531 183.386719 52.3125 C 183.375 52.601562 183.398438 52.894531 183.390625 53.1875 C 183.382812 53.480469 183.363281 53.773438 183.355469 54.070312 C 183.347656 54.359375 183.367188 54.652344 183.359375 54.945312 C 183.351562 55.238281 183.335938 55.527344 183.332031 55.820312 C 183.324219 56.113281 183.355469 56.40625 183.351562 56.699219 C 183.34375 56.992188 183.300781 57.28125 183.292969 57.574219 C 183.289062 57.867188 183.339844 58.160156 183.332031 58.453125 C 183.328125 58.746094 183.261719 59.035156 183.257812 59.328125 C 183.25 59.617188 183.328125 59.910156 183.320312 60.203125 C 183.316406 60.492188 183.296875 60.785156 183.292969 61.074219 C 183.289062 61.363281 183.269531 61.652344 183.265625 61.941406 C 183.257812 62.234375 183.199219 62.523438 183.195312 62.8125 C 183.191406 63.101562 183.210938 63.394531 183.207031 63.679688 C 183.203125 63.972656 183.179688 64.261719 183.175781 64.546875 C 183.171875 64.839844 183.152344 65.125 183.148438 65.410156 C 183.144531 65.707031 183.167969 65.996094 183.164062 66.285156 C 183.160156 66.601562 183.128906 66.632812 183.125 66.980469 C 183.121094 67.136719 183.199219 67.355469 183.203125 67.695312 C 183.210938 68 183.234375 68.246094 183.398438 68.398438 C 183.578125 68.566406 183.859375 68.59375 184.105469 68.648438 C 184.382812 68.707031 184.648438 68.808594 184.835938 68.816406 C 185.066406 68.832031 185.464844 68.808594 185.816406 68.753906 C 186.222656 68.6875 186.585938 68.519531 186.570312 68.238281 C 186.546875 67.929688 186.519531 67.644531 186.519531 67.378906 C 186.519531 67.070312 186.535156 66.789062 186.546875 66.519531 C 186.558594 66.222656 186.585938 65.941406 186.589844 65.667969 C 186.59375 65.394531 186.625 65.121094 186.625 64.847656 C 186.628906 64.578125 186.558594 64.304688 186.554688 64.023438 C 186.554688 63.757812 186.621094 63.484375 186.621094 63.199219 C 186.617188 62.933594 186.574219 62.660156 186.574219 62.375 C 186.570312 62.109375 186.605469 61.835938 186.605469 61.550781 C 186.601562 61.285156 186.59375 61.042969 186.589844 60.757812 C 186.910156 60.75 187.1875 60.761719 187.488281 60.753906 Z M 186.722656 56.4375 C 186.726562 56.136719 186.648438 55.839844 186.652344 55.542969 C 186.65625 55.246094 186.675781 54.949219 186.683594 54.652344 C 186.6875 54.355469 186.707031 54.058594 186.710938 53.761719 C 186.714844 53.464844 186.773438 53.167969 186.777344 52.867188 C 186.777344 52.570312 186.75 52.28125 186.746094 51.980469 C 187.066406 52.011719 187.367188 52.046875 187.667969 52.054688 C 187.984375 52.0625 188.296875 52.082031 188.597656 52.082031 C 188.914062 52.085938 189.222656 52.054688 189.527344 52.058594 C 189.839844 52.066406 190.148438 52.082031 190.453125 52.109375 C 190.761719 52.132812 191.082031 52.101562 191.390625 52.164062 C 191.730469 52.230469 192.011719 52.414062 192.285156 52.527344 C 192.609375 52.660156 192.921875 52.753906 193.140625 52.949219 C 193.390625 53.167969 193.496094 53.472656 193.605469 53.777344 C 193.707031 54.054688 193.769531 54.347656 193.75 54.699219 C 193.734375 54.96875 193.703125 55.226562 193.621094 55.476562 C 193.535156 55.726562 193.433594 55.976562 193.277344 56.191406 C 193.125 56.398438 192.933594 56.585938 192.707031 56.738281 C 192.5 56.878906 192.253906 56.984375 191.984375 57.0625 C 191.746094 57.132812 191.484375 57.148438 191.199219 57.160156 C 190.902344 57.171875 190.609375 57.261719 190.304688 57.277344 C 190.007812 57.292969 189.707031 57.238281 189.402344 57.253906 C 189.105469 57.265625 188.804688 57.320312 188.5 57.328125 C 188.203125 57.335938 187.902344 57.304688 187.597656 57.304688 C 187.300781 57.308594 187.03125 57.308594 186.722656 57.300781 C 186.71875 57 186.722656 56.734375 186.722656 56.4375 Z M 205.71875 63.414062 C 206.050781 63.464844 206.367188 63.40625 206.625 63.453125 C 206.972656 63.519531 207.246094 63.648438 207.484375 63.730469 C 207.824219 63.847656 208.050781 63.996094 208.234375 64.195312 C 208.417969 64.398438 208.566406 64.632812 208.65625 64.976562 C 208.722656 65.226562 208.75 65.523438 208.800781 65.875 C 208.839844 66.140625 208.847656 66.441406 208.886719 66.777344 C 208.921875 67.058594 209.003906 67.351562 209.042969 67.660156 C 209.078125 67.949219 209.070312 68.253906 209.109375 68.554688 C 209.144531 68.855469 209.175781 69.15625 209.214844 69.453125 C 209.253906 69.753906 209.382812 70.042969 209.417969 70.332031 C 209.460938 70.640625 209.511719 70.9375 209.546875 71.214844 C 209.59375 71.5625 209.570312 71.855469 209.628906 72.085938 C 209.726562 72.457031 209.902344 72.652344 210.066406 72.820312 C 210.257812 73.015625 210.480469 73.09375 210.808594 73.183594 C 211.046875 73.25 211.320312 73.339844 211.648438 73.441406 C 211.96875 73.542969 212.214844 73.648438 212.414062 73.675781 C 212.761719 73.722656 212.949219 73.625 213.015625 73.308594 C 213.058594 73.121094 213.105469 72.855469 213.082031 72.5 C 213.066406 72.273438 212.960938 72.015625 212.925781 71.703125 C 212.898438 71.441406 212.898438 71.148438 212.863281 70.84375 C 212.832031 70.574219 212.742188 70.292969 212.707031 69.996094 C 212.675781 69.714844 212.652344 69.425781 212.617188 69.136719 C 212.585938 68.851562 212.539062 68.566406 212.507812 68.277344 C 212.472656 67.992188 212.433594 67.707031 212.402344 67.421875 C 212.367188 67.136719 212.335938 66.847656 212.300781 66.570312 C 212.269531 66.277344 212.222656 65.992188 212.191406 65.71875 C 212.152344 65.421875 212.207031 65.125 212.175781 64.855469 C 212.144531 64.628906 212.234375 64.382812 212.441406 64.289062 C 212.785156 64.132812 213.097656 63.984375 213.398438 63.851562 C 213.730469 63.699219 214.085938 63.640625 214.382812 63.46875 C 214.628906 63.324219 214.84375 63.132812 215.054688 62.960938 C 215.277344 62.785156 215.488281 62.597656 215.675781 62.394531 C 215.867188 62.1875 216 61.933594 216.15625 61.707031 C 216.3125 61.472656 216.445312 61.230469 216.566406 60.984375 C 216.6875 60.730469 216.824219 60.484375 216.910156 60.21875 C 216.996094 59.953125 217.113281 59.691406 217.15625 59.417969 C 217.203125 59.140625 217.148438 58.851562 217.15625 58.574219 C 217.164062 58.292969 217.136719 58.019531 217.101562 57.742188 C 217.070312 57.464844 217.042969 57.1875 216.96875 56.921875 C 216.894531 56.652344 216.792969 56.394531 216.675781 56.140625 C 216.558594 55.886719 216.398438 55.660156 216.242188 55.429688 C 216.089844 55.199219 215.941406 54.96875 215.746094 54.761719 C 215.554688 54.5625 215.339844 54.390625 215.113281 54.222656 C 214.894531 54.058594 214.699219 53.839844 214.445312 53.707031 C 214.183594 53.566406 213.878906 53.5 213.605469 53.371094 C 213.335938 53.25 213.082031 53.082031 212.804688 52.96875 C 212.527344 52.855469 212.242188 52.757812 211.960938 52.652344 C 211.683594 52.546875 211.40625 52.429688 211.121094 52.332031 C 210.835938 52.234375 210.546875 52.160156 210.261719 52.066406 C 209.976562 51.972656 209.695312 51.863281 209.410156 51.777344 C 209.121094 51.6875 208.839844 51.589844 208.554688 51.5 C 208.265625 51.414062 207.96875 51.359375 207.683594 51.273438 C 207.34375 51.167969 207.050781 51.054688 206.792969 50.976562 C 206.417969 50.871094 206.117188 50.84375 205.867188 50.863281 C 205.570312 50.890625 205.363281 51.03125 205.15625 51.371094 C 205.027344 51.582031 204.914062 51.859375 204.792969 52.234375 C 204.707031 52.496094 204.617188 52.761719 204.527344 53.035156 C 204.441406 53.300781 204.351562 53.566406 204.265625 53.835938 C 204.179688 54.105469 204.101562 54.375 204.011719 54.648438 C 203.925781 54.917969 203.847656 55.191406 203.761719 55.464844 C 203.675781 55.734375 203.554688 55.992188 203.46875 56.265625 C 203.378906 56.535156 203.226562 56.785156 203.140625 57.058594 C 203.054688 57.328125 203.019531 57.613281 202.933594 57.886719 C 202.847656 58.160156 202.761719 58.429688 202.675781 58.699219 C 202.589844 58.96875 202.503906 59.238281 202.417969 59.511719 C 202.332031 59.78125 202.246094 60.050781 202.164062 60.324219 C 202.078125 60.59375 202.015625 60.871094 201.929688 61.140625 C 201.847656 61.410156 201.71875 61.664062 201.632812 61.933594 C 201.550781 62.203125 201.453125 62.46875 201.367188 62.738281 C 201.285156 63.007812 201.226562 63.285156 201.144531 63.554688 C 201.0625 63.824219 200.964844 64.089844 200.882812 64.355469 C 200.796875 64.625 200.742188 64.902344 200.660156 65.167969 C 200.578125 65.441406 200.484375 65.707031 200.402344 65.976562 C 200.316406 66.25 200.273438 66.53125 200.191406 66.796875 C 200.117188 67.039062 199.964844 67.308594 199.84375 67.609375 C 199.734375 67.882812 199.679688 68.183594 199.601562 68.460938 C 199.511719 68.773438 199.402344 69.070312 199.445312 69.328125 C 199.480469 69.554688 199.820312 69.722656 200.148438 69.882812 C 200.46875 70.039062 200.804688 70.15625 200.996094 70.175781 C 201.253906 70.203125 201.535156 70.304688 201.792969 70.34375 C 202.089844 70.390625 202.386719 70.421875 202.566406 70.199219 C 202.730469 70 202.851562 69.671875 202.972656 69.320312 C 203.078125 69.027344 203.1875 68.707031 203.273438 68.398438 C 203.371094 68.046875 203.472656 67.71875 203.550781 67.46875 C 203.644531 67.1875 203.707031 66.894531 203.796875 66.609375 C 203.886719 66.328125 203.984375 66.046875 204.070312 65.761719 C 204.160156 65.480469 204.175781 65.179688 204.261719 64.898438 C 204.347656 64.617188 204.53125 64.363281 204.613281 64.085938 C 204.703125 63.800781 204.730469 63.476562 204.816406 63.199219 C 205.144531 63.246094 205.449219 63.375 205.71875 63.414062 Z M 206.296875 58.992188 C 206.386719 58.703125 206.476562 58.421875 206.5625 58.144531 C 206.648438 57.863281 206.738281 57.585938 206.824219 57.304688 C 206.914062 57.027344 206.980469 56.738281 207.066406 56.457031 C 207.15625 56.179688 207.285156 55.910156 207.375 55.621094 C 207.460938 55.347656 207.539062 55.101562 207.628906 54.8125 C 207.914062 54.898438 208.160156 54.957031 208.433594 55.035156 C 208.71875 55.117188 208.996094 55.214844 209.269531 55.292969 C 209.550781 55.375 209.832031 55.429688 210.105469 55.511719 C 210.386719 55.597656 210.660156 55.691406 210.929688 55.78125 C 211.207031 55.875 211.492188 55.9375 211.761719 56.039062 C 212.023438 56.140625 212.246094 56.296875 212.460938 56.429688 C 212.699219 56.578125 212.941406 56.703125 213.121094 56.882812 C 213.316406 57.082031 213.429688 57.332031 213.546875 57.558594 C 213.675781 57.800781 213.835938 58.03125 213.871094 58.289062 C 213.90625 58.554688 213.878906 58.835938 213.8125 59.097656 C 213.738281 59.386719 213.574219 59.660156 213.378906 59.910156 C 213.199219 60.140625 212.933594 60.308594 212.675781 60.488281 C 212.429688 60.65625 212.171875 60.820312 211.882812 60.925781 C 211.597656 61.03125 211.300781 61.082031 210.996094 61.109375 C 210.691406 61.136719 210.398438 61.105469 210.097656 61.039062 C 209.824219 60.976562 209.542969 60.9375 209.269531 60.859375 C 209 60.785156 208.734375 60.695312 208.460938 60.609375 C 208.195312 60.527344 207.902344 60.507812 207.628906 60.417969 C 207.367188 60.332031 207.128906 60.148438 206.851562 60.054688 C 206.589844 59.96875 206.273438 59.941406 205.992188 59.851562 C 206.085938 59.558594 206.210938 59.265625 206.296875 58.992188 Z M 223.964844 67.898438 C 224.101562 67.652344 224.242188 67.398438 224.382812 67.144531 C 224.523438 66.890625 224.664062 66.636719 224.808594 66.378906 C 224.949219 66.128906 225.152344 65.910156 225.292969 65.65625 C 225.433594 65.40625 225.609375 65.171875 225.75 64.917969 C 225.890625 64.664062 225.992188 64.390625 226.132812 64.140625 C 226.273438 63.886719 226.367188 63.609375 226.503906 63.363281 C 226.644531 63.105469 226.832031 62.878906 226.96875 62.632812 C 227.113281 62.375 227.214844 62.101562 227.351562 61.855469 C 227.511719 61.566406 227.730469 61.359375 227.828125 61.140625 C 227.972656 60.804688 228.046875 60.523438 228.058594 60.308594 C 228.074219 59.984375 227.878906 59.796875 227.644531 59.597656 C 227.46875 59.441406 227.25 59.273438 226.960938 59.101562 C 226.667969 58.929688 226.417969 58.832031 226.203125 58.753906 C 225.917969 58.648438 225.667969 58.566406 225.402344 58.757812 C 225.230469 58.882812 225.027344 59.089844 224.820312 59.390625 C 224.683594 59.585938 224.550781 59.835938 224.386719 60.125 C 224.25 60.363281 224.160156 60.632812 224.023438 60.875 C 223.882812 61.117188 223.746094 61.363281 223.605469 61.613281 C 223.464844 61.855469 223.316406 62.09375 223.179688 62.339844 C 223.039062 62.585938 222.851562 62.804688 222.710938 63.050781 C 222.570312 63.296875 222.472656 63.566406 222.332031 63.816406 C 222.195312 64.058594 222.074219 64.316406 221.933594 64.5625 C 221.792969 64.808594 221.574219 65.007812 221.4375 65.253906 C 221.292969 65.5 221.253906 65.804688 221.117188 66.050781 C 220.976562 66.292969 220.8125 66.527344 220.675781 66.773438 C 220.535156 67.015625 220.34375 67.234375 220.203125 67.480469 C 220.066406 67.722656 219.992188 68.007812 219.855469 68.253906 C 219.714844 68.496094 219.484375 68.6875 219.347656 68.933594 C 219.207031 69.175781 219.082031 69.429688 218.945312 69.671875 C 218.804688 69.917969 218.730469 70.195312 218.589844 70.441406 C 218.453125 70.683594 218.269531 70.90625 218.132812 71.148438 C 217.992188 71.390625 217.914062 71.667969 217.777344 71.910156 C 217.636719 72.15625 217.46875 72.378906 217.332031 72.621094 C 217.191406 72.867188 216.996094 73.074219 216.859375 73.316406 C 216.726562 73.550781 216.605469 73.796875 216.414062 74.082031 C 216.273438 74.292969 216.109375 74.53125 215.933594 74.839844 C 215.738281 75.183594 215.765625 75.523438 215.921875 75.777344 C 216.113281 76.097656 216.519531 76.257812 216.699219 76.332031 C 216.957031 76.476562 217.234375 76.609375 217.5 76.734375 C 217.800781 76.878906 218.070312 77.011719 218.324219 77.054688 C 218.671875 77.113281 218.90625 77.066406 219.039062 76.769531 C 219.144531 76.53125 219.300781 76.332031 219.414062 76.125 C 219.535156 75.898438 219.617188 75.660156 219.738281 75.457031 C 219.871094 75.234375 220.054688 75.058594 220.171875 74.855469 C 220.316406 74.601562 220.445312 74.335938 220.589844 74.078125 C 220.734375 73.824219 220.894531 73.574219 221.039062 73.316406 C 221.183594 73.0625 221.300781 72.789062 221.445312 72.535156 C 221.589844 72.277344 221.738281 72.023438 221.882812 71.769531 C 222.023438 71.511719 222.148438 71.242188 222.292969 70.988281 C 222.4375 70.730469 222.601562 70.484375 222.742188 70.226562 C 222.886719 69.96875 223.011719 69.703125 223.15625 69.445312 C 223.296875 69.1875 223.5 68.964844 223.644531 68.707031 C 223.777344 68.464844 223.824219 68.160156 223.964844 67.898438 Z M 229.28125 85.382812 C 229.558594 85.550781 229.847656 85.71875 230.144531 85.859375 C 230.4375 85.996094 230.773438 86.042969 231.082031 86.144531 C 231.394531 86.25 231.691406 86.402344 232.015625 86.457031 C 232.335938 86.515625 232.667969 86.554688 232.992188 86.558594 C 233.359375 86.5625 233.679688 86.457031 233.96875 86.40625 C 234.332031 86.339844 234.644531 86.277344 234.886719 86.09375 C 235.136719 85.90625 235.355469 85.648438 235.472656 85.300781 C 235.5625 85.03125 235.523438 84.695312 235.53125 84.3125 C 235.542969 83.890625 235.519531 83.566406 235.324219 83.371094 C 235.109375 83.15625 234.75 83.128906 234.394531 83.070312 C 234.085938 83.019531 233.753906 82.992188 233.421875 82.980469 C 233.074219 82.964844 232.726562 82.972656 232.433594 82.914062 C 232.164062 82.855469 231.902344 82.730469 231.640625 82.613281 C 231.386719 82.5 231.121094 82.390625 230.886719 82.230469 C 230.65625 82.074219 230.476562 81.847656 230.277344 81.648438 C 230.074219 81.453125 229.902344 81.234375 229.742188 81.007812 C 229.578125 80.777344 229.382812 80.5625 229.273438 80.308594 C 229.148438 80.027344 229.117188 79.71875 229.0625 79.429688 C 229.007812 79.132812 228.9375 78.832031 228.945312 78.53125 C 228.953125 78.234375 228.964844 77.921875 229.023438 77.625 C 229.082031 77.332031 229.164062 77.035156 229.261719 76.746094 C 229.363281 76.464844 229.480469 76.175781 229.609375 75.902344 C 229.738281 75.632812 229.945312 75.394531 230.097656 75.136719 C 230.253906 74.875 230.449219 74.644531 230.621094 74.398438 C 230.796875 74.148438 230.9375 73.875 231.121094 73.648438 C 231.316406 73.402344 231.476562 73.136719 231.667969 72.921875 C 231.878906 72.695312 232.132812 72.507812 232.355469 72.296875 C 232.582031 72.082031 232.789062 71.84375 233.03125 71.660156 C 233.277344 71.46875 233.589844 71.375 233.851562 71.222656 C 234.121094 71.066406 234.390625 70.925781 234.675781 70.820312 C 234.964844 70.714844 235.242188 70.550781 235.546875 70.511719 C 235.851562 70.472656 236.164062 70.503906 236.476562 70.542969 C 236.769531 70.582031 237.089844 70.621094 237.390625 70.742188 C 237.660156 70.851562 237.886719 71.089844 238.160156 71.273438 C 238.398438 71.429688 238.589844 71.613281 238.777344 71.804688 C 238.972656 72.007812 239.144531 72.210938 239.292969 72.441406 C 239.441406 72.675781 239.617188 72.894531 239.722656 73.152344 C 239.828125 73.40625 239.921875 73.667969 239.996094 73.941406 C 240.070312 74.203125 240.121094 74.476562 240.175781 74.75 C 240.25 75.152344 240.28125 75.5 240.390625 75.757812 C 240.539062 76.109375 240.792969 76.3125 241.132812 76.429688 C 241.386719 76.519531 241.710938 76.523438 242.144531 76.5 C 242.511719 76.480469 242.832031 76.570312 243.078125 76.488281 C 243.332031 76.402344 243.460938 76.148438 243.628906 75.765625 C 243.738281 75.511719 243.816406 75.242188 243.839844 74.941406 C 243.863281 74.644531 243.914062 74.34375 243.894531 74.074219 C 243.867188 73.753906 243.75 73.453125 243.6875 73.144531 C 243.625 72.832031 243.648438 72.5 243.546875 72.199219 C 243.441406 71.902344 243.304688 71.609375 243.160156 71.324219 C 243.019531 71.046875 242.792969 70.8125 242.609375 70.546875 C 242.445312 70.300781 242.300781 70.039062 242.109375 69.8125 C 241.917969 69.585938 241.664062 69.421875 241.449219 69.21875 C 241.234375 69.011719 241.039062 68.792969 240.804688 68.609375 C 240.570312 68.429688 240.367188 68.199219 240.113281 68.042969 C 239.863281 67.882812 239.578125 67.78125 239.3125 67.648438 C 239.046875 67.519531 238.777344 67.394531 238.5 67.292969 C 238.21875 67.191406 237.945312 67.066406 237.65625 67 C 237.371094 66.929688 237.0625 66.96875 236.765625 66.933594 C 236.472656 66.902344 236.183594 66.90625 235.886719 66.910156 C 235.589844 66.917969 235.296875 66.917969 235.003906 66.960938 C 234.703125 67.007812 234.40625 67.085938 234.105469 67.175781 C 233.816406 67.265625 233.507812 67.328125 233.222656 67.453125 C 232.941406 67.578125 232.6875 67.761719 232.410156 67.914062 C 232.144531 68.0625 231.84375 68.171875 231.585938 68.34375 C 231.328125 68.515625 231.082031 68.710938 230.835938 68.898438 C 230.589844 69.089844 230.339844 69.273438 230.105469 69.472656 C 229.867188 69.675781 229.65625 69.90625 229.4375 70.121094 C 229.207031 70.339844 228.980469 70.550781 228.777344 70.773438 C 228.554688 71.007812 228.367188 71.253906 228.171875 71.480469 C 227.984375 71.707031 227.78125 71.925781 227.605469 72.167969 C 227.429688 72.410156 227.28125 72.667969 227.125 72.921875 C 226.96875 73.171875 226.757812 73.398438 226.617188 73.664062 C 226.480469 73.925781 226.40625 74.222656 226.285156 74.496094 C 226.164062 74.765625 226.050781 75.042969 225.949219 75.320312 C 225.84375 75.601562 225.703125 75.867188 225.621094 76.152344 C 225.539062 76.441406 225.523438 76.742188 225.460938 77.03125 C 225.398438 77.324219 225.289062 77.605469 225.246094 77.902344 C 225.203125 78.195312 225.160156 78.492188 225.140625 78.789062 C 225.121094 79.09375 225.199219 79.390625 225.230469 79.683594 C 225.257812 79.984375 225.238281 80.292969 225.3125 80.578125 C 225.390625 80.867188 225.496094 81.15625 225.613281 81.425781 C 225.730469 81.699219 225.914062 81.945312 226.070312 82.199219 C 226.222656 82.457031 226.402344 82.691406 226.585938 82.929688 C 226.765625 83.167969 226.929688 83.421875 227.132812 83.636719 C 227.339844 83.855469 227.539062 84.082031 227.761719 84.28125 C 227.988281 84.476562 228.269531 84.601562 228.507812 84.777344 C 228.765625 84.972656 229 85.210938 229.28125 85.382812 Z M 250.699219 85.105469 C 250.871094 85.355469 251.0625 85.585938 251.230469 85.828125 C 251.402344 86.074219 251.5 86.367188 251.667969 86.609375 C 251.835938 86.855469 252.03125 87.078125 252.195312 87.320312 C 252.363281 87.566406 252.5 87.835938 252.667969 88.078125 C 252.835938 88.324219 253.015625 88.558594 253.183594 88.804688 C 253.351562 89.046875 253.578125 89.25 253.746094 89.496094 C 253.910156 89.742188 254.078125 89.988281 254.242188 90.234375 C 254.453125 90.546875 254.601562 90.820312 254.789062 91.007812 C 255.035156 91.25 255.269531 91.335938 255.625 91.285156 C 255.867188 91.25 256.152344 91.171875 256.507812 90.972656 C 256.777344 90.785156 257.050781 90.644531 257.273438 90.496094 C 257.554688 90.3125 257.765625 90.125 257.816406 89.828125 C 257.855469 89.609375 257.855469 89.3125 257.679688 88.941406 C 257.574219 88.714844 257.351562 88.496094 257.148438 88.195312 C 256.996094 87.964844 256.84375 87.734375 256.6875 87.507812 C 256.527344 87.28125 256.429688 87.015625 256.265625 86.792969 C 256.101562 86.570312 255.898438 86.375 255.730469 86.15625 C 255.5625 85.933594 255.363281 85.742188 255.195312 85.523438 C 255.027344 85.300781 254.902344 85.050781 254.738281 84.828125 C 254.554688 84.585938 254.332031 84.375 254.164062 84.125 C 253.996094 83.875 253.824219 83.628906 253.664062 83.367188 C 253.503906 83.113281 253.398438 82.820312 253.242188 82.558594 C 253.085938 82.300781 252.925781 82.046875 252.769531 81.785156 C 252.613281 81.527344 252.433594 81.28125 252.269531 81.019531 C 252.105469 80.769531 251.992188 80.480469 251.816406 80.226562 C 251.648438 79.980469 251.421875 79.796875 251.234375 79.554688 C 251 79.707031 250.777344 79.824219 250.542969 79.976562 C 250.308594 80.132812 250.042969 80.238281 249.808594 80.394531 C 249.574219 80.546875 249.371094 80.753906 249.136719 80.910156 C 248.902344 81.0625 248.652344 81.195312 248.417969 81.347656 C 248.183594 81.503906 247.949219 81.660156 247.714844 81.816406 C 247.480469 81.96875 247.269531 82.15625 247.035156 82.3125 C 246.800781 82.464844 246.574219 82.636719 246.339844 82.792969 C 246.109375 82.949219 245.824219 83.027344 245.589844 83.183594 C 245.355469 83.335938 245.175781 83.566406 244.941406 83.722656 C 244.707031 83.878906 244.453125 84 244.222656 84.15625 C 243.988281 84.308594 243.792969 84.519531 243.558594 84.671875 C 243.328125 84.828125 243.03125 84.886719 242.800781 85.042969 C 242.566406 85.195312 242.375 85.410156 242.144531 85.566406 C 241.910156 85.722656 241.648438 85.832031 241.417969 85.988281 C 241.1875 86.144531 240.972656 86.324219 240.742188 86.476562 C 240.507812 86.632812 240.273438 86.78125 240.042969 86.933594 C 239.8125 87.089844 239.589844 87.261719 239.359375 87.414062 C 239.128906 87.570312 238.875 87.695312 238.644531 87.851562 C 238.414062 88.007812 238.238281 88.246094 238.007812 88.402344 C 237.777344 88.558594 237.503906 88.65625 237.277344 88.8125 C 237.042969 88.96875 236.84375 89.167969 236.617188 89.324219 C 236.386719 89.484375 236.125 89.59375 235.894531 89.75 C 235.695312 89.886719 235.542969 90.273438 235.46875 90.664062 C 235.394531 91.050781 235.421875 91.445312 235.550781 91.65625 C 235.695312 91.890625 235.835938 92.128906 235.980469 92.363281 C 236.125 92.597656 236.285156 92.820312 236.429688 93.054688 C 236.578125 93.292969 236.644531 93.574219 236.792969 93.808594 C 236.9375 94.042969 237.179688 94.214844 237.328125 94.445312 C 237.476562 94.679688 237.621094 94.914062 237.769531 95.148438 C 237.917969 95.378906 237.996094 95.660156 238.144531 95.890625 C 238.296875 96.121094 238.519531 96.304688 238.671875 96.535156 C 238.824219 96.765625 238.949219 97.011719 239.105469 97.242188 C 239.257812 97.46875 239.390625 97.710938 239.546875 97.941406 C 239.703125 98.167969 239.875 98.382812 240.03125 98.609375 C 240.1875 98.835938 240.390625 99.03125 240.550781 99.253906 C 240.710938 99.480469 240.808594 99.75 240.96875 99.972656 C 241.152344 100.222656 241.375 100.375 241.582031 100.445312 C 241.832031 100.53125 242.074219 100.445312 242.316406 100.328125 C 242.53125 100.226562 242.714844 100.066406 242.890625 99.847656 C 243.042969 99.660156 243.230469 99.46875 243.332031 99.21875 C 243.445312 98.945312 243.546875 98.679688 243.597656 98.425781 C 243.648438 98.164062 243.625 97.902344 243.464844 97.621094 C 243.308594 97.351562 243.109375 97.109375 242.9375 96.847656 C 242.765625 96.585938 242.628906 96.300781 242.449219 96.046875 C 242.269531 95.789062 242.132812 95.5 241.949219 95.246094 C 241.765625 94.992188 241.542969 94.769531 241.363281 94.511719 C 241.179688 94.257812 240.96875 94.023438 240.796875 93.761719 C 240.628906 93.503906 240.457031 93.242188 240.292969 93 C 240.105469 92.726562 239.910156 92.484375 239.757812 92.261719 C 239.449219 91.820312 239.3125 91.941406 239.335938 91.488281 C 239.351562 91.105469 239.492188 91.25 239.855469 90.964844 C 240.03125 90.820312 240.285156 90.714844 240.511719 90.542969 C 240.710938 90.394531 240.910156 90.21875 241.125 90.066406 C 241.339844 89.917969 241.570312 89.792969 241.785156 89.660156 C 242.015625 89.515625 242.222656 89.335938 242.472656 89.195312 C 242.699219 89.074219 242.953125 88.960938 243.238281 88.851562 C 243.390625 89.078125 243.519531 89.332031 243.675781 89.5625 C 243.832031 89.792969 244.011719 90.007812 244.164062 90.238281 C 244.320312 90.46875 244.457031 90.714844 244.609375 90.945312 C 244.765625 91.175781 244.910156 91.410156 245.066406 91.636719 C 245.222656 91.863281 245.421875 92.0625 245.582031 92.285156 C 245.742188 92.507812 245.871094 92.753906 246.039062 92.96875 C 246.207031 93.21875 246.425781 93.386719 246.570312 93.570312 C 246.773438 93.828125 246.898438 94.070312 247.074219 94.191406 C 247.324219 94.363281 247.59375 94.410156 247.859375 94.320312 C 248.058594 94.25 248.238281 94.039062 248.492188 93.828125 C 248.667969 93.679688 248.910156 93.550781 249.132812 93.339844 C 249.304688 93.171875 249.511719 92.964844 249.71875 92.757812 C 249.5625 92.5 249.328125 92.261719 249.167969 92.003906 C 249.007812 91.746094 248.890625 91.460938 248.726562 91.199219 C 248.566406 90.941406 248.433594 90.667969 248.273438 90.40625 C 248.113281 90.144531 247.875 89.933594 247.71875 89.671875 C 247.566406 89.40625 247.503906 89.089844 247.355469 88.824219 C 247.230469 88.605469 247.015625 88.433594 246.878906 88.222656 C 246.734375 87.992188 246.605469 87.769531 246.476562 87.582031 C 246.222656 87.214844 245.925781 87.3125 246.007812 86.941406 C 246.097656 86.527344 246.339844 86.722656 246.730469 86.4375 C 246.941406 86.28125 247.160156 86.078125 247.398438 85.90625 C 247.640625 85.730469 247.917969 85.609375 248.128906 85.46875 C 248.332031 85.332031 248.550781 85.21875 248.796875 85.09375 C 249.003906 84.988281 249.203125 84.820312 249.460938 84.695312 C 249.671875 84.59375 249.910156 84.53125 250.164062 84.398438 C 250.335938 84.648438 250.53125 84.863281 250.699219 85.105469 Z M 250.699219 85.105469 " fill-opacity="1" fill-rule="nonzero"/></svg>