<svg xmlns="http://www.w3.org/2000/svg" xmlns:xlink="http://www.w3.org/1999/xlink" width="500" zoomAndPan="magnify" viewBox="0 0 375 374.999991" height="500" preserveAspectRatio="xMidYMid meet" version="1.0"><defs><clipPath id="fa419e07a0"><path d="M 94 22.304688 L 286 22.304688 L 286 118 L 94 118 Z M 94 22.304688 " clip-rule="nonzero"/></clipPath><clipPath id="86d105dcde"><path d="M 79.277344 110 L 296 110 L 296 122 L 79.277344 122 Z M 79.277344 110 " clip-rule="nonzero"/></clipPath></defs><path fill="#e04867" d="M 294.519531 112.058594 C 294.519531 65.289062 250.800781 27.371094 204.042969 27.371094 C 157.277344 27.375 113.558594 65.289062 113.558594 112.058594 L 294.519531 112.058594 " fill-opacity="1" fill-rule="nonzero"/><path fill="#e04867" d="M 119.644531 246.820312 L 160.785156 233.457031 L 182.105469 309.792969 L 182.105469 347.375 L 137.453125 347.375 C 137.453125 347.375 133.996094 254.117188 119.644531 246.820312 " fill-opacity="1" fill-rule="nonzero"/><path fill="#e04867" d="M 271.480469 264.269531 L 236.984375 233.457031 L 215.675781 309.792969 L 215.675781 347.375 L 263.761719 347.375 C 263.761719 347.375 257.128906 271.566406 271.480469 264.269531 " fill-opacity="1" fill-rule="nonzero"/><path fill="#525356" d="M 252.738281 133.039062 L 252.738281 158.632812 C 252.738281 170.613281 251.0625 181.921875 245.414062 192.675781 C 230.917969 220.273438 197.871094 232.742188 168.570312 222.945312 C 146.515625 215.574219 130.71875 195.71875 126.777344 173.085938 C 125.582031 166.242188 126.015625 159.03125 126.015625 152.105469 L 126.015625 133.039062 C 126.015625 126.386719 115.710938 126.386719 115.710938 133.039062 L 115.710938 158.632812 C 115.710938 171.230469 117.515625 183.078125 122.816406 194.632812 C 136.21875 223.832031 168.796875 240.5 200.273438 235.894531 C 228.125 231.820312 251.238281 211.546875 259.757812 184.871094 C 262.78125 175.410156 263.042969 165.695312 263.042969 155.882812 L 263.042969 133.039062 C 263.042969 126.386719 252.734375 126.386719 252.734375 133.039062 " fill-opacity="1" fill-rule="nonzero"/><g clip-path="url(#fa419e07a0)"><path fill="#525356" d="M 104.492188 112.058594 C 104.699219 80.1875 126.253906 53.308594 154.398438 40.261719 C 183.644531 26.710938 217.625 31.902344 243.105469 50.914062 C 262.304688 65.226562 274.984375 87.96875 275.144531 112.058594 C 275.183594 118.699219 285.492188 118.699219 285.449219 112.058594 C 285.242188 79.382812 265.183594 50.546875 237.21875 34.792969 C 208.289062 18.5 173.34375 18.527344 144.089844 33.890625 C 115.191406 49.058594 94.402344 78.980469 94.1875 112.058594 C 94.144531 118.703125 104.449219 118.703125 104.492188 112.058594 " fill-opacity="1" fill-rule="nonzero"/></g><g clip-path="url(#86d105dcde)"><path fill="#525356" d="M 84.257812 121.117188 L 290.742188 121.117188 C 297.386719 121.117188 297.386719 110.8125 290.742188 110.8125 L 84.261719 110.8125 C 77.617188 110.8125 77.617188 121.117188 84.261719 121.117188 " fill-opacity="1" fill-rule="nonzero"/></g><path fill="#525356" d="M 161.234375 31.328125 L 161.234375 63.238281 C 161.234375 69.882812 171.539062 69.882812 171.539062 63.238281 L 171.539062 31.328125 C 171.539062 24.683594 161.234375 24.683594 161.234375 31.328125 " fill-opacity="1" fill-rule="nonzero"/><path fill="#525356" d="M 207.214844 31.328125 L 207.214844 63.238281 C 207.214844 69.882812 217.523438 69.882812 217.523438 63.238281 L 217.523438 31.328125 C 217.523438 24.683594 207.214844 24.683594 207.214844 31.328125 " fill-opacity="1" fill-rule="nonzero"/><path fill="#525356" d="M 203.945312 92.949219 C 203.753906 101.050781 197.472656 107.328125 189.375 107.523438 C 181.273438 107.714844 174.996094 100.761719 174.808594 92.949219 C 174.617188 84.851562 181.5625 78.566406 189.375 78.378906 C 197.472656 78.1875 203.761719 85.140625 203.945312 92.949219 C 204.105469 99.585938 214.410156 99.601562 214.25 92.949219 C 213.921875 79.179688 203.148438 68.402344 189.375 68.074219 C 175.605469 67.746094 164.820312 79.671875 164.503906 92.949219 C 164.171875 106.71875 176.101562 117.511719 189.375 117.828125 C 203.148438 118.152344 213.9375 106.230469 214.25 92.949219 C 214.410156 86.300781 204.105469 86.316406 203.945312 92.949219 " fill-opacity="1" fill-rule="nonzero"/><path fill="#525356" d="M 95.046875 318.863281 C 95.191406 288.5625 108.714844 256.246094 136.964844 242.132812 C 145.625 237.804688 154.84375 236.734375 164.359375 236.734375 L 194.636719 236.734375 C 201.617188 236.734375 208.609375 236.6875 215.589844 236.742188 C 229.296875 236.84375 242.277344 242.828125 252.394531 251.835938 C 263.738281 261.933594 271.425781 275.558594 275.796875 289.988281 C 279.417969 301.925781 279.953125 314.019531 279.953125 326.371094 L 279.953125 347.019531 L 285.105469 341.863281 L 89.890625 341.863281 L 95.046875 347.019531 L 95.046875 318.863281 C 95.046875 312.21875 84.738281 312.21875 84.738281 318.863281 C 84.738281 328.246094 84.738281 337.632812 84.738281 347.019531 C 84.738281 349.828125 87.082031 352.171875 89.890625 352.171875 L 285.109375 352.171875 C 287.917969 352.171875 290.261719 349.828125 290.261719 347.019531 C 290.261719 324.621094 291.46875 302.210938 283.570312 280.78125 C 273.152344 252.527344 249.335938 228.605469 218.148438 226.53125 C 211.019531 226.058594 203.753906 226.429688 196.617188 226.429688 L 165.582031 226.429688 C 155.972656 226.429688 146.660156 227.183594 137.578125 230.6875 C 123.539062 236.109375 112.113281 246.0625 103.328125 258.128906 C 90.644531 275.53125 84.84375 297.53125 84.742188 318.863281 C 84.710938 325.511719 95.015625 325.511719 95.046875 318.863281 " fill-opacity="1" fill-rule="nonzero"/><path fill="#525356" d="M 143.785156 234.824219 C 148.125 250.378906 152.472656 265.933594 156.816406 281.488281 C 159.207031 290.054688 161.605469 298.628906 163.996094 307.210938 C 164.269531 308.179688 164.539062 309.148438 164.8125 310.125 C 165.109375 311.175781 164.914062 311.820312 164.914062 309.855469 L 164.914062 347.375 L 170.066406 342.222656 L 125.421875 342.222656 L 130.574219 347.375 C 130.558594 330.035156 130.144531 312.644531 128.292969 295.394531 C 127.304688 286.179688 126.046875 276.789062 123.203125 267.933594 C 121.417969 262.375 117.992188 253.292969 110.867188 253.039062 L 110.828125 253.039062 C 112.308594 255.621094 113.792969 258.203125 115.277344 260.792969 C 120.910156 248.207031 136.207031 240.675781 150.125 238.425781 C 156.671875 237.367188 153.882812 227.429688 147.382812 228.484375 C 135.597656 230.394531 124.558594 235.292969 115.746094 243.414062 C 112.101562 246.773438 108.429688 251.011719 106.378906 255.59375 C 104.910156 258.871094 106.554688 263.589844 110.828125 263.34375 C 111.253906 263.316406 108.925781 262.867188 110.085938 263.296875 C 108.480469 262.710938 108.929688 262.730469 109.605469 263.164062 C 110.417969 263.6875 108.367188 262.015625 109.546875 263.171875 C 109.726562 263.351562 109.898438 263.535156 110.0625 263.726562 C 110.878906 264.664062 109.273438 262.640625 109.90625 263.507812 C 110.347656 264.113281 110.734375 264.757812 111.097656 265.417969 C 111.410156 265.988281 112.628906 268.695312 111.957031 267.09375 C 112.492188 268.371094 112.949219 269.691406 113.375 271.011719 C 115.984375 279.144531 117.167969 287.738281 118.070312 296.15625 C 119.890625 313.148438 120.253906 330.296875 120.265625 347.375 C 120.269531 350.183594 122.609375 352.527344 125.421875 352.527344 L 170.066406 352.527344 C 172.878906 352.527344 175.222656 350.183594 175.222656 347.375 L 175.222656 322.890625 C 175.222656 317.578125 175.976562 311.785156 174.527344 306.605469 C 169.4375 288.363281 164.34375 270.117188 159.246094 251.875 C 157.40625 245.28125 155.566406 238.683594 153.722656 232.082031 C 151.9375 225.691406 141.996094 228.414062 143.785156 234.824219 " fill-opacity="1" fill-rule="nonzero"/><path fill="#525356" d="M 220.621094 232.082031 L 207.59375 278.746094 C 205.195312 287.320312 202.804688 295.894531 200.40625 304.46875 C 199.117188 309.09375 199.125 313.121094 199.125 317.96875 L 199.125 347.375 C 199.125 350.183594 201.464844 352.527344 204.277344 352.527344 L 248.917969 352.527344 C 251.730469 352.527344 254.074219 350.183594 254.074219 347.375 C 254.085938 330.542969 254.492188 313.683594 256.1875 296.925781 C 257.074219 288.234375 258.324219 279.414062 260.964844 271.011719 C 261.355469 269.773438 261.792969 268.558594 262.277344 267.355469 C 262.675781 266.367188 261.78125 268.507812 262.1875 267.570312 C 262.289062 267.335938 262.398438 267.101562 262.507812 266.867188 C 262.707031 266.441406 262.921875 266.023438 263.140625 265.609375 C 263.5 264.929688 263.902344 264.269531 264.34375 263.636719 C 265.097656 262.554688 263.554688 264.601562 264.1875 263.832031 C 264.351562 263.632812 264.53125 263.4375 264.707031 263.253906 C 265.828125 262.101562 264.335938 263.4375 264.667969 263.210938 C 265.167969 262.863281 266.355469 262.441406 264.207031 263.308594 C 265.375 262.839844 263.292969 263.328125 263.511719 263.34375 C 267.785156 263.589844 269.433594 258.871094 267.964844 255.59375 C 265.984375 251.167969 262.480469 247.183594 259.054688 243.84375 C 250.363281 235.386719 238.820312 230.40625 226.953125 228.484375 C 220.460938 227.429688 217.671875 237.367188 224.21875 238.425781 C 238.132812 240.675781 253.425781 248.207031 259.066406 260.792969 C 260.542969 258.203125 262.027344 255.621094 263.511719 253.039062 C 257.128906 252.667969 253.523438 261.371094 251.796875 266.023438 C 248.835938 274.011719 247.640625 282.648438 246.554688 291.042969 C 244.496094 307.09375 243.980469 323.34375 243.808594 339.5 C 243.78125 342.125 243.773438 344.75 243.765625 347.375 L 248.917969 342.222656 L 204.277344 342.222656 L 209.429688 347.375 L 209.429688 310.777344 C 209.429688 308.867188 209.257812 311.097656 209.292969 310.976562 C 209.492188 310.273438 209.683594 309.582031 209.875 308.878906 C 215.042969 290.40625 220.195312 271.929688 225.355469 253.457031 C 227.085938 247.246094 228.824219 241.035156 230.554688 234.824219 C 232.347656 228.414062 222.40625 225.691406 220.621094 232.082031 " fill-opacity="1" fill-rule="nonzero"/></svg>