<svg xmlns="http://www.w3.org/2000/svg" xmlns:xlink="http://www.w3.org/1999/xlink" width="500" zoomAndPan="magnify" viewBox="0 0 375 374.999991" height="500" preserveAspectRatio="xMidYMid meet" version="1.0"><defs><clipPath id="fb319e7ab7"><path d="M 60 206 L 240 206 L 240 283.992188 L 60 283.992188 Z M 60 206 " clip-rule="nonzero"/></clipPath></defs><path fill="#e04867" d="M 217.355469 163.59375 C 220.246094 178.398438 233.03125 189.511719 248.550781 189.511719 C 264.054688 189.511719 276.855469 178.398438 279.726562 163.59375 C 277.824219 163.878906 275.457031 164.167969 272.402344 164.464844 C 266.40625 165.066406 258.332031 165.566406 248.535156 165.566406 C 238.738281 165.566406 230.644531 165.066406 224.667969 164.464844 C 221.628906 164.164062 219.257812 163.878906 217.355469 163.59375 Z M 217.355469 163.59375 " fill-opacity="1" fill-rule="evenodd"/><path fill="#e04867" d="M 248.546875 108.367188 C 242.054688 108.367188 236.847656 112.558594 236.847656 117.761719 L 236.847656 126.910156 C 236.847656 130.0625 233.511719 130.230469 232.640625 127.078125 L 230.871094 120.699219 C 223.011719 126.058594 218.023438 134.703125 217.285156 144.183594 C 213.144531 144.066406 210.226562 146.984375 210.226562 150.644531 C 210.226562 153.945312 211.796875 156.335938 214.570312 157.085938 C 216.984375 157.734375 229.351562 159.722656 248.546875 159.722656 C 267.722656 159.722656 280.085938 157.730469 282.507812 157.085938 C 285.296875 156.335938 286.863281 153.945312 286.863281 150.644531 C 286.863281 146.984375 283.945312 144.066406 279.789062 144.183594 C 279.054688 134.703125 274.0625 126.058594 266.21875 120.699219 L 264.449219 127.078125 C 263.582031 130.226562 260.246094 130.0625 260.246094 126.910156 L 260.246094 117.761719 C 260.25 112.558594 255.023438 108.367188 248.546875 108.367188 Z M 248.546875 108.367188 " fill-opacity="1" fill-rule="evenodd"/><path fill="#e04867" d="M 268.238281 193.335938 L 250.480469 206.90625 C 249.3125 207.808594 247.726562 207.808594 246.558594 206.90625 L 228.816406 193.351562 L 197.554688 205.882812 C 197.089844 206.085938 196.671875 206.269531 196.253906 206.472656 L 222.238281 216.871094 C 230.9375 220.359375 236.027344 227.1875 238.328125 234.09375 L 246.039062 257.257812 C 246.855469 257.277344 247.742188 257.324219 248.542969 257.324219 C 269.355469 257.324219 299.777344 252.503906 310.507812 250.097656 C 313.023438 249.328125 315.78125 247.191406 314.480469 241.585938 L 308.203125 215.230469 C 307.136719 210.726562 304.800781 208.007812 299.523438 205.882812 Z M 268.238281 193.335938 " fill-opacity="1" fill-rule="nonzero"/><path fill="#e04867" d="M 149.949219 92.28125 C 141.1875 92.28125 134.136719 97.941406 134.136719 104.960938 L 134.136719 117.3125 C 134.136719 121.570312 129.652344 121.769531 128.464844 117.53125 L 126.09375 108.917969 C 115.480469 116.160156 108.753906 127.8125 107.769531 140.628906 C 102.160156 140.460938 98.222656 144.402344 98.222656 149.324219 C 98.222656 153.796875 100.34375 157.015625 104.09375 158.015625 C 107.351562 158.902344 124.039062 161.570312 149.945312 161.570312 C 175.832031 161.570312 192.53125 158.902344 195.789062 158.015625 C 199.53125 157.015625 201.664062 153.796875 201.664062 149.324219 C 201.664062 144.402344 197.726562 140.460938 192.117188 140.628906 C 191.132812 127.8125 184.390625 116.160156 173.796875 108.917969 L 171.40625 117.53125 C 170.238281 121.769531 165.730469 121.570312 165.730469 117.3125 L 165.730469 104.960938 C 165.734375 97.941406 158.707031 92.28125 149.949219 92.28125 Z M 149.949219 92.28125 " fill-opacity="1" fill-rule="evenodd"/><path fill="#e04867" d="M 107.855469 166.816406 C 111.742188 186.796875 129 201.796875 149.949219 201.796875 C 170.875 201.796875 188.148438 186.796875 192.039062 166.816406 C 189.453125 167.199219 186.246094 167.570312 182.128906 167.984375 C 174.046875 168.785156 163.148438 169.484375 149.933594 169.484375 C 136.714844 169.484375 125.777344 168.785156 117.703125 167.984375 C 113.617188 167.585938 110.410156 167.199219 107.855469 166.816406 Z M 107.855469 166.816406 " fill-opacity="1" fill-rule="evenodd"/><g clip-path="url(#fb319e7ab7)"><path fill="#e04867" d="M 97.839844 252.851562 L 202.03125 252.851562 L 202.03125 271.324219 C 186.929688 273.246094 163.464844 274.765625 149.949219 274.765625 C 136.414062 274.765625 112.960938 273.242188 97.839844 271.324219 Z M 176.53125 206.953125 L 152.566406 225.265625 C 150.984375 226.484375 148.863281 226.484375 147.261719 225.265625 L 123.308594 206.972656 L 113.03125 211.109375 L 113.03125 243.238281 L 97.84375 243.238281 L 97.84375 217.203125 L 81.121094 223.914062 C 73.992188 226.769531 71.371094 230.574219 69.40625 236.5 L 60.941406 261.832031 C 59.171875 269.410156 62.894531 272.28125 66.300781 273.316406 C 80.785156 276.566406 121.84375 283.058594 149.953125 283.058594 C 178.042969 283.058594 219.09375 276.566406 233.601562 273.316406 C 236.988281 272.28125 240.710938 269.410156 238.941406 261.832031 L 230.496094 236.5 C 228.507812 230.574219 225.886719 226.769531 218.761719 223.914062 L 202.035156 217.203125 L 202.035156 243.238281 L 186.867188 243.238281 L 186.867188 211.109375 Z M 176.53125 206.953125 " fill-opacity="1" fill-rule="evenodd"/></g></svg>